<?xml version="1.0" encoding="UTF-8" standalone="no"?>
<!-- Created with Inkscape (http://www.inkscape.org/) -->

<svg
   xmlns:dc="http://purl.org/dc/elements/1.1/"
   xmlns:cc="http://creativecommons.org/ns#"
   xmlns:rdf="http://www.w3.org/1999/02/22-rdf-syntax-ns#"
   xmlns:svg="http://www.w3.org/2000/svg"
   xmlns="http://www.w3.org/2000/svg"
   xmlns:xlink="http://www.w3.org/1999/xlink"
   xmlns:sodipodi="http://sodipodi.sourceforge.net/DTD/sodipodi-0.dtd"
   xmlns:inkscape="http://www.inkscape.org/namespaces/inkscape"
   width="2048"
   height="2048"
   id="svg2"
   version="1.1"
   inkscape:version="0.48.0 r9654"
   sodipodi:docname="level8-HD.svg"
   inkscape:export-filename="/Users/pawel/projects/iphone/StickyET_LSVG32/Resources/levels/level1.png"
   inkscape:export-xdpi="90"
   inkscape:export-ydpi="90"
   game_config="gravity_x=0.0,gravity_y=-1.0">
  <defs
     id="defs4">
    <inkscape:path-effect
       effect="spiro"
       id="path-effect3888"
       is_visible="true" />
  </defs>
  <sodipodi:namedview
     id="base"
     pagecolor="#ffffff"
     bordercolor="#666666"
     borderopacity="1.0"
     inkscape:pageopacity="0.0"
     inkscape:pageshadow="2"
     inkscape:zoom="0.44287215"
     inkscape:cx="948.74913"
     inkscape:cy="72.932575"
     inkscape:document-units="px"
     inkscape:current-layer="layer2"
     showgrid="false"
     inkscape:window-width="1436"
     inkscape:window-height="856"
     inkscape:window-x="0"
     inkscape:window-y="0"
     inkscape:window-maximized="0"
     showguides="true"
     inkscape:guide-bbox="true" />
  <metadata
     id="metadata7">
    <rdf:RDF>
      <cc:Work
         rdf:about="">
        <dc:format>image/svg+xml</dc:format>
        <dc:type
           rdf:resource="http://purl.org/dc/dcmitype/StillImage" />
        <dc:title></dc:title>
      </cc:Work>
    </rdf:RDF>
  </metadata>
  <g
     inkscape:label="graphics"
     inkscape:groupmode="layer"
     id="layer1"
     transform="translate(0,995.63782)"
     style="display:inline"
     sodipodi:insensitive="true">
    <image
       y="-995.63782"
       x="0"
       id="image3178"
       xlink:href="file:///Users/pawel/Downloads/levels-tiles-hd/air-level/cloud-test-2048x2048-bg.png"
       height="2048"
       width="2048"
       inkscape:export-filename="/Users/pawel/projects/iphone/StickyET_LSVG32/Resources/backgrounds-hd/level8-hd.png"
       inkscape:export-xdpi="90"
       inkscape:export-ydpi="90" />
    <image
       y="298.14392"
       x="917.7887"
       id="image3098"
       xlink:href="file:///Users/pawel/Downloads/levels-tiles-hd/air-level/cloud-2.png"
       height="113"
       width="165" />
    <image
       width="165"
       height="113"
       xlink:href="file:///Users/pawel/Downloads/levels-tiles-hd/air-level/cloud-2.png"
       id="image3101"
       x="1195.5212"
       y="15.895421" />
    <image
       y="18.15341"
       x="640.05621"
       id="image3103"
       xlink:href="file:///Users/pawel/Downloads/levels-tiles-hd/air-level/cloud-2.png"
       height="113"
       width="165" />
    <image
       y="-185.06551"
       x="1362.6123"
       id="image3105"
       xlink:href="file:///Users/pawel/Downloads/levels-tiles-hd/air-level/cloud-2.png"
       height="113"
       width="165" />
    <image
       width="165"
       height="113"
       xlink:href="file:///Users/pawel/Downloads/levels-tiles-hd/air-level/cloud-2.png"
       id="image3107"
       x="479.73898"
       y="-182.80751" />
    <image
       y="-424.41223"
       x="317.16385"
       id="image3109"
       xlink:href="file:///Users/pawel/Downloads/levels-tiles-hd/air-level/cloud-2.png"
       height="113"
       width="165" />
    <image
       width="165"
       height="113"
       xlink:href="file:///Users/pawel/Downloads/levels-tiles-hd/air-level/cloud-2.png"
       id="image3111"
       x="1520.6715"
       y="-426.67023" />
    <image
       y="-675.04889"
       x="1723.8904"
       id="image3113"
       xlink:href="file:///Users/pawel/Downloads/levels-tiles-hd/air-level/cloud-2.png"
       height="113"
       width="165" />
    <image
       width="165"
       height="113"
       xlink:href="file:///Users/pawel/Downloads/levels-tiles-hd/air-level/cloud-2.png"
       id="image3115"
       x="159.10469"
       y="-675.04889" />
    <image
       y="663.65833"
       x="962.94843"
       id="image3117"
       xlink:href="file:///Users/pawel/Downloads/levels-tiles-hd/air-level/cloud-2.png"
       height="113"
       width="165"
       transform="scale(1,-1)" />
  </g>
  <g
     inkscape:groupmode="layer"
     id="layer2"
     inkscape:label="physics:static"
     style="display:inline"
     transform="translate(0,1024)"
     sodipodi:insensitive="true">
    <path
       style="fill:none;stroke:#00ff00;stroke-width:7.65854406px;stroke-linecap:butt;stroke-linejoin:miter;stroke-opacity:1"
       d="M 92.034348,-980.1707 L 2004.1707,-980.1707 L 2004.1707,1180.1707 L 43.829272,1180.1707 L 43.829272,-980.1707 z"
       id="path3735"
       inkscape:connector-curvature="0" />
    <rect
       style="color:#000000;fill:none;stroke:#00ff00;stroke-width:1.13587773;stroke-linecap:butt;stroke-linejoin:miter;stroke-miterlimit:4;stroke-opacity:1;stroke-dasharray:none;stroke-dashoffset:0;marker:none;visibility:visible;display:inline;overflow:visible;enable-background:accumulate"
       id="rect3885"
       width="2006.8643"
       height="0.86412221"
       x="27.341888"
       y="1142.5675"
       game_data="object=worldboundary" />
    <path
       sodipodi:type="arc"
       style="fill:none;stroke:#ff0000;stroke-width:2;stroke-linecap:butt;stroke-linejoin:miter;stroke-miterlimit:4;stroke-opacity:1;stroke-dasharray:none;stroke-dashoffset:0"
       id="path3174"
       sodipodi:cx="546.43311"
       sodipodi:cy="230.31721"
       sodipodi:rx="18.063904"
       sodipodi:ry="14.676922"
       d="M 564.49701,230.31721 A 18.063904,14.676922 0 1 1 528.3692,230.31721 A 18.063904,14.676922 0 1 1 564.49701,230.31721 z"
       game_data="object=stickyhero"
       transform="matrix(2,0,0,2.4734546,-44.70733,-1411.501)" />
    <path
       sodipodi:type="arc"
       style="fill:none;stroke:#ff0000;stroke-width:2;stroke-linecap:butt;stroke-linejoin:miter;stroke-miterlimit:4;stroke-opacity:1;stroke-dasharray:none;stroke-dashoffset:0"
       id="path3944"
       sodipodi:cx="545.86859"
       sodipodi:cy="576.35388"
       sodipodi:rx="16.370413"
       sodipodi:ry="14.112425"
       d="M 562.239,576.35388 A 16.370413,14.112425 0 1 1 529.49818,576.35388 A 16.370413,14.112425 0 1 1 562.239,576.35388 z"
       game_data="object=portal"
       transform="matrix(2,0,0,2,-93.92643,-458.7574)" />
    <path
       sodipodi:type="arc"
       style="fill:none;stroke:#ff0000;stroke-width:2;stroke-linecap:butt;stroke-linejoin:miter;stroke-miterlimit:4;stroke-opacity:1;stroke-dasharray:none;stroke-dashoffset:0"
       id="path3948"
       sodipodi:cx="59.836681"
       sodipodi:cy="137.73972"
       sodipodi:rx="11.28994"
       sodipodi:ry="10.160946"
       d="M 71.126621,137.73972 A 11.28994,10.160946 0 1 1 48.546741,137.73972 A 11.28994,10.160946 0 1 1 71.126621,137.73972 z"
       game_data="object=star"
       transform="matrix(2,0,0,2,440.8019,-515.09088)" />
    <path
       sodipodi:type="arc"
       style="fill:none;stroke:#ff0000;stroke-width:2;stroke-linecap:butt;stroke-linejoin:miter;stroke-miterlimit:4;stroke-opacity:1;stroke-dasharray:none;stroke-dashoffset:0"
       id="path3950"
       sodipodi:cx="972.62836"
       sodipodi:cy="165.40007"
       sodipodi:rx="9.5964489"
       sodipodi:ry="9.5964489"
       d="M 982.22481,165.40007 A 9.5964489,9.5964489 0 1 1 963.03191,165.40007 A 9.5964489,9.5964489 0 1 1 982.22481,165.40007 z"
       game_data="object=star"
       transform="matrix(2,0,0,1.7282668,-660.7083,-329.46462)" />
    <path
       sodipodi:type="arc"
       style="fill:none;stroke:#ff0000;stroke-width:2;stroke-linecap:butt;stroke-linejoin:miter;stroke-miterlimit:4;stroke-opacity:1;stroke-dasharray:none;stroke-dashoffset:0"
       id="path3150"
       sodipodi:cx="113.36134"
       sodipodi:cy="457.1933"
       sodipodi:rx="9.5798321"
       sodipodi:ry="11.176471"
       d="M 122.94118,457.1933 A 9.5798321,11.176471 0 1 1 103.78151,457.1933 A 9.5798321,11.176471 0 1 1 122.94118,457.1933 z"
       game_data="object=star"
       transform="matrix(2,0,0,2,770.6527,-675.70142)" />
    <path
       sodipodi:type="arc"
       style="fill:none;stroke:#00ff00;stroke-width:2;stroke-linecap:butt;stroke-linejoin:miter;stroke-miterlimit:4;stroke-opacity:1;stroke-dasharray:none;stroke-dashoffset:0"
       id="path3224"
       sodipodi:cx="65.462181"
       sodipodi:cy="864.33612"
       sodipodi:rx="22.352942"
       sodipodi:ry="22.352942"
       d="M 87.815123,864.33612 A 22.352942,22.352942 0 1 1 43.10924,864.33612 A 22.352942,22.352942 0 1 1 87.815123,864.33612 z"
       transform="matrix(2,0,0,2,919.78146,-2481.3784)"
       game_data="object=stickable" />
    <path
       sodipodi:type="arc"
       style="fill:none;stroke:#00ff00;stroke-width:2;stroke-linecap:butt;stroke-linejoin:miter;stroke-miterlimit:4;stroke-opacity:1;stroke-dasharray:none;stroke-dashoffset:0;display:inline"
       id="path3994"
       sodipodi:cx="969.15967"
       sodipodi:cy="128.28574"
       sodipodi:rx="23.15126"
       sodipodi:ry="23.15126"
       d="M 992.31093,128.28574 A 23.15126,23.15126 0 1 1 946.00841,128.28574 A 23.15126,23.15126 0 1 1 992.31093,128.28574 z"
       transform="matrix(2,0,0,2,-127.93055,-905.92357)"
       game_data="object=stickable" />
    <path
       transform="matrix(2,0,0,2,934.80696,-1649.463)"
       game_data="object=flyingenemy,objectParams=patrolTime:2;patrolSpeed:3"
       d="M 67.739641,714.09113 A 11.854437,12.983431 0 1 1 44.030767,714.09113 A 11.854437,12.983431 0 1 1 67.739641,714.09113 z"
       sodipodi:ry="12.983431"
       sodipodi:rx="11.854437"
       sodipodi:cy="714.09113"
       sodipodi:cx="55.885204"
       id="path3021"
       style="fill:none;stroke:#ff0000;stroke-width:2;stroke-linecap:butt;stroke-linejoin:miter;stroke-miterlimit:4;stroke-opacity:1;stroke-dasharray:none;stroke-dashoffset:0"
       sodipodi:type="arc" />
    <path
       transform="matrix(2,0,0,2,489.98334,-2003.9671)"
       sodipodi:type="arc"
       style="fill:none;stroke:#ff0000;stroke-width:2;stroke-linecap:butt;stroke-linejoin:miter;stroke-miterlimit:4;stroke-opacity:1;stroke-dasharray:none;stroke-dashoffset:0"
       id="path3025"
       sodipodi:cx="55.885204"
       sodipodi:cy="714.09113"
       sodipodi:rx="11.854437"
       sodipodi:ry="12.983431"
       d="M 67.739641,714.09113 A 11.854437,12.983431 0 1 1 44.030767,714.09113 A 11.854437,12.983431 0 1 1 67.739641,714.09113 z"
       game_data="object=flyingenemy,objectParams=patrolTime:2;patrolSpeed:2" />
    <path
       game_data="object=stickable"
       transform="matrix(2,0,0,2,-331.14948,-655.2869)"
       d="M 992.31093,128.28574 A 23.15126,23.15126 0 1 1 946.00841,128.28574 A 23.15126,23.15126 0 1 1 992.31093,128.28574 z"
       sodipodi:ry="23.15126"
       sodipodi:rx="23.15126"
       sodipodi:cy="128.28574"
       sodipodi:cx="969.15967"
       id="path3074"
       style="fill:none;stroke:#00ff00;stroke-width:2;stroke-linecap:butt;stroke-linejoin:miter;stroke-miterlimit:4;stroke-opacity:1;stroke-dasharray:none;stroke-dashoffset:0;display:inline"
       sodipodi:type="arc" />
    <path
       sodipodi:type="arc"
       style="fill:none;stroke:#00ff00;stroke-width:2;stroke-linecap:butt;stroke-linejoin:miter;stroke-miterlimit:4;stroke-opacity:1;stroke-dasharray:none;stroke-dashoffset:0;display:inline"
       id="path3076"
       sodipodi:cx="969.15967"
       sodipodi:cy="128.28574"
       sodipodi:rx="23.15126"
       sodipodi:ry="23.15126"
       d="M 992.31093,128.28574 A 23.15126,23.15126 0 1 1 946.00841,128.28574 A 23.15126,23.15126 0 1 1 992.31093,128.28574 z"
       transform="matrix(2,0,0,2,-491.4666,-415.94018)"
       game_data="object=stickable" />
    <path
       game_data="object=stickable"
       transform="matrix(2,0,0,2,-654.0418,-214.97924)"
       d="M 992.31093,128.28574 A 23.15126,23.15126 0 1 1 946.00841,128.28574 A 23.15126,23.15126 0 1 1 992.31093,128.28574 z"
       sodipodi:ry="23.15126"
       sodipodi:rx="23.15126"
       sodipodi:cy="128.28574"
       sodipodi:cx="969.15967"
       id="path3078"
       style="fill:none;stroke:#00ff00;stroke-width:2;stroke-linecap:butt;stroke-linejoin:miter;stroke-miterlimit:4;stroke-opacity:1;stroke-dasharray:none;stroke-dashoffset:0;display:inline"
       sodipodi:type="arc" />
    <path
       sodipodi:type="arc"
       style="fill:none;stroke:#00ff00;stroke-width:2;stroke-linecap:butt;stroke-linejoin:miter;stroke-miterlimit:4;stroke-opacity:1;stroke-dasharray:none;stroke-dashoffset:0;display:inline"
       id="path3080"
       sodipodi:cx="969.15967"
       sodipodi:cy="128.28574"
       sodipodi:rx="23.15126"
       sodipodi:ry="23.15126"
       d="M 992.31093,128.28574 A 23.15126,23.15126 0 1 1 946.00841,128.28574 A 23.15126,23.15126 0 1 1 992.31093,128.28574 z"
       transform="matrix(2,0,0,2,-934.0323,67.26926)"
       game_data="object=stickable" />
    <path
       game_data="object=stickable"
       transform="matrix(2,0,0,2,-1211.7648,-212.72126)"
       d="M 992.31093,128.28574 A 23.15126,23.15126 0 1 1 946.00841,128.28574 A 23.15126,23.15126 0 1 1 992.31093,128.28574 z"
       sodipodi:ry="23.15126"
       sodipodi:rx="23.15126"
       sodipodi:cy="128.28574"
       sodipodi:cx="969.15967"
       id="path3082"
       style="fill:none;stroke:#00ff00;stroke-width:2;stroke-linecap:butt;stroke-linejoin:miter;stroke-miterlimit:4;stroke-opacity:1;stroke-dasharray:none;stroke-dashoffset:0;display:inline"
       sodipodi:type="arc" />
    <path
       sodipodi:type="arc"
       style="fill:none;stroke:#00ff00;stroke-width:2;stroke-linecap:butt;stroke-linejoin:miter;stroke-miterlimit:4;stroke-opacity:1;stroke-dasharray:none;stroke-dashoffset:0;display:inline"
       id="path3084"
       sodipodi:cx="969.15967"
       sodipodi:cy="128.28574"
       sodipodi:rx="23.15126"
       sodipodi:ry="23.15126"
       d="M 992.31093,128.28574 A 23.15126,23.15126 0 1 1 946.00841,128.28574 A 23.15126,23.15126 0 1 1 992.31093,128.28574 z"
       transform="matrix(2,0,0,2,-1372.0819,-415.94018)"
       game_data="object=stickable" />
    <path
       game_data="object=stickable"
       transform="matrix(2,0,0,2,-1534.6571,-655.2869)"
       d="M 992.31093,128.28574 A 23.15126,23.15126 0 1 1 946.00841,128.28574 A 23.15126,23.15126 0 1 1 992.31093,128.28574 z"
       sodipodi:ry="23.15126"
       sodipodi:rx="23.15126"
       sodipodi:cy="128.28574"
       sodipodi:cx="969.15967"
       id="path3086"
       style="fill:none;stroke:#00ff00;stroke-width:2;stroke-linecap:butt;stroke-linejoin:miter;stroke-miterlimit:4;stroke-opacity:1;stroke-dasharray:none;stroke-dashoffset:0;display:inline"
       sodipodi:type="arc" />
    <path
       sodipodi:type="arc"
       style="fill:none;stroke:#00ff00;stroke-width:2;stroke-linecap:butt;stroke-linejoin:miter;stroke-miterlimit:4;stroke-opacity:1;stroke-dasharray:none;stroke-dashoffset:0;display:inline"
       id="path3088"
       sodipodi:cx="969.15967"
       sodipodi:cy="128.28574"
       sodipodi:rx="23.15126"
       sodipodi:ry="23.15126"
       d="M 992.31093,128.28574 A 23.15126,23.15126 0 1 1 946.00841,128.28574 A 23.15126,23.15126 0 1 1 992.31093,128.28574 z"
       transform="matrix(2,0,0,2,-1694.9742,-905.92357)"
       game_data="object=stickable" />
    <path
       sodipodi:type="arc"
       style="fill:none;stroke:#ff0000;stroke-width:2;stroke-linecap:butt;stroke-linejoin:miter;stroke-miterlimit:4;stroke-opacity:1;stroke-dasharray:none;stroke-dashoffset:0"
       id="path3090"
       sodipodi:cx="651.99402"
       sodipodi:cy="232.01071"
       sodipodi:rx="60.40118"
       sodipodi:ry="55.885204"
       d="M 712.3952,232.01071 A 60.40118,55.885204 0 1 1 591.59284,232.01071 A 60.40118,55.885204 0 1 1 712.3952,232.01071 z"
       transform="matrix(2,0,0,2,-266.44264,-935.93877)"
       game_data="object=spinner" />
    <path
       game_data="object=spinner"
       transform="matrix(2,0,0,2,419.98572,-13.79214)"
       d="M 712.3952,232.01071 A 60.40118,55.885204 0 1 1 591.59284,232.01071 A 60.40118,55.885204 0 1 1 712.3952,232.01071 z"
       sodipodi:ry="55.885204"
       sodipodi:rx="60.40118"
       sodipodi:cy="232.01071"
       sodipodi:cx="651.99402"
       id="path3092"
       style="fill:none;stroke:#ff0000;stroke-width:2;stroke-linecap:butt;stroke-linejoin:miter;stroke-miterlimit:4;stroke-opacity:1;stroke-dasharray:none;stroke-dashoffset:0"
       sodipodi:type="arc" />
    <path
       sodipodi:type="arc"
       style="fill:none;stroke:#ff0000;stroke-width:2;stroke-linecap:butt;stroke-linejoin:miter;stroke-miterlimit:4;stroke-opacity:1;stroke-dasharray:none;stroke-dashoffset:0"
       id="path3094"
       sodipodi:cx="651.99402"
       sodipodi:cy="232.01071"
       sodipodi:rx="60.40118"
       sodipodi:ry="55.885204"
       d="M 712.3952,232.01071 A 60.40118,55.885204 0 1 1 591.59284,232.01071 A 60.40118,55.885204 0 1 1 712.3952,232.01071 z"
       transform="matrix(2,0,0,2,-981.1857,-13.79214)"
       game_data="object=spinner" />
  </g>
</svg>
