<?xml version="1.0" encoding="UTF-8" standalone="no"?>
<!-- Created with Inkscape (http://www.inkscape.org/) -->

<svg
   xmlns:dc="http://purl.org/dc/elements/1.1/"
   xmlns:cc="http://creativecommons.org/ns#"
   xmlns:rdf="http://www.w3.org/1999/02/22-rdf-syntax-ns#"
   xmlns:svg="http://www.w3.org/2000/svg"
   xmlns="http://www.w3.org/2000/svg"
   xmlns:xlink="http://www.w3.org/1999/xlink"
   xmlns:sodipodi="http://sodipodi.sourceforge.net/DTD/sodipodi-0.dtd"
   xmlns:inkscape="http://www.inkscape.org/namespaces/inkscape"
   width="2048"
   height="2048"
   id="svg2"
   version="1.1"
   inkscape:version="0.48.0 r9654"
   sodipodi:docname="level26.svg"
   inkscape:export-filename="/Users/pawel/projects/iphone/StickyET_LSVG32/Resources/backgrounds/level14.png"
   inkscape:export-xdpi="90"
   inkscape:export-ydpi="90"
   game_config="gravity_x=0.0,gravity_y=-1.0">
  <defs
     id="defs4">
    <inkscape:path-effect
       effect="spiro"
       id="path-effect3888"
       is_visible="true" />
  </defs>
  <sodipodi:namedview
     id="base"
     pagecolor="#ffffff"
     bordercolor="#666666"
     borderopacity="1.0"
     inkscape:pageopacity="0.0"
     inkscape:pageshadow="2"
     inkscape:zoom="0.44056068"
     inkscape:cx="1350.0949"
     inkscape:cy="1023.9347"
     inkscape:document-units="px"
     inkscape:current-layer="layer2"
     showgrid="false"
     inkscape:window-width="1436"
     inkscape:window-height="856"
     inkscape:window-x="0"
     inkscape:window-y="0"
     inkscape:window-maximized="0"
     showguides="true"
     inkscape:guide-bbox="true" />
  <metadata
     id="metadata7">
    <rdf:RDF>
      <cc:Work
         rdf:about="">
        <dc:format>image/svg+xml</dc:format>
        <dc:type
           rdf:resource="http://purl.org/dc/dcmitype/StillImage" />
        <dc:title />
      </cc:Work>
    </rdf:RDF>
  </metadata>
  <g
     inkscape:label="graphics"
     inkscape:groupmode="layer"
     id="layer1"
     transform="translate(0,995.63782)"
     style="display:inline"
     sodipodi:insensitive="true">
    <image
       style="display:inline"
       y="-995.63782"
       x="0"
       id="image3080"
       xlink:href="file:///Users/pawel/Downloads/firehdtiles/bg-hd.jpg"
       height="2048"
       width="2048" />
    <image
       style="display:inline"
       y="-446.23718"
       x="859.79846"
       id="image3142"
       xlink:href="file:///Users/pawel/Downloads/firehdtiles/cloud-1-hd.png"
       height="228"
       width="523" />
    <image
       style="display:inline"
       y="429.44308"
       x="1109.9408"
       id="image3204"
       xlink:href="file:///Users/pawel/Downloads/firehdtiles/cloud-2-hd.png"
       height="120"
       width="513" />
    <image
       style="display:inline"
       y="-78.222221"
       x="692.28271"
       id="image3266"
       xlink:href="file:///Users/pawel/Downloads/firehdtiles/cloud-3-hd.png"
       height="182"
       width="740" />
    <image
       style="display:inline"
       y="284.04645"
       x="536.45807"
       id="image3328"
       xlink:href="file:///Users/pawel/Downloads/firehdtiles/cloud-4-hd.png"
       height="320"
       width="634" />
    <image
       style="display:inline"
       y="863.55298"
       x="420.98276"
       id="image3850"
       xlink:href="file:///Users/pawel/Downloads/firehdtiles/rock-7-hd.png"
       height="78"
       width="184" />
    <image
       width="245"
       height="131"
       xlink:href="file:///Users/pawel/Downloads/firehdtiles/rock-6-hd.png"
       id="image3015"
       x="-370.33231"
       y="588.90082"
       style="display:inline"
       transform="matrix(0.73318882,-0.68002511,0.68002511,0.73318882,0,0)" />
    <image
       transform="matrix(-0.78737753,-0.61647111,-0.61647111,0.78737753,0,0)"
       style="display:inline"
       y="-659.20886"
       x="-1917.759"
       id="image3017"
       xlink:href="file:///Users/pawel/Downloads/firehdtiles/rock-6-hd.png"
       height="131"
       width="245" />
    <image
       width="293"
       height="308"
       xlink:href="file:///Users/pawel/Downloads/firehdtiles/rock-4-hd.png"
       id="image3019"
       x="663.33459"
       y="864.96552"
       style="display:inline"
       transform="matrix(0.95670105,-0.29107234,0.29107234,0.95670105,0,0)" />
    <image
       width="427"
       height="195"
       xlink:href="file:///Users/pawel/Downloads/firehdtiles/rock-3-hd.png"
       id="image3021"
       x="238.78033"
       y="-511.45248"
       style="display:inline"
       transform="matrix(-0.10701666,0.99425723,-0.99425723,-0.10701666,0,0)" />
    <image
       width="404"
       height="202"
       xlink:href="file:///Users/pawel/Downloads/firehdtiles/rock-2-hd.png"
       id="image3023"
       x="-21.456728"
       y="-584.56622"
       style="display:inline"
       transform="matrix(-0.26749718,0.96355864,-0.96355864,-0.26749718,0,0)" />
    <image
       width="293"
       height="308"
       xlink:href="file:///Users/pawel/Downloads/firehdtiles/rock-4-hd.png"
       id="image3025"
       x="358.69583"
       y="13.490711"
       style="display:inline"
       transform="matrix(0.99228636,-0.12396686,0.12396686,0.99228636,0,0)" />
    <image
       width="245"
       height="131"
       xlink:href="file:///Users/pawel/Downloads/firehdtiles/rock-6-hd.png"
       id="image3027"
       x="252.61223"
       y="220.00055"
       style="display:inline"
       transform="matrix(0.71239458,-0.70177915,0.70177915,0.71239458,0,0)" />
    <image
       transform="matrix(0.71239458,-0.70177915,0.70177915,0.71239458,0,0)"
       style="display:inline"
       y="186.88914"
       x="387.18878"
       id="image3029"
       xlink:href="file:///Users/pawel/Downloads/firehdtiles/rock-6-hd.png"
       height="131"
       width="245" />
    <image
       width="303"
       height="327"
       xlink:href="file:///Users/pawel/Downloads/firehdtiles/rock-1-hd.png"
       id="image3031"
       x="888.08459"
       y="450.19662"
       style="display:inline"
       transform="scale(1,-1)" />
    <image
       width="245"
       height="131"
       xlink:href="file:///Users/pawel/Downloads/firehdtiles/rock-6-hd.png"
       id="image3033"
       x="547.34851"
       y="140.74521"
       style="display:inline"
       transform="matrix(0.71239458,-0.70177915,0.70177915,0.71239458,0,0)" />
    <image
       width="293"
       height="308"
       xlink:href="file:///Users/pawel/Downloads/firehdtiles/rock-4-hd.png"
       id="image3035"
       x="479.73288"
       y="-825.90649"
       style="display:inline"
       transform="matrix(0.94760268,0.31945135,-0.31945135,0.94760268,0,0)" />
    <image
       width="245"
       height="131"
       xlink:href="file:///Users/pawel/Downloads/firehdtiles/rock-6-hd.png"
       id="image3037"
       x="735.49786"
       y="-651.95862"
       style="display:inline" />
    <image
       width="184"
       height="78"
       xlink:href="file:///Users/pawel/Downloads/firehdtiles/rock-7-hd.png"
       id="image3039"
       x="1465.1068"
       y="863.55298"
       style="display:inline" />
    <image
       transform="matrix(0.10701666,0.99425723,0.99425723,-0.10701666,0,0)"
       style="display:inline"
       y="1568.4808"
       x="471.78528"
       id="image3041"
       xlink:href="file:///Users/pawel/Downloads/firehdtiles/rock-3-hd.png"
       height="195"
       width="427" />
    <image
       transform="matrix(0.26749718,0.96355864,0.96355864,-0.26749718,0,0)"
       style="display:inline"
       y="1429.6603"
       x="547.14301"
       id="image3043"
       xlink:href="file:///Users/pawel/Downloads/firehdtiles/rock-2-hd.png"
       height="202"
       width="404" />
    <image
       transform="matrix(-0.99228636,-0.12396686,-0.12396686,0.99228636,0,0)"
       style="display:inline"
       y="-236.95322"
       x="-1719.2098"
       id="image3045"
       xlink:href="file:///Users/pawel/Downloads/firehdtiles/rock-4-hd.png"
       height="308"
       width="293" />
    <image
       transform="matrix(-0.71239458,-0.70177915,-0.70177915,0.71239458,0,0)"
       style="display:inline"
       y="-1242.302"
       x="-1244.7472"
       id="image3047"
       xlink:href="file:///Users/pawel/Downloads/firehdtiles/rock-6-hd.png"
       height="131"
       width="245" />
    <image
       width="245"
       height="131"
       xlink:href="file:///Users/pawel/Downloads/firehdtiles/rock-6-hd.png"
       id="image3049"
       x="-1110.1707"
       y="-1275.4133"
       style="display:inline"
       transform="matrix(-0.71239458,-0.70177915,-0.70177915,0.71239458,0,0)" />
    <image
       transform="matrix(-0.71239458,-0.70177915,-0.70177915,0.71239458,0,0)"
       style="display:inline"
       y="-1321.5573"
       x="-950.01105"
       id="image3051"
       xlink:href="file:///Users/pawel/Downloads/firehdtiles/rock-6-hd.png"
       height="131"
       width="245" />
    <image
       transform="matrix(-0.94760268,0.31945135,0.31945135,0.94760268,0,0)"
       style="display:inline"
       y="-148.7155"
       x="-1500.6273"
       id="image3053"
       xlink:href="file:///Users/pawel/Downloads/firehdtiles/rock-4-hd.png"
       height="308"
       width="293" />
    <image
       style="display:inline"
       y="-642.87927"
       x="-1357.4263"
       id="image3055"
       xlink:href="file:///Users/pawel/Downloads/firehdtiles/rock-6-hd.png"
       height="131"
       width="245"
       transform="scale(-1,1)" />
    <image
       width="245"
       height="131"
       xlink:href="file:///Users/pawel/Downloads/firehdtiles/rock-6-hd.png"
       id="image3057"
       x="-611.0307"
       y="-2043.9916"
       style="display:inline"
       transform="matrix(-0.43731655,0.89930764,-0.89930764,-0.43731655,0,0)" />
    <image
       transform="matrix(-0.43731655,0.89930764,-0.89930764,-0.43731655,0,0)"
       style="display:inline"
       y="-1756.1271"
       x="-1203.0018"
       id="image3059"
       xlink:href="file:///Users/pawel/Downloads/firehdtiles/rock-6-hd.png"
       height="131"
       width="245" />
    <image
       width="245"
       height="131"
       xlink:href="file:///Users/pawel/Downloads/firehdtiles/rock-6-hd.png"
       id="image3061"
       x="-112.09804"
       y="-156.37378"
       style="display:inline"
       transform="matrix(-0.43731655,0.89930764,-0.89930764,-0.43731655,0,0)" />
  </g>
  <g
     inkscape:groupmode="layer"
     id="layer2"
     inkscape:label="physics:static"
     style="display:inline"
     transform="translate(0,1024)">
    <path
       style="fill:none;stroke:#00ff00;stroke-width:7.65854406px;stroke-linecap:butt;stroke-linejoin:miter;stroke-opacity:1"
       d="M 92.03434,-980.17071 L 2004.1706,-980.17071 L 2004.1706,1180.1706 L 43.82928,1180.1706 L 43.82928,-980.17071 z"
       id="path3735"
       inkscape:connector-curvature="0" />
    <rect
       style="color:#000000;fill:none;stroke:#00ff00;stroke-width:1.13587773;stroke-linecap:butt;stroke-linejoin:miter;stroke-miterlimit:4;stroke-opacity:1;stroke-dasharray:none;stroke-dashoffset:0;marker:none;visibility:visible;display:inline;overflow:visible;enable-background:accumulate"
       id="rect3885"
       width="2006.8643"
       height="0.86412221"
       x="27.341797"
       y="1142.5676"
       game_data="object=worldboundary" />
    <path
       sodipodi:type="arc"
       style="fill:none;stroke:#ff0000;stroke-width:2;stroke-linecap:butt;stroke-linejoin:miter;stroke-miterlimit:4;stroke-opacity:1;stroke-dasharray:none;stroke-dashoffset:0"
       id="path3174"
       sodipodi:cx="546.43311"
       sodipodi:cy="230.31721"
       sodipodi:rx="18.063904"
       sodipodi:ry="14.676922"
       d="M 564.49701,230.31721 A 18.063904,14.676922 0 1 1 528.3692,230.31721 A 18.063904,14.676922 0 1 1 564.49701,230.31721 z"
       game_data="object=stickyhero"
       transform="matrix(2,0,0,2.4734546,-74.056274,-21.762827)" />
    <path
       sodipodi:type="arc"
       style="fill:none;stroke:#ff0000;stroke-width:2;stroke-linecap:butt;stroke-linejoin:miter;stroke-miterlimit:4;stroke-opacity:1;stroke-dasharray:none;stroke-dashoffset:0"
       id="path3944"
       sodipodi:cx="545.86859"
       sodipodi:cy="576.35388"
       sodipodi:rx="16.370413"
       sodipodi:ry="14.112425"
       d="M 562.239,576.35388 A 16.370413,14.112425 0 1 1 529.49818,576.35388 A 16.370413,14.112425 0 1 1 562.239,576.35388 z"
       game_data="object=portal"
       transform="matrix(2,0,0,2,-43.144867,-2024.2251)" />
    <path
       sodipodi:type="arc"
       style="fill:none;stroke:#ff0000;stroke-width:2;stroke-linecap:butt;stroke-linejoin:miter;stroke-miterlimit:4;stroke-opacity:1;stroke-dasharray:none;stroke-dashoffset:0"
       id="path3948"
       sodipodi:cx="59.836681"
       sodipodi:cy="137.73972"
       sodipodi:rx="11.28994"
       sodipodi:ry="10.160946"
       d="M 71.126621,137.73972 A 11.28994,10.160946 0 1 1 48.546741,137.73972 A 11.28994,10.160946 0 1 1 71.126621,137.73972 z"
       game_data="object=star"
       transform="matrix(2,0,0,2,22.092768,-356.36797)" />
    <path
       sodipodi:type="arc"
       style="fill:none;stroke:#ff0000;stroke-width:2;stroke-linecap:butt;stroke-linejoin:miter;stroke-miterlimit:4;stroke-opacity:1;stroke-dasharray:none;stroke-dashoffset:0"
       id="path3950"
       sodipodi:cx="972.62836"
       sodipodi:cy="165.40007"
       sodipodi:rx="9.5964489"
       sodipodi:ry="9.5964489"
       d="M 982.22481,165.40007 A 9.5964489,9.5964489 0 1 1 963.03191,165.40007 A 9.5964489,9.5964489 0 1 1 982.22481,165.40007 z"
       game_data="object=star"
       transform="matrix(2.4512,0,0,2.1176574,-450.00553,-51.454383)" />
    <path
       sodipodi:type="arc"
       style="fill:none;stroke:#ff0000;stroke-width:2;stroke-linecap:butt;stroke-linejoin:miter;stroke-miterlimit:4;stroke-opacity:1;stroke-dasharray:none;stroke-dashoffset:0"
       id="path3150"
       sodipodi:cx="113.36134"
       sodipodi:cy="457.1933"
       sodipodi:rx="9.5798321"
       sodipodi:ry="11.176471"
       d="M 122.94118,457.1933 A 9.5798321,11.176471 0 1 1 103.78151,457.1933 A 9.5798321,11.176471 0 1 1 122.94118,457.1933 z"
       game_data="object=star"
       transform="matrix(2.7875642,0,0,2.0657836,1605.4945,-1318.6431)" />
    <path
       sodipodi:type="arc"
       style="fill:none;stroke:#ff0000;stroke-width:2;stroke-linecap:butt;stroke-linejoin:miter;stroke-miterlimit:4;stroke-opacity:1;stroke-dasharray:none;stroke-dashoffset:0"
       id="path3947"
       sodipodi:cx="130.80878"
       sodipodi:cy="472.67712"
       sodipodi:rx="10.432602"
       sodipodi:ry="12.037618"
       d="M 141.24138,472.67712 A 10.432602,12.037618 0 1 1 120.37617,472.67712 A 10.432602,12.037618 0 1 1 141.24138,472.67712 z"
       transform="matrix(2.1533954,0,0,1.8662761,578.91228,-1790.5755)"
       game_data="object=flyingenemy,objectParams=patrolTime:2;patrolSpeed:2" />
    <path
       sodipodi:type="arc"
       style="fill:none;stroke:#ff0000;stroke-width:2;stroke-linecap:butt;stroke-linejoin:miter;stroke-miterlimit:4;stroke-opacity:1;stroke-dasharray:none;stroke-dashoffset:0"
       id="path4005"
       sodipodi:cx="861.09088"
       sodipodi:cy="315.38559"
       sodipodi:rx="13.642633"
       sodipodi:ry="13.642633"
       d="M 874.73351,315.38559 A 13.642633,13.642633 0 1 1 847.44825,315.38559 A 13.642633,13.642633 0 1 1 874.73351,315.38559 z"
       transform="matrix(2,0,0,2,115.0237,-1434.8127)"
       game_data="object=hole" />
    <path
       sodipodi:type="arc"
       style="fill:none;stroke:#00ff00;stroke-width:2;stroke-linecap:butt;stroke-linejoin:miter;stroke-miterlimit:4;stroke-opacity:1;stroke-dasharray:none;stroke-dashoffset:0;display:inline"
       id="path4092"
       sodipodi:cx="231.12225"
       sodipodi:cy="227.10971"
       sodipodi:rx="33.70533"
       sodipodi:ry="29.692789"
       d="M 264.82758,227.10971 A 33.70533,29.692789 0 1 1 197.41692,227.10971 A 33.70533,29.692789 0 1 1 264.82758,227.10971 z"
       transform="matrix(3.152152,0,0,3.3395123,325.62511,-1436.779)"
       game_data="object=stickable" />
    <path
       game_data="object=hole"
       transform="matrix(2,0,0,2,-1444.8989,-924.31654)"
       d="M 874.73351,315.38559 A 13.642633,13.642633 0 1 1 847.44825,315.38559 A 13.642633,13.642633 0 1 1 874.73351,315.38559 z"
       sodipodi:ry="13.642633"
       sodipodi:rx="13.642633"
       sodipodi:cy="315.38559"
       sodipodi:cx="861.09088"
       id="path4132"
       style="fill:none;stroke:#ff0000;stroke-width:2;stroke-linecap:butt;stroke-linejoin:miter;stroke-miterlimit:4;stroke-opacity:1;stroke-dasharray:none;stroke-dashoffset:0"
       sodipodi:type="arc" />
    <path
       sodipodi:type="arc"
       style="fill:none;stroke:#ff0000;stroke-width:2;stroke-linecap:butt;stroke-linejoin:miter;stroke-miterlimit:4;stroke-opacity:1;stroke-dasharray:none;stroke-dashoffset:0"
       id="path4136"
       sodipodi:cx="861.09088"
       sodipodi:cy="315.38559"
       sodipodi:rx="13.642633"
       sodipodi:ry="13.642633"
       d="M 874.73351,315.38559 A 13.642633,13.642633 0 1 1 847.44825,315.38559 A 13.642633,13.642633 0 1 1 874.73351,315.38559 z"
       transform="matrix(2,0,0,2,-1420.9559,-1414.702)"
       game_data="object=hole" />
    <path
       game_data="object=hole"
       transform="matrix(2,0,0,2,155.75654,-554.44602)"
       d="M 874.73351,315.38559 A 13.642633,13.642633 0 1 1 847.44825,315.38559 A 13.642633,13.642633 0 1 1 874.73351,315.38559 z"
       sodipodi:ry="13.642633"
       sodipodi:rx="13.642633"
       sodipodi:cy="315.38559"
       sodipodi:cx="861.09088"
       id="path4138"
       style="fill:none;stroke:#ff0000;stroke-width:2;stroke-linecap:butt;stroke-linejoin:miter;stroke-miterlimit:4;stroke-opacity:1;stroke-dasharray:none;stroke-dashoffset:0"
       sodipodi:type="arc" />
    <path
       sodipodi:type="arc"
       style="fill:none;stroke:#ff0000;stroke-width:2;stroke-linecap:butt;stroke-linejoin:miter;stroke-miterlimit:4;stroke-opacity:1;stroke-dasharray:none;stroke-dashoffset:0"
       id="path4142"
       sodipodi:cx="937.32916"
       sodipodi:cy="1232.652"
       sodipodi:rx="25.68025"
       sodipodi:ry="25.68025"
       d="M 963.00941,1232.652 A 25.68025,25.68025 0 1 1 911.64891,1232.652 A 25.68025,25.68025 0 1 1 963.00941,1232.652 z"
       transform="translate(-418.65665,-440.71922)"
       game_data="object=jump" />
    <path
       game_data="object=jump"
       transform="translate(-769.21144,-1216.957)"
       d="M 963.00941,1232.652 A 25.68025,25.68025 0 1 1 911.64891,1232.652 A 25.68025,25.68025 0 1 1 963.00941,1232.652 z"
       sodipodi:ry="25.68025"
       sodipodi:rx="25.68025"
       sodipodi:cy="1232.652"
       sodipodi:cx="937.32916"
       id="path4144"
       style="fill:none;stroke:#ff0000;stroke-width:2;stroke-linecap:butt;stroke-linejoin:miter;stroke-miterlimit:4;stroke-opacity:1;stroke-dasharray:none;stroke-dashoffset:0"
       sodipodi:type="arc" />
    <path
       sodipodi:type="arc"
       style="fill:none;stroke:#ff0000;stroke-width:2;stroke-linecap:butt;stroke-linejoin:miter;stroke-miterlimit:4;stroke-opacity:1;stroke-dasharray:none;stroke-dashoffset:0"
       id="path4146"
       sodipodi:cx="937.32916"
       sodipodi:cy="1232.652"
       sodipodi:rx="25.68025"
       sodipodi:ry="25.68025"
       d="M 963.00941,1232.652 A 25.68025,25.68025 0 1 1 911.64891,1232.652 A 25.68025,25.68025 0 1 1 963.00941,1232.652 z"
       transform="translate(624.94911,-456.01346)"
       game_data="object=jump" />
    <path
       sodipodi:type="arc"
       style="fill:none;stroke:#ff0000;stroke-width:2;stroke-linecap:butt;stroke-linejoin:miter;stroke-miterlimit:4;stroke-opacity:1;stroke-dasharray:none;stroke-dashoffset:0"
       id="path3026"
       sodipodi:cx="-1137.1873"
       sodipodi:cy="967.55859"
       sodipodi:rx="179.31696"
       sodipodi:ry="163.42812"
       d="M -957.8703,967.55859 A 179.31696,163.42812 0 1 1 -1316.5042,967.55859 A 179.31696,163.42812 0 1 1 -957.8703,967.55859 z"
       transform="matrix(0.67655683,0,0,0.68726308,1616.719,-842.48808)"
       game_data="object=spinner" />
    <path
       game_data="object=spinner"
       transform="matrix(0.67655683,0,0,0.68726308,1988.9719,-837.94841)"
       d="M -957.8703,967.55859 A 179.31696,163.42812 0 1 1 -1316.5042,967.55859 A 179.31696,163.42812 0 1 1 -957.8703,967.55859 z"
       sodipodi:ry="163.42812"
       sodipodi:rx="179.31696"
       sodipodi:cy="967.55859"
       sodipodi:cx="-1137.1873"
       id="path3063"
       style="fill:none;stroke:#ff0000;stroke-width:2;stroke-linecap:butt;stroke-linejoin:miter;stroke-miterlimit:4;stroke-opacity:1;stroke-dasharray:none;stroke-dashoffset:0"
       sodipodi:type="arc" />
    <path
       sodipodi:type="arc"
       style="fill:none;stroke:#ff0000;stroke-width:2;stroke-linecap:butt;stroke-linejoin:miter;stroke-miterlimit:4;stroke-opacity:1;stroke-dasharray:none;stroke-dashoffset:0"
       id="path3065"
       sodipodi:cx="-1137.1873"
       sodipodi:cy="967.55859"
       sodipodi:rx="179.31696"
       sodipodi:ry="163.42812"
       d="M -957.8703,967.55859 A 179.31696,163.42812 0 1 1 -1316.5042,967.55859 A 179.31696,163.42812 0 1 1 -957.8703,967.55859 z"
       transform="matrix(0.67655683,0,0,0.68726308,2138.781,-474.77483)"
       game_data="object=spinner" />
    <path
       game_data="object=spinner"
       transform="matrix(0.67655683,0,0,0.68726308,1480.5289,-488.39384)"
       d="M -957.8703,967.55859 A 179.31696,163.42812 0 1 1 -1316.5042,967.55859 A 179.31696,163.42812 0 1 1 -957.8703,967.55859 z"
       sodipodi:ry="163.42812"
       sodipodi:rx="179.31696"
       sodipodi:cy="967.55859"
       sodipodi:cx="-1137.1873"
       id="path3067"
       style="fill:none;stroke:#ff0000;stroke-width:2;stroke-linecap:butt;stroke-linejoin:miter;stroke-miterlimit:4;stroke-opacity:1;stroke-dasharray:none;stroke-dashoffset:0"
       sodipodi:type="arc" />
    <path
       game_data="object=spinner"
       transform="matrix(0.67655683,0,0,0.68726308,1807.3851,-479.3145)"
       d="M -957.8703,967.55859 A 179.31696,163.42812 0 1 1 -1316.5042,967.55859 A 179.31696,163.42812 0 1 1 -957.8703,967.55859 z"
       sodipodi:ry="163.42812"
       sodipodi:rx="179.31696"
       sodipodi:cy="967.55859"
       sodipodi:cx="-1137.1873"
       id="path3069"
       style="fill:none;stroke:#ff0000;stroke-width:2;stroke-linecap:butt;stroke-linejoin:miter;stroke-miterlimit:4;stroke-opacity:1;stroke-dasharray:none;stroke-dashoffset:0"
       sodipodi:type="arc" />
    <path
       game_data="object=flyingenemy,objectParams=patrolTime:2;patrolSpeed:2"
       transform="matrix(2.1533954,0,0,1.8662761,-129.2762,-1436.4813)"
       d="M 141.24138,472.67712 A 10.432602,12.037618 0 1 1 120.37617,472.67712 A 10.432602,12.037618 0 1 1 141.24138,472.67712 z"
       sodipodi:ry="12.037618"
       sodipodi:rx="10.432602"
       sodipodi:cy="472.67712"
       sodipodi:cx="130.80878"
       id="path3071"
       style="fill:none;stroke:#ff0000;stroke-width:2;stroke-linecap:butt;stroke-linejoin:miter;stroke-miterlimit:4;stroke-opacity:1;stroke-dasharray:none;stroke-dashoffset:0"
       sodipodi:type="arc" />
    <path
       game_data="object=flyingenemy,objectParams=patrolTime:2;patrolSpeed:2"
       transform="matrix(2.1533954,0,0,1.8662761,1268.9421,-1586.2904)"
       d="M 141.24138,472.67712 A 10.432602,12.037618 0 1 1 120.37617,472.67712 A 10.432602,12.037618 0 1 1 141.24138,472.67712 z"
       sodipodi:ry="12.037618"
       sodipodi:rx="10.432602"
       sodipodi:cy="472.67712"
       sodipodi:cx="130.80878"
       id="path3073"
       style="fill:none;stroke:#ff0000;stroke-width:2;stroke-linecap:butt;stroke-linejoin:miter;stroke-miterlimit:4;stroke-opacity:1;stroke-dasharray:none;stroke-dashoffset:0"
       sodipodi:type="arc" />
    <path
       game_data="object=stickable"
       transform="matrix(2.1045214,0,0,2.3796418,295.37568,-1071.2438)"
       d="M 264.82758,227.10971 A 33.70533,29.692789 0 1 1 197.41692,227.10971 A 33.70533,29.692789 0 1 1 264.82758,227.10971 z"
       sodipodi:ry="29.692789"
       sodipodi:rx="33.70533"
       sodipodi:cy="227.10971"
       sodipodi:cx="231.12225"
       id="path3075"
       style="fill:none;stroke:#00ff00;stroke-width:2;stroke-linecap:butt;stroke-linejoin:miter;stroke-miterlimit:4;stroke-opacity:1;stroke-dasharray:none;stroke-dashoffset:0;display:inline"
       sodipodi:type="arc" />
    <path
       sodipodi:type="arc"
       style="fill:none;stroke:#00ff00;stroke-width:2;stroke-linecap:butt;stroke-linejoin:miter;stroke-miterlimit:4;stroke-opacity:1;stroke-dasharray:none;stroke-dashoffset:0;display:inline"
       id="path3077"
       sodipodi:cx="231.12225"
       sodipodi:cy="227.10971"
       sodipodi:rx="33.70533"
       sodipodi:ry="29.692789"
       d="M 264.82758,227.10971 A 33.70533,29.692789 0 1 1 197.41692,227.10971 A 33.70533,29.692789 0 1 1 264.82758,227.10971 z"
       transform="matrix(1.1911229,0,0,1.3045891,608.62495,-923.55685)"
       game_data="object=stickable" />
    <path
       game_data="object=stickable"
       transform="matrix(1.1911229,0,0,1.3045891,411.14931,-741.97006)"
       d="M 264.82758,227.10971 A 33.70533,29.692789 0 1 1 197.41692,227.10971 A 33.70533,29.692789 0 1 1 264.82758,227.10971 z"
       sodipodi:ry="29.692789"
       sodipodi:rx="33.70533"
       sodipodi:cy="227.10971"
       sodipodi:cx="231.12225"
       id="path3079"
       style="fill:none;stroke:#00ff00;stroke-width:2;stroke-linecap:butt;stroke-linejoin:miter;stroke-miterlimit:4;stroke-opacity:1;stroke-dasharray:none;stroke-dashoffset:0;display:inline"
       sodipodi:type="arc" />
    <path
       sodipodi:type="arc"
       style="fill:none;stroke:#00ff00;stroke-width:2;stroke-linecap:butt;stroke-linejoin:miter;stroke-miterlimit:4;stroke-opacity:1;stroke-dasharray:none;stroke-dashoffset:0;display:inline"
       id="path3081"
       sodipodi:cx="231.12225"
       sodipodi:cy="227.10971"
       sodipodi:rx="33.70533"
       sodipodi:ry="29.692789"
       d="M 264.82758,227.10971 A 33.70533,29.692789 0 1 1 197.41692,227.10971 A 33.70533,29.692789 0 1 1 264.82758,227.10971 z"
       transform="matrix(1.1911229,0,0,1.3045891,356.67327,-662.52584)"
       game_data="object=stickable" />
    <path
       game_data="object=stickable"
       transform="matrix(1.1911229,0,0,1.3045891,309.00674,-576.27211)"
       d="M 264.82758,227.10971 A 33.70533,29.692789 0 1 1 197.41692,227.10971 A 33.70533,29.692789 0 1 1 264.82758,227.10971 z"
       sodipodi:ry="29.692789"
       sodipodi:rx="33.70533"
       sodipodi:cy="227.10971"
       sodipodi:cx="231.12225"
       id="path3083"
       style="fill:none;stroke:#00ff00;stroke-width:2;stroke-linecap:butt;stroke-linejoin:miter;stroke-miterlimit:4;stroke-opacity:1;stroke-dasharray:none;stroke-dashoffset:0;display:inline"
       sodipodi:type="arc" />
    <path
       sodipodi:type="arc"
       style="fill:none;stroke:#00ff00;stroke-width:2;stroke-linecap:butt;stroke-linejoin:miter;stroke-miterlimit:4;stroke-opacity:1;stroke-dasharray:none;stroke-dashoffset:0;display:inline"
       id="path3085"
       sodipodi:cx="231.12225"
       sodipodi:cy="227.10971"
       sodipodi:rx="33.70533"
       sodipodi:ry="29.692789"
       d="M 264.82758,227.10971 A 33.70533,29.692789 0 1 1 197.41692,227.10971 A 33.70533,29.692789 0 1 1 264.82758,227.10971 z"
       transform="matrix(1.1911229,0,0,1.3045891,254.5307,-496.82789)"
       game_data="object=stickable" />
    <path
       game_data="object=stickable"
       transform="matrix(1.1911229,0,0,1.3045891,206.86417,-401.49482)"
       d="M 264.82758,227.10971 A 33.70533,29.692789 0 1 1 197.41692,227.10971 A 33.70533,29.692789 0 1 1 264.82758,227.10971 z"
       sodipodi:ry="29.692789"
       sodipodi:rx="33.70533"
       sodipodi:cy="227.10971"
       sodipodi:cx="231.12225"
       id="path3087"
       style="fill:none;stroke:#00ff00;stroke-width:2;stroke-linecap:butt;stroke-linejoin:miter;stroke-miterlimit:4;stroke-opacity:1;stroke-dasharray:none;stroke-dashoffset:0;display:inline"
       sodipodi:type="arc" />
    <path
       sodipodi:type="arc"
       style="fill:none;stroke:#00ff00;stroke-width:2;stroke-linecap:butt;stroke-linejoin:miter;stroke-miterlimit:4;stroke-opacity:1;stroke-dasharray:none;stroke-dashoffset:0;display:inline"
       id="path3089"
       sodipodi:cx="231.12225"
       sodipodi:cy="227.10971"
       sodipodi:rx="33.70533"
       sodipodi:ry="29.692789"
       d="M 264.82758,227.10971 A 33.70533,29.692789 0 1 1 197.41692,227.10971 A 33.70533,29.692789 0 1 1 264.82758,227.10971 z"
       transform="matrix(2.1397988,0,0,2.2285766,-27.149875,-474.01634)"
       game_data="object=stickable" />
    <path
       sodipodi:type="arc"
       style="fill:none;stroke:#00ff00;stroke-width:2;stroke-linecap:butt;stroke-linejoin:miter;stroke-miterlimit:4;stroke-opacity:1;stroke-dasharray:none;stroke-dashoffset:0;display:inline"
       id="path3091"
       sodipodi:cx="231.12225"
       sodipodi:cy="227.10971"
       sodipodi:rx="33.70533"
       sodipodi:ry="29.692789"
       d="M 264.82758,227.10971 A 33.70533,29.692789 0 1 1 197.41692,227.10971 A 33.70533,29.692789 0 1 1 264.82758,227.10971 z"
       transform="matrix(1.1911229,0,0,1.3045891,-190.35693,-299.35225)"
       game_data="object=stickable" />
    <path
       game_data="object=stickable"
       transform="matrix(0.79944581,0,0,0.85998265,-108.91098,-118.93359)"
       d="M 264.82758,227.10971 A 33.70533,29.692789 0 1 1 197.41692,227.10971 A 33.70533,29.692789 0 1 1 264.82758,227.10971 z"
       sodipodi:ry="29.692789"
       sodipodi:rx="33.70533"
       sodipodi:cy="227.10971"
       sodipodi:cx="231.12225"
       id="path3093"
       style="fill:none;stroke:#00ff00;stroke-width:2;stroke-linecap:butt;stroke-linejoin:miter;stroke-miterlimit:4;stroke-opacity:1;stroke-dasharray:none;stroke-dashoffset:0;display:inline"
       sodipodi:type="arc" />
    <path
       game_data="object=stickable"
       transform="matrix(2.1397988,0,0,2.2285766,-56.657729,-333.28658)"
       d="M 264.82758,227.10971 A 33.70533,29.692789 0 1 1 197.41692,227.10971 A 33.70533,29.692789 0 1 1 264.82758,227.10971 z"
       sodipodi:ry="29.692789"
       sodipodi:rx="33.70533"
       sodipodi:cy="227.10971"
       sodipodi:cx="231.12225"
       id="path3095"
       style="fill:none;stroke:#00ff00;stroke-width:2;stroke-linecap:butt;stroke-linejoin:miter;stroke-miterlimit:4;stroke-opacity:1;stroke-dasharray:none;stroke-dashoffset:0;display:inline"
       sodipodi:type="arc" />
    <path
       sodipodi:type="arc"
       style="fill:none;stroke:#00ff00;stroke-width:2;stroke-linecap:butt;stroke-linejoin:miter;stroke-miterlimit:4;stroke-opacity:1;stroke-dasharray:none;stroke-dashoffset:0;display:inline"
       id="path3097"
       sodipodi:cx="231.12225"
       sodipodi:cy="227.10971"
       sodipodi:rx="33.70533"
       sodipodi:ry="29.692789"
       d="M 264.82758,227.10971 A 33.70533,29.692789 0 1 1 197.41692,227.10971 A 33.70533,29.692789 0 1 1 264.82758,227.10971 z"
       transform="matrix(2.1397988,0,0,2.2285766,-104.32426,-192.55682)"
       game_data="object=stickable" />
    <path
       game_data="object=stickable"
       transform="matrix(2.1397988,0,0,2.2285766,-133.83211,-56.366727)"
       d="M 264.82758,227.10971 A 33.70533,29.692789 0 1 1 197.41692,227.10971 A 33.70533,29.692789 0 1 1 264.82758,227.10971 z"
       sodipodi:ry="29.692789"
       sodipodi:rx="33.70533"
       sodipodi:cy="227.10971"
       sodipodi:cx="231.12225"
       id="path3099"
       style="fill:none;stroke:#00ff00;stroke-width:2;stroke-linecap:butt;stroke-linejoin:miter;stroke-miterlimit:4;stroke-opacity:1;stroke-dasharray:none;stroke-dashoffset:0;display:inline"
       sodipodi:type="arc" />
    <path
       sodipodi:type="arc"
       style="fill:none;stroke:#00ff00;stroke-width:2;stroke-linecap:butt;stroke-linejoin:miter;stroke-miterlimit:4;stroke-opacity:1;stroke-dasharray:none;stroke-dashoffset:0;display:inline"
       id="path3101"
       sodipodi:cx="231.12225"
       sodipodi:cy="227.10971"
       sodipodi:rx="33.70533"
       sodipodi:ry="29.692789"
       d="M 264.82758,227.10971 A 33.70533,29.692789 0 1 1 197.41692,227.10971 A 33.70533,29.692789 0 1 1 264.82758,227.10971 z"
       transform="matrix(2.1397988,0,0,2.2285766,-190.57798,91.172541)"
       game_data="object=stickable" />
    <path
       game_data="object=stickable"
       transform="matrix(0.96371921,0,0,0.97001119,265.09681,653.92483)"
       d="M 264.82758,227.10971 A 33.70533,29.692789 0 1 1 197.41692,227.10971 A 33.70533,29.692789 0 1 1 264.82758,227.10971 z"
       sodipodi:ry="29.692789"
       sodipodi:rx="33.70533"
       sodipodi:cy="227.10971"
       sodipodi:cx="231.12225"
       id="path3103"
       style="fill:none;stroke:#00ff00;stroke-width:2;stroke-linecap:butt;stroke-linejoin:miter;stroke-miterlimit:4;stroke-opacity:1;stroke-dasharray:none;stroke-dashoffset:0;display:inline"
       sodipodi:type="arc" />
    <path
       sodipodi:type="arc"
       style="fill:none;stroke:#00ff00;stroke-width:2;stroke-linecap:butt;stroke-linejoin:miter;stroke-miterlimit:4;stroke-opacity:1;stroke-dasharray:none;stroke-dashoffset:0;display:inline"
       id="path3105"
       sodipodi:cx="231.12225"
       sodipodi:cy="227.10971"
       sodipodi:rx="33.70533"
       sodipodi:ry="29.692789"
       d="M 264.82758,227.10971 A 33.70533,29.692789 0 1 1 197.41692,227.10971 A 33.70533,29.692789 0 1 1 264.82758,227.10971 z"
       transform="matrix(0.96371921,0,0,0.97001119,337.73153,674.35334)"
       game_data="object=stickable" />
    <path
       sodipodi:type="arc"
       style="fill:none;stroke:#00ff00;stroke-width:2;stroke-linecap:butt;stroke-linejoin:miter;stroke-miterlimit:4;stroke-opacity:1;stroke-dasharray:none;stroke-dashoffset:0;display:inline"
       id="path3107"
       sodipodi:cx="231.12225"
       sodipodi:cy="227.10971"
       sodipodi:rx="33.70533"
       sodipodi:ry="29.692789"
       d="M 264.82758,227.10971 A 33.70533,29.692789 0 1 1 197.41692,227.10971 A 33.70533,29.692789 0 1 1 264.82758,227.10971 z"
       transform="matrix(0.96371921,0,0,0.97001119,1311.4907,653.92483)"
       game_data="object=stickable" />
    <path
       game_data="object=stickable"
       transform="matrix(0.96371921,0,0,0.97001119,1384.1254,674.35334)"
       d="M 264.82758,227.10971 A 33.70533,29.692789 0 1 1 197.41692,227.10971 A 33.70533,29.692789 0 1 1 264.82758,227.10971 z"
       sodipodi:ry="29.692789"
       sodipodi:rx="33.70533"
       sodipodi:cy="227.10971"
       sodipodi:cx="231.12225"
       id="path3109"
       style="fill:none;stroke:#00ff00;stroke-width:2;stroke-linecap:butt;stroke-linejoin:miter;stroke-miterlimit:4;stroke-opacity:1;stroke-dasharray:none;stroke-dashoffset:0;display:inline"
       sodipodi:type="arc" />
    <path
       sodipodi:type="arc"
       style="fill:none;stroke:#00ff00;stroke-width:2;stroke-linecap:butt;stroke-linejoin:miter;stroke-miterlimit:4;stroke-opacity:1;stroke-dasharray:none;stroke-dashoffset:0;display:inline"
       id="path3111"
       sodipodi:cx="231.12225"
       sodipodi:cy="227.10971"
       sodipodi:rx="33.70533"
       sodipodi:ry="29.692789"
       d="M 264.82758,227.10971 A 33.70533,29.692789 0 1 1 197.41692,227.10971 A 33.70533,29.692789 0 1 1 264.82758,227.10971 z"
       transform="matrix(0.96371921,0,0,0.97001119,29.033982,465.52853)"
       game_data="object=stickable" />
    <path
       game_data="object=stickable"
       transform="matrix(1.1911229,0,0,1.3045891,1718.5742,-583.08161)"
       d="M 264.82758,227.10971 A 33.70533,29.692789 0 1 1 197.41692,227.10971 A 33.70533,29.692789 0 1 1 264.82758,227.10971 z"
       sodipodi:ry="29.692789"
       sodipodi:rx="33.70533"
       sodipodi:cy="227.10971"
       sodipodi:cx="231.12225"
       id="path3113"
       style="fill:none;stroke:#00ff00;stroke-width:2;stroke-linecap:butt;stroke-linejoin:miter;stroke-miterlimit:4;stroke-opacity:1;stroke-dasharray:none;stroke-dashoffset:0;display:inline"
       sodipodi:type="arc" />
    <path
       sodipodi:type="arc"
       style="fill:none;stroke:#00ff00;stroke-width:2;stroke-linecap:butt;stroke-linejoin:miter;stroke-miterlimit:4;stroke-opacity:1;stroke-dasharray:none;stroke-dashoffset:0;display:inline"
       id="path3115"
       sodipodi:cx="231.12225"
       sodipodi:cy="227.10971"
       sodipodi:rx="33.70533"
       sodipodi:ry="29.692789"
       d="M 264.82758,227.10971 A 33.70533,29.692789 0 1 1 197.41692,227.10971 A 33.70533,29.692789 0 1 1 264.82758,227.10971 z"
       transform="matrix(0.79944581,0,0,0.85998265,1800.0202,-402.66295)"
       game_data="object=stickable" />
    <path
       sodipodi:type="arc"
       style="fill:none;stroke:#00ff00;stroke-width:2;stroke-linecap:butt;stroke-linejoin:miter;stroke-miterlimit:4;stroke-opacity:1;stroke-dasharray:none;stroke-dashoffset:0;display:inline"
       id="path3117"
       sodipodi:cx="231.12225"
       sodipodi:cy="227.10971"
       sodipodi:rx="33.70533"
       sodipodi:ry="29.692789"
       d="M 264.82758,227.10971 A 33.70533,29.692789 0 1 1 197.41692,227.10971 A 33.70533,29.692789 0 1 1 264.82758,227.10971 z"
       transform="matrix(1.1911229,0,0,1.3045891,1723.1139,75.170507)"
       game_data="object=stickable" />
    <path
       game_data="object=stickable"
       transform="matrix(0.79944581,0,0,0.85998265,1804.5599,255.58917)"
       d="M 264.82758,227.10971 A 33.70533,29.692789 0 1 1 197.41692,227.10971 A 33.70533,29.692789 0 1 1 264.82758,227.10971 z"
       sodipodi:ry="29.692789"
       sodipodi:rx="33.70533"
       sodipodi:cy="227.10971"
       sodipodi:cx="231.12225"
       id="path3119"
       style="fill:none;stroke:#00ff00;stroke-width:2;stroke-linecap:butt;stroke-linejoin:miter;stroke-miterlimit:4;stroke-opacity:1;stroke-dasharray:none;stroke-dashoffset:0;display:inline"
       sodipodi:type="arc" />
    <path
       game_data="object=stickable"
       transform="matrix(2.1397988,0,0,2.2285766,524.42,168.34693)"
       d="M 264.82758,227.10971 A 33.70533,29.692789 0 1 1 197.41692,227.10971 A 33.70533,29.692789 0 1 1 264.82758,227.10971 z"
       sodipodi:ry="29.692789"
       sodipodi:rx="33.70533"
       sodipodi:cy="227.10971"
       sodipodi:cx="231.12225"
       id="path3121"
       style="fill:none;stroke:#00ff00;stroke-width:2;stroke-linecap:butt;stroke-linejoin:miter;stroke-miterlimit:4;stroke-opacity:1;stroke-dasharray:none;stroke-dashoffset:0;display:inline"
       sodipodi:type="arc" />
    <path
       sodipodi:type="arc"
       style="fill:none;stroke:#00ff00;stroke-width:2;stroke-linecap:butt;stroke-linejoin:miter;stroke-miterlimit:4;stroke-opacity:1;stroke-dasharray:none;stroke-dashoffset:0;display:inline"
       id="path3123"
       sodipodi:cx="231.12225"
       sodipodi:cy="227.10971"
       sodipodi:rx="33.70533"
       sodipodi:ry="29.692789"
       d="M 264.82758,227.10971 A 33.70533,29.692789 0 1 1 197.41692,227.10971 A 33.70533,29.692789 0 1 1 264.82758,227.10971 z"
       transform="matrix(0.79944581,0,0,0.85998265,930.67347,443.98547)"
       game_data="object=stickable" />
    <path
       game_data="object=stickable"
       transform="matrix(1.1595503,0,0,1.1923059,721.46948,519.45564)"
       d="M 264.82758,227.10971 A 33.70533,29.692789 0 1 1 197.41692,227.10971 A 33.70533,29.692789 0 1 1 264.82758,227.10971 z"
       sodipodi:ry="29.692789"
       sodipodi:rx="33.70533"
       sodipodi:cy="227.10971"
       sodipodi:cx="231.12225"
       id="path3125"
       style="fill:none;stroke:#00ff00;stroke-width:2;stroke-linecap:butt;stroke-linejoin:miter;stroke-miterlimit:4;stroke-opacity:1;stroke-dasharray:none;stroke-dashoffset:0;display:inline"
       sodipodi:type="arc" />
    <path
       sodipodi:type="arc"
       style="fill:none;stroke:#00ff00;stroke-width:2;stroke-linecap:butt;stroke-linejoin:miter;stroke-miterlimit:4;stroke-opacity:1;stroke-dasharray:none;stroke-dashoffset:0;display:inline"
       id="path3127"
       sodipodi:cx="231.12225"
       sodipodi:cy="227.10971"
       sodipodi:rx="33.70533"
       sodipodi:ry="29.692789"
       d="M 264.82758,227.10971 A 33.70533,29.692789 0 1 1 197.41692,227.10971 A 33.70533,29.692789 0 1 1 264.82758,227.10971 z"
       transform="matrix(-2.1045214,0,0,2.3796418,1785.5888,-1068.0338)"
       game_data="object=stickable" />
    <path
       game_data="object=stickable"
       transform="matrix(-1.1911229,0,0,1.3045891,1472.3395,-920.34682)"
       d="M 264.82758,227.10971 A 33.70533,29.692789 0 1 1 197.41692,227.10971 A 33.70533,29.692789 0 1 1 264.82758,227.10971 z"
       sodipodi:ry="29.692789"
       sodipodi:rx="33.70533"
       sodipodi:cy="227.10971"
       sodipodi:cx="231.12225"
       id="path3129"
       style="fill:none;stroke:#00ff00;stroke-width:2;stroke-linecap:butt;stroke-linejoin:miter;stroke-miterlimit:4;stroke-opacity:1;stroke-dasharray:none;stroke-dashoffset:0;display:inline"
       sodipodi:type="arc" />
    <path
       sodipodi:type="arc"
       style="fill:none;stroke:#00ff00;stroke-width:2;stroke-linecap:butt;stroke-linejoin:miter;stroke-miterlimit:4;stroke-opacity:1;stroke-dasharray:none;stroke-dashoffset:0;display:inline"
       id="path3131"
       sodipodi:cx="231.12225"
       sodipodi:cy="227.10971"
       sodipodi:rx="33.70533"
       sodipodi:ry="29.692789"
       d="M 264.82758,227.10971 A 33.70533,29.692789 0 1 1 197.41692,227.10971 A 33.70533,29.692789 0 1 1 264.82758,227.10971 z"
       transform="matrix(-1.1911229,0,0,1.3045891,1669.8152,-738.76003)"
       game_data="object=stickable" />
    <path
       game_data="object=stickable"
       transform="matrix(-1.1911229,0,0,1.3045891,1724.2912,-659.31581)"
       d="M 264.82758,227.10971 A 33.70533,29.692789 0 1 1 197.41692,227.10971 A 33.70533,29.692789 0 1 1 264.82758,227.10971 z"
       sodipodi:ry="29.692789"
       sodipodi:rx="33.70533"
       sodipodi:cy="227.10971"
       sodipodi:cx="231.12225"
       id="path3133"
       style="fill:none;stroke:#00ff00;stroke-width:2;stroke-linecap:butt;stroke-linejoin:miter;stroke-miterlimit:4;stroke-opacity:1;stroke-dasharray:none;stroke-dashoffset:0;display:inline"
       sodipodi:type="arc" />
    <path
       sodipodi:type="arc"
       style="fill:none;stroke:#00ff00;stroke-width:2;stroke-linecap:butt;stroke-linejoin:miter;stroke-miterlimit:4;stroke-opacity:1;stroke-dasharray:none;stroke-dashoffset:0;display:inline"
       id="path3135"
       sodipodi:cx="231.12225"
       sodipodi:cy="227.10971"
       sodipodi:rx="33.70533"
       sodipodi:ry="29.692789"
       d="M 264.82758,227.10971 A 33.70533,29.692789 0 1 1 197.41692,227.10971 A 33.70533,29.692789 0 1 1 264.82758,227.10971 z"
       transform="matrix(-1.1911229,0,0,1.3045891,1771.9577,-573.06208)"
       game_data="object=stickable" />
    <path
       game_data="object=stickable"
       transform="matrix(-1.1911229,0,0,1.3045891,1826.4338,-493.61786)"
       d="M 264.82758,227.10971 A 33.70533,29.692789 0 1 1 197.41692,227.10971 A 33.70533,29.692789 0 1 1 264.82758,227.10971 z"
       sodipodi:ry="29.692789"
       sodipodi:rx="33.70533"
       sodipodi:cy="227.10971"
       sodipodi:cx="231.12225"
       id="path3137"
       style="fill:none;stroke:#00ff00;stroke-width:2;stroke-linecap:butt;stroke-linejoin:miter;stroke-miterlimit:4;stroke-opacity:1;stroke-dasharray:none;stroke-dashoffset:0;display:inline"
       sodipodi:type="arc" />
    <path
       sodipodi:type="arc"
       style="fill:none;stroke:#00ff00;stroke-width:2;stroke-linecap:butt;stroke-linejoin:miter;stroke-miterlimit:4;stroke-opacity:1;stroke-dasharray:none;stroke-dashoffset:0;display:inline"
       id="path3139"
       sodipodi:cx="231.12225"
       sodipodi:cy="227.10971"
       sodipodi:rx="33.70533"
       sodipodi:ry="29.692789"
       d="M 264.82758,227.10971 A 33.70533,29.692789 0 1 1 197.41692,227.10971 A 33.70533,29.692789 0 1 1 264.82758,227.10971 z"
       transform="matrix(-1.1911229,0,0,1.3045891,1874.1003,-398.28479)"
       game_data="object=stickable" />
    <path
       game_data="object=stickable"
       transform="matrix(-2.1397988,0,0,2.2285766,2108.1143,-470.80631)"
       d="M 264.82758,227.10971 A 33.70533,29.692789 0 1 1 197.41692,227.10971 A 33.70533,29.692789 0 1 1 264.82758,227.10971 z"
       sodipodi:ry="29.692789"
       sodipodi:rx="33.70533"
       sodipodi:cy="227.10971"
       sodipodi:cx="231.12225"
       id="path3141"
       style="fill:none;stroke:#00ff00;stroke-width:2;stroke-linecap:butt;stroke-linejoin:miter;stroke-miterlimit:4;stroke-opacity:1;stroke-dasharray:none;stroke-dashoffset:0;display:inline"
       sodipodi:type="arc" />
    <path
       sodipodi:type="arc"
       style="fill:none;stroke:#00ff00;stroke-width:2;stroke-linecap:butt;stroke-linejoin:miter;stroke-miterlimit:4;stroke-opacity:1;stroke-dasharray:none;stroke-dashoffset:0;display:inline"
       id="path3143"
       sodipodi:cx="231.12225"
       sodipodi:cy="227.10971"
       sodipodi:rx="33.70533"
       sodipodi:ry="29.692789"
       d="M 264.82758,227.10971 A 33.70533,29.692789 0 1 1 197.41692,227.10971 A 33.70533,29.692789 0 1 1 264.82758,227.10971 z"
       transform="matrix(-2.1397988,0,0,2.2285766,2137.6222,-330.07655)"
       game_data="object=stickable" />
    <path
       game_data="object=stickable"
       transform="matrix(-2.1397988,0,0,2.2285766,2185.2887,-189.34679)"
       d="M 264.82758,227.10971 A 33.70533,29.692789 0 1 1 197.41692,227.10971 A 33.70533,29.692789 0 1 1 264.82758,227.10971 z"
       sodipodi:ry="29.692789"
       sodipodi:rx="33.70533"
       sodipodi:cy="227.10971"
       sodipodi:cx="231.12225"
       id="path3145"
       style="fill:none;stroke:#00ff00;stroke-width:2;stroke-linecap:butt;stroke-linejoin:miter;stroke-miterlimit:4;stroke-opacity:1;stroke-dasharray:none;stroke-dashoffset:0;display:inline"
       sodipodi:type="arc" />
    <path
       sodipodi:type="arc"
       style="fill:none;stroke:#00ff00;stroke-width:2;stroke-linecap:butt;stroke-linejoin:miter;stroke-miterlimit:4;stroke-opacity:1;stroke-dasharray:none;stroke-dashoffset:0;display:inline"
       id="path3147"
       sodipodi:cx="231.12225"
       sodipodi:cy="227.10971"
       sodipodi:rx="33.70533"
       sodipodi:ry="29.692789"
       d="M 264.82758,227.10971 A 33.70533,29.692789 0 1 1 197.41692,227.10971 A 33.70533,29.692789 0 1 1 264.82758,227.10971 z"
       transform="matrix(-2.1397988,0,0,2.2285766,2214.7966,-53.156696)"
       game_data="object=stickable" />
    <path
       game_data="object=stickable"
       transform="matrix(-2.1397988,0,0,2.2285766,2271.5425,94.382572)"
       d="M 264.82758,227.10971 A 33.70533,29.692789 0 1 1 197.41692,227.10971 A 33.70533,29.692789 0 1 1 264.82758,227.10971 z"
       sodipodi:ry="29.692789"
       sodipodi:rx="33.70533"
       sodipodi:cy="227.10971"
       sodipodi:cx="231.12225"
       id="path3149"
       style="fill:none;stroke:#00ff00;stroke-width:2;stroke-linecap:butt;stroke-linejoin:miter;stroke-miterlimit:4;stroke-opacity:1;stroke-dasharray:none;stroke-dashoffset:0;display:inline"
       sodipodi:type="arc" />
    <path
       game_data="object=stickable"
       transform="matrix(-0.96371921,0,0,0.97001119,2051.9305,468.73856)"
       d="M 264.82758,227.10971 A 33.70533,29.692789 0 1 1 197.41692,227.10971 A 33.70533,29.692789 0 1 1 264.82758,227.10971 z"
       sodipodi:ry="29.692789"
       sodipodi:rx="33.70533"
       sodipodi:cy="227.10971"
       sodipodi:cx="231.12225"
       id="path3151"
       style="fill:none;stroke:#00ff00;stroke-width:2;stroke-linecap:butt;stroke-linejoin:miter;stroke-miterlimit:4;stroke-opacity:1;stroke-dasharray:none;stroke-dashoffset:0;display:inline"
       sodipodi:type="arc" />
  </g>
</svg>
