<?xml version="1.0" encoding="UTF-8" standalone="no"?>
<!-- Created with Inkscape (http://www.inkscape.org/) -->

<svg
   xmlns:dc="http://purl.org/dc/elements/1.1/"
   xmlns:cc="http://creativecommons.org/ns#"
   xmlns:rdf="http://www.w3.org/1999/02/22-rdf-syntax-ns#"
   xmlns:svg="http://www.w3.org/2000/svg"
   xmlns="http://www.w3.org/2000/svg"
   xmlns:xlink="http://www.w3.org/1999/xlink"
   xmlns:sodipodi="http://sodipodi.sourceforge.net/DTD/sodipodi-0.dtd"
   xmlns:inkscape="http://www.inkscape.org/namespaces/inkscape"
   width="2048"
   height="2048"
   id="svg2"
   version="1.1"
   inkscape:version="0.48.0 r9654"
   sodipodi:docname="level19-HD.svg"
   inkscape:export-filename="/Users/pawel/projects/iphone/StickyET_LSVG32/Resources/backgrounds/level14.png"
   inkscape:export-xdpi="90"
   inkscape:export-ydpi="90"
   game_config="gravity_x=0.0,gravity_y=-1.0">
  <defs
     id="defs4">
    <inkscape:path-effect
       effect="spiro"
       id="path-effect3888"
       is_visible="true" />
  </defs>
  <sodipodi:namedview
     id="base"
     pagecolor="#ffffff"
     bordercolor="#666666"
     borderopacity="1.0"
     inkscape:pageopacity="0.0"
     inkscape:pageshadow="2"
     inkscape:zoom="0.22028034"
     inkscape:cx="2096.6041"
     inkscape:cy="1177.3001"
     inkscape:document-units="px"
     inkscape:current-layer="layer1"
     showgrid="false"
     inkscape:window-width="1436"
     inkscape:window-height="856"
     inkscape:window-x="0"
     inkscape:window-y="0"
     inkscape:window-maximized="1"
     showguides="true"
     inkscape:guide-bbox="true" />
  <metadata
     id="metadata7">
    <rdf:RDF>
      <cc:Work
         rdf:about="">
        <dc:format>image/svg+xml</dc:format>
        <dc:type
           rdf:resource="http://purl.org/dc/dcmitype/StillImage" />
        <dc:title></dc:title>
      </cc:Work>
    </rdf:RDF>
  </metadata>
  <g
     inkscape:label="graphics"
     inkscape:groupmode="layer"
     id="layer1"
     transform="translate(0,995.63782)"
     style="display:inline"
     sodipodi:insensitive="true">
    <image
       y="-995.63782"
       x="0"
       id="image3354"
       xlink:href="file:///Users/pawel/Downloads/levels-tiles-hd/green-level/green-planet-2048x2048-bg.png"
       height="2048"
       width="2048"
       inkscape:export-filename="/Users/pawel/projects/iphone/StickyET_LSVG32/Resources/backgrounds-hd/level19-hd.png"
       inkscape:export-xdpi="90"
       inkscape:export-ydpi="90" />
    <image
       y="-896.77032"
       x="-1539.4703"
       id="image3086"
       xlink:href="file:///Users/pawel/Downloads/reksztaltyliscizopisemkolorow/1.png"
       height="242.70789"
       width="214.40166"
       transform="matrix(-0.95961892,0.28130328,-0.31392534,-0.94944767,0,0)" />
    <image
       y="-60.451363"
       x="1688.2092"
       id="image3148"
       xlink:href="file:///Users/pawel/Downloads/reksztaltyliscizopisemkolorow/2.png"
       height="223.05331"
       width="234.92789"
       transform="matrix(0.97605248,0.2175352,0.2175352,-0.97605248,0,0)" />
    <image
       transform="matrix(-0.95961892,0.28130328,-0.31392534,-0.94944767,0,0)"
       width="214.40166"
       height="242.70789"
       xlink:href="file:///Users/pawel/Downloads/reksztaltyliscizopisemkolorow/1.png"
       id="image3151"
       x="-1039.6399"
       y="-451.15683" />
    <image
       y="176.68037"
       x="999.54132"
       id="image3153"
       xlink:href="file:///Users/pawel/Downloads/reksztaltyliscizopisemkolorow/1.png"
       height="242.70789"
       width="214.40166"
       transform="matrix(0.95961892,0.28130328,0.31392534,-0.94944767,0,0)" />
    <image
       transform="matrix(0.95961892,0.28130328,0.31392534,-0.94944767,0,0)"
       width="214.40166"
       height="242.70789"
       xlink:href="file:///Users/pawel/Downloads/reksztaltyliscizopisemkolorow/1.png"
       id="image3155"
       x="497.66776"
       y="-692.15674" />
    <image
       transform="matrix(-0.97605248,0.2175352,-0.2175352,-0.97605248,0,0)"
       width="234.92789"
       height="223.05331"
       xlink:href="file:///Users/pawel/Downloads/reksztaltyliscizopisemkolorow/2.png"
       id="image3157"
       x="-202.24417"
       y="-859.99213" />
    <image
       y="-103.4369"
       x="-1157.6316"
       id="image3159"
       xlink:href="file:///Users/pawel/Downloads/reksztaltyliscizopisemkolorow/2.png"
       height="223.05331"
       width="234.92789"
       transform="matrix(-0.76049405,0.6493449,-0.6493449,-0.76049405,0,0)" />
    <image
       transform="matrix(0.71236413,0.70181005,0.59485183,-0.80383537,0,0)"
       width="217.3654"
       height="211.02669"
       xlink:href="file:///Users/pawel/Downloads/reksztaltyliscizopisemkolorow/2.png"
       id="image3161"
       x="255.60089"
       y="1116.9191" />
    <image
       y="1020.7109"
       x="179.86749"
       id="image3163"
       xlink:href="file:///Users/pawel/Downloads/reksztaltyliscizopisemkolorow/2.png"
       height="139.00334"
       width="146.71884"
       transform="matrix(0.76487615,0.64417736,0.65449367,-0.75606748,0,0)" />
    <image
       style="display:inline"
       y="272.51154"
       x="1110.2115"
       id="image3089"
       xlink:href="file:///Users/pawel/Downloads/levels-tiles-hd/green-level/drop.png"
       height="52"
       width="106"
       transform="matrix(0.63170953,-0.77520518,0.77520518,0.63170953,0,0)" />
  </g>
  <g
     inkscape:groupmode="layer"
     id="layer2"
     inkscape:label="physics:static"
     style="display:inline"
     transform="translate(0,1024)"
     sodipodi:insensitive="true">
    <path
       style="fill:none;stroke:#00ff00;stroke-width:7.65854406px;stroke-linecap:butt;stroke-linejoin:miter;stroke-opacity:1"
       d="M 92.034352,-980.17079 L 2004.1707,-980.17079 L 2004.1707,1180.1707 L 43.829272,1180.1707 L 43.829272,-980.17079 z"
       id="path3735"
       inkscape:connector-curvature="0" />
    <rect
       style="color:#000000;fill:none;stroke:#00ff00;stroke-width:1.13587773;stroke-linecap:butt;stroke-linejoin:miter;stroke-miterlimit:4;stroke-opacity:1;stroke-dasharray:none;stroke-dashoffset:0;marker:none;visibility:visible;display:inline;overflow:visible;enable-background:accumulate"
       id="rect3885"
       width="2006.8643"
       height="0.86412221"
       x="27.341949"
       y="1142.5675"
       game_data="object=worldboundary" />
    <path
       sodipodi:type="arc"
       style="fill:none;stroke:#ff0000;stroke-width:2;stroke-linecap:butt;stroke-linejoin:miter;stroke-miterlimit:4;stroke-opacity:1;stroke-dasharray:none;stroke-dashoffset:0"
       id="path3174"
       sodipodi:cx="546.43311"
       sodipodi:cy="230.31721"
       sodipodi:rx="18.063904"
       sodipodi:ry="14.676922"
       d="M 564.49701,230.31721 A 18.063904,14.676922 0 1 1 528.3692,230.31721 A 18.063904,14.676922 0 1 1 564.49701,230.31721 z"
       game_data="object=stickyhero"
       transform="matrix(2,0,0,2.4734546,-851.3628,7.86706)" />
    <path
       sodipodi:type="arc"
       style="fill:none;stroke:#ff0000;stroke-width:2;stroke-linecap:butt;stroke-linejoin:miter;stroke-miterlimit:4;stroke-opacity:1;stroke-dasharray:none;stroke-dashoffset:0"
       id="path3944"
       sodipodi:cx="545.86859"
       sodipodi:cy="576.35388"
       sodipodi:rx="16.370413"
       sodipodi:ry="14.112425"
       d="M 562.239,576.35388 A 16.370413,14.112425 0 1 1 529.49818,576.35388 A 16.370413,14.112425 0 1 1 562.239,576.35388 z"
       game_data="object=portal"
       transform="matrix(2,0,0,2,548.1922,-1550.2191)" />
    <path
       sodipodi:type="arc"
       style="fill:none;stroke:#ff0000;stroke-width:2;stroke-linecap:butt;stroke-linejoin:miter;stroke-miterlimit:4;stroke-opacity:1;stroke-dasharray:none;stroke-dashoffset:0"
       id="path3948"
       sodipodi:cx="59.836681"
       sodipodi:cy="137.73972"
       sodipodi:rx="11.28994"
       sodipodi:ry="10.160946"
       d="M 71.126621,137.73972 A 11.28994,10.160946 0 1 1 48.546741,137.73972 A 11.28994,10.160946 0 1 1 71.126621,137.73972 z"
       game_data="object=star"
       transform="matrix(2,0,0,2,1588.3048,-34.6482)" />
    <path
       sodipodi:type="arc"
       style="fill:none;stroke:#ff0000;stroke-width:2;stroke-linecap:butt;stroke-linejoin:miter;stroke-miterlimit:4;stroke-opacity:1;stroke-dasharray:none;stroke-dashoffset:0"
       id="path3950"
       sodipodi:cx="972.62836"
       sodipodi:cy="165.40007"
       sodipodi:rx="9.5964489"
       sodipodi:ry="9.5964489"
       d="M 982.22481,165.40007 A 9.5964489,9.5964489 0 1 1 963.03191,165.40007 A 9.5964489,9.5964489 0 1 1 982.22481,165.40007 z"
       game_data="object=star"
       transform="matrix(2.4512,0,0,2.1176574,-1327.201,-411.08872)" />
    <path
       sodipodi:type="arc"
       style="fill:none;stroke:#ff0000;stroke-width:2;stroke-linecap:butt;stroke-linejoin:miter;stroke-miterlimit:4;stroke-opacity:1;stroke-dasharray:none;stroke-dashoffset:0"
       id="path3150"
       sodipodi:cx="113.36134"
       sodipodi:cy="457.1933"
       sodipodi:rx="9.5798321"
       sodipodi:ry="11.176471"
       d="M 122.94118,457.1933 A 9.5798321,11.176471 0 1 1 103.78151,457.1933 A 9.5798321,11.176471 0 1 1 122.94118,457.1933 z"
       game_data="object=star"
       transform="matrix(2.7875642,0,0,2.0657836,554.36734,-1716.019)" />
    <path
       game_data="object=box"
       d="M 112.35683,267.01004 A 10.214257,10.214257 0 1 1 91.928313,267.01004 A 10.214257,10.214257 0 1 1 112.35683,267.01004 z"
       sodipodi:ry="10.214257"
       sodipodi:rx="10.214257"
       sodipodi:cy="267.01004"
       sodipodi:cx="102.14257"
       id="path5821"
       style="fill:none;stroke:#ff0000;stroke-width:2;stroke-linecap:butt;stroke-linejoin:miter;stroke-miterlimit:4;stroke-opacity:1;stroke-dasharray:none;stroke-dashoffset:0"
       sodipodi:type="arc"
       transform="matrix(2,0,0,2,949.2338,-635.8538)" />
    <path
       transform="matrix(2,0,0,2,651.27932,-1369.9832)"
       sodipodi:type="arc"
       style="fill:none;stroke:#ff0000;stroke-width:2;stroke-linecap:butt;stroke-linejoin:miter;stroke-miterlimit:4;stroke-opacity:1;stroke-dasharray:none;stroke-dashoffset:0"
       id="path5829"
       sodipodi:cx="102.14257"
       sodipodi:cy="267.01004"
       sodipodi:rx="10.214257"
       sodipodi:ry="10.214257"
       d="M 112.35683,267.01004 A 10.214257,10.214257 0 1 1 91.928313,267.01004 A 10.214257,10.214257 0 1 1 112.35683,267.01004 z"
       game_data="object=box" />
    <path
       game_data="object=box"
       d="M 112.35683,267.01004 A 10.214257,10.214257 0 1 1 91.928313,267.01004 A 10.214257,10.214257 0 1 1 112.35683,267.01004 z"
       sodipodi:ry="10.214257"
       sodipodi:rx="10.214257"
       sodipodi:cy="267.01004"
       sodipodi:cx="102.14257"
       id="path3819"
       style="fill:none;stroke:#ff0000;stroke-width:2;stroke-linecap:butt;stroke-linejoin:miter;stroke-miterlimit:4;stroke-opacity:1;stroke-dasharray:none;stroke-dashoffset:0"
       sodipodi:type="arc"
       transform="matrix(2,0,0,2,1512.1853,-356.84834)" />
    <path
       transform="matrix(2,0,0,2,703.35186,-1359.3574)"
       sodipodi:type="arc"
       style="fill:none;stroke:#ff0000;stroke-width:2;stroke-linecap:butt;stroke-linejoin:miter;stroke-miterlimit:4;stroke-opacity:1;stroke-dasharray:none;stroke-dashoffset:0"
       id="path3048"
       sodipodi:cx="102.14257"
       sodipodi:cy="267.01004"
       sodipodi:rx="10.214257"
       sodipodi:ry="10.214257"
       d="M 112.35683,267.01004 A 10.214257,10.214257 0 1 1 91.928313,267.01004 A 10.214257,10.214257 0 1 1 112.35683,267.01004 z"
       game_data="object=box" />
    <path
       game_data="object=box"
       d="M 112.35683,267.01004 A 10.214257,10.214257 0 1 1 91.928313,267.01004 A 10.214257,10.214257 0 1 1 112.35683,267.01004 z"
       sodipodi:ry="10.214257"
       sodipodi:rx="10.214257"
       sodipodi:cy="267.01004"
       sodipodi:cx="102.14257"
       id="path3050"
       style="fill:none;stroke:#ff0000;stroke-width:2;stroke-linecap:butt;stroke-linejoin:miter;stroke-miterlimit:4;stroke-opacity:1;stroke-dasharray:none;stroke-dashoffset:0"
       sodipodi:type="arc"
       transform="matrix(2,0,0,2,1569.1201,-307.94658)" />
    <path
       transform="matrix(2,0,0,2,1454.1098,-352.53682)"
       sodipodi:type="arc"
       style="fill:none;stroke:#ff0000;stroke-width:2;stroke-linecap:butt;stroke-linejoin:miter;stroke-miterlimit:4;stroke-opacity:1;stroke-dasharray:none;stroke-dashoffset:0"
       id="path3151"
       sodipodi:cx="102.14257"
       sodipodi:cy="267.01004"
       sodipodi:rx="10.214257"
       sodipodi:ry="10.214257"
       d="M 112.35683,267.01004 A 10.214257,10.214257 0 1 1 91.928313,267.01004 A 10.214257,10.214257 0 1 1 112.35683,267.01004 z"
       game_data="object=box" />
    <path
       game_data="object=box"
       d="M 112.35683,267.01004 A 10.214257,10.214257 0 1 1 91.928313,267.01004 A 10.214257,10.214257 0 1 1 112.35683,267.01004 z"
       sodipodi:ry="10.214257"
       sodipodi:rx="10.214257"
       sodipodi:cy="267.01004"
       sodipodi:cx="102.14257"
       id="path3153"
       style="fill:none;stroke:#ff0000;stroke-width:2;stroke-linecap:butt;stroke-linejoin:miter;stroke-miterlimit:4;stroke-opacity:1;stroke-dasharray:none;stroke-dashoffset:0"
       sodipodi:type="arc"
       transform="matrix(2,0,0,2,827.96468,-646.01844)" />
    <path
       game_data="object=box"
       d="M 112.35683,267.01004 A 10.214257,10.214257 0 1 1 91.928313,267.01004 A 10.214257,10.214257 0 1 1 112.35683,267.01004 z"
       sodipodi:ry="10.214257"
       sodipodi:rx="10.214257"
       sodipodi:cy="267.01004"
       sodipodi:cx="102.14257"
       id="path3061"
       style="fill:none;stroke:#ff0000;stroke-width:2;stroke-linecap:butt;stroke-linejoin:miter;stroke-miterlimit:4;stroke-opacity:1;stroke-dasharray:none;stroke-dashoffset:0"
       sodipodi:type="arc"
       transform="matrix(2,0,0,2,584.94256,-1345.727)" />
    <path
       game_data="object=box"
       d="M 112.35683,267.01004 A 10.214257,10.214257 0 1 1 91.928313,267.01004 A 10.214257,10.214257 0 1 1 112.35683,267.01004 z"
       sodipodi:ry="10.214257"
       sodipodi:rx="10.214257"
       sodipodi:cy="267.01004"
       sodipodi:cx="102.14257"
       id="path3065"
       style="fill:none;stroke:#ff0000;stroke-width:2;stroke-linecap:butt;stroke-linejoin:miter;stroke-miterlimit:4;stroke-opacity:1;stroke-dasharray:none;stroke-dashoffset:0"
       sodipodi:type="arc"
       transform="matrix(2,0,0,2,901.52812,-620.27136)" />
    <path
       transform="matrix(2,0,0,2,957.37294,-631.16428)"
       game_data="object=box"
       d="M 65.825212,250.55374 A 8.5118809,7.3769636 0 1 1 48.801451,250.55374 A 8.5118809,7.3769636 0 1 1 65.825212,250.55374 z"
       sodipodi:ry="7.3769636"
       sodipodi:rx="8.5118809"
       sodipodi:cy="250.55374"
       sodipodi:cx="57.313332"
       id="path4009"
       style="fill:none;stroke:#ff0000;stroke-width:2;stroke-linecap:butt;stroke-linejoin:miter;stroke-miterlimit:4;stroke-opacity:1;stroke-dasharray:none;stroke-dashoffset:0"
       sodipodi:type="arc" />
    <path
       sodipodi:type="arc"
       style="fill:none;stroke:#ff0000;stroke-width:2;stroke-linecap:butt;stroke-linejoin:miter;stroke-miterlimit:4;stroke-opacity:1;stroke-dasharray:none;stroke-dashoffset:0"
       id="path3961"
       sodipodi:cx="108.33855"
       sodipodi:cy="235.1348"
       sodipodi:rx="12.037618"
       sodipodi:ry="12.037618"
       d="M 120.37616,235.1348 A 12.037618,12.037618 0 1 1 96.300929,235.1348 A 12.037618,12.037618 0 1 1 120.37616,235.1348 z"
       game_data="object=jump"
       transform="matrix(2,0,0,2,763.98748,295.32256)" />
    <path
       sodipodi:type="arc"
       style="fill:none;stroke:#ff0000;stroke-width:2;stroke-linecap:butt;stroke-linejoin:miter;stroke-miterlimit:4;stroke-opacity:1;stroke-dasharray:none;stroke-dashoffset:0"
       id="path3963"
       sodipodi:cx="276.8652"
       sodipodi:cy="119.57368"
       sodipodi:rx="13.642633"
       sodipodi:ry="12.037618"
       d="M 290.50784,119.57368 A 13.642633,12.037618 0 1 1 263.22257,119.57368 A 13.642633,12.037618 0 1 1 290.50784,119.57368 z"
       game_data="object=jump"
       transform="matrix(2,0,0,2,-131.61129,311.37272)" />
    <path
       sodipodi:type="arc"
       style="fill:none;stroke:#ff0000;stroke-width:2;stroke-linecap:butt;stroke-linejoin:miter;stroke-miterlimit:4;stroke-opacity:1;stroke-dasharray:none;stroke-dashoffset:0"
       id="path3965"
       sodipodi:cx="532.06268"
       sodipodi:cy="226.30722"
       sodipodi:rx="12.037618"
       sodipodi:ry="11.235109"
       d="M 544.1003,226.30722 A 12.037618,11.235109 0 1 1 520.02507,226.30722 A 12.037618,11.235109 0 1 1 544.1003,226.30722 z"
       game_data="object=jump"
       transform="matrix(2,0,0,2,378.78364,-218.28248)" />
    <path
       sodipodi:type="arc"
       style="fill:none;stroke:#ff0000;stroke-width:2;stroke-linecap:butt;stroke-linejoin:miter;stroke-miterlimit:4;stroke-opacity:1;stroke-dasharray:none;stroke-dashoffset:0"
       id="path3967"
       sodipodi:cx="607.49841"
       sodipodi:cy="227.91223"
       sodipodi:rx="10.432602"
       sodipodi:ry="11.235109"
       d="M 617.93102,227.91223 A 10.432602,11.235109 0 1 1 597.06581,227.91223 A 10.432602,11.235109 0 1 1 617.93102,227.91223 z"
       game_data="object=jump"
       transform="matrix(2,0,0,2,-105.9311,-1216.6022)" />
    <path
       sodipodi:type="arc"
       style="fill:none;stroke:#ff0000;stroke-width:2;stroke-linecap:butt;stroke-linejoin:miter;stroke-miterlimit:4;stroke-opacity:1;stroke-dasharray:none;stroke-dashoffset:0"
       id="path3969"
       sodipodi:cx="858.68335"
       sodipodi:cy="57.780571"
       sodipodi:rx="12.840125"
       sodipodi:ry="11.235109"
       d="M 871.52347,57.780571 A 12.840125,11.235109 0 1 1 845.84322,57.780571 A 12.840125,11.235109 0 1 1 871.52347,57.780571 z"
       game_data="object=jump"
       transform="matrix(2,0,0,2,-1113.8809,-860.28872)" />
    <path
       sodipodi:type="arc"
       style="fill:none;stroke:#00ff00;stroke-width:2;stroke-linecap:butt;stroke-linejoin:miter;stroke-miterlimit:4;stroke-opacity:1;stroke-dasharray:none;stroke-dashoffset:0;display:inline"
       id="path3107"
       sodipodi:cx="231.12225"
       sodipodi:cy="227.10971"
       sodipodi:rx="33.70533"
       sodipodi:ry="29.692789"
       d="M 264.82758,227.10971 A 33.70533,29.692789 0 1 1 197.41692,227.10971 A 33.70533,29.692789 0 1 1 264.82758,227.10971 z"
       transform="matrix(2.1846294,0,0,2.2095792,503.03336,-468.11192)"
       game_data="object=stickable" />
    <path
       sodipodi:type="arc"
       style="fill:none;stroke:#ff0000;stroke-width:2;stroke-linecap:butt;stroke-linejoin:miter;stroke-miterlimit:4;stroke-opacity:1;stroke-dasharray:none;stroke-dashoffset:0"
       id="path3175"
       sodipodi:cx="444.58936"
       sodipodi:cy="199.02194"
       sodipodi:rx="11.235109"
       sodipodi:ry="11.235109"
       d="M 455.82446,199.02194 A 11.235109,11.235109 0 1 1 433.35425,199.02194 A 11.235109,11.235109 0 1 1 455.82446,199.02194 z"
       game_data="object=flyingenemy,objectParams=patrolTime:2;patrolSpeed:5"
       transform="matrix(2,0,0,2,-234.33228,-1325.7433)" />
    <path
       sodipodi:type="arc"
       style="fill:none;stroke:#ff0000;stroke-width:2;stroke-linecap:butt;stroke-linejoin:miter;stroke-miterlimit:4;stroke-opacity:1;stroke-dasharray:none;stroke-dashoffset:0"
       id="path3177"
       sodipodi:cx="713.42944"
       sodipodi:cy="481.5047"
       sodipodi:rx="12.037618"
       sodipodi:ry="11.235109"
       d="M 725.46706,481.5047 A 12.037618,11.235109 0 1 1 701.39183,481.5047 A 12.037618,11.235109 0 1 1 725.46706,481.5047 z"
       game_data="object=flyingenemy,objectParams=patrolTime:2;patrolSpeed:2"
       transform="matrix(2,0,0,2,-658.0564,-1117.0912)" />
    <path
       sodipodi:type="arc"
       style="fill:none;stroke:#ff0000;stroke-width:2;stroke-linecap:butt;stroke-linejoin:miter;stroke-miterlimit:4;stroke-opacity:1;stroke-dasharray:none;stroke-dashoffset:0"
       id="path3947"
       sodipodi:cx="130.80878"
       sodipodi:cy="472.67712"
       sodipodi:rx="10.432602"
       sodipodi:ry="12.037618"
       d="M 141.24138,472.67712 A 10.432602,12.037618 0 1 1 120.37617,472.67712 A 10.432602,12.037618 0 1 1 141.24138,472.67712 z"
       transform="matrix(2.1533954,0,0,1.8662761,1101.991,-740.90492)"
       game_data="object=flyingenemy,objectParams=patrolTime:2;patrolSpeed:2" />
    <path
       sodipodi:type="arc"
       style="fill:none;stroke:#ff0000;stroke-width:2;stroke-linecap:butt;stroke-linejoin:miter;stroke-miterlimit:4;stroke-opacity:1;stroke-dasharray:none;stroke-dashoffset:0"
       id="path3949"
       sodipodi:cx="392.42633"
       sodipodi:cy="735.09717"
       sodipodi:rx="13.642633"
       sodipodi:ry="12.840125"
       d="M 406.06896,735.09717 A 13.642633,12.840125 0 1 1 378.7837,735.09717 A 13.642633,12.840125 0 1 1 406.06896,735.09717 z"
       game_data="object=flyingenemy,objectParams=patrolTime:2;patrolSpeed:5"
       transform="matrix(2,0,0,2,-645.2163,-1065.7307)" />
    <rect
       style="color:#000000;fill:none;stroke:#ff0000;stroke-width:2.00412488;stroke-linecap:butt;stroke-linejoin:miter;stroke-miterlimit:4;stroke-opacity:1;stroke-dasharray:none;stroke-dashoffset:0;marker:none;visibility:visible;display:inline;overflow:visible;enable-background:accumulate"
       id="rect3100"
       width="257.99588"
       height="97.995872"
       x="169.1337"
       y="-591.34314"
       game_data="object=stickableplatform,objectParams=direction:horizontal;duration:4;translation:320" />
    <rect
       game_data="object=stickableplatform,objectParams=direction:vertical;duration:4;translation:320"
       y="-495.04221"
       x="82.462891"
       height="97.995872"
       width="257.99588"
       id="rect3870"
       style="color:#000000;fill:none;stroke:#ff0000;stroke-width:2.00412488;stroke-linecap:butt;stroke-linejoin:miter;stroke-miterlimit:4;stroke-opacity:1;stroke-dasharray:none;stroke-dashoffset:0;marker:none;visibility:visible;display:inline;overflow:visible;enable-background:accumulate" />
    <rect
       game_data="object=stickableplatform,objectParams=direction:horizontal;duration:4;translation:60"
       y="-411.58127"
       x="843.24023"
       height="97.995872"
       width="257.99588"
       id="rect3872"
       style="color:#000000;fill:none;stroke:#ff0000;stroke-width:2.00412488;stroke-linecap:butt;stroke-linejoin:miter;stroke-miterlimit:4;stroke-opacity:1;stroke-dasharray:none;stroke-dashoffset:0;marker:none;visibility:visible;display:inline;overflow:visible;enable-background:accumulate" />
    <rect
       style="color:#000000;fill:none;stroke:#ff0000;stroke-width:2.00412488;stroke-linecap:butt;stroke-linejoin:miter;stroke-miterlimit:4;stroke-opacity:1;stroke-dasharray:none;stroke-dashoffset:0;marker:none;visibility:visible;display:inline;overflow:visible;enable-background:accumulate"
       id="rect3874"
       width="257.99588"
       height="97.995872"
       x="756.56946"
       y="-315.28046"
       game_data="object=stickableplatform,objectParams=direction:vertical;duration:4;translation:60" />
    <rect
       style="color:#000000;fill:none;stroke:#ff0000;stroke-width:2.00412488;stroke-linecap:butt;stroke-linejoin:miter;stroke-miterlimit:4;stroke-opacity:1;stroke-dasharray:none;stroke-dashoffset:0;marker:none;visibility:visible;display:inline;overflow:visible;enable-background:accumulate"
       id="rect3876"
       width="257.99588"
       height="97.995872"
       x="1491.6666"
       y="-748.63464"
       game_data="object=stickableplatform,objectParams=direction:horizontal;duration:4;translation:100" />
    <rect
       game_data="object=stickableplatform,objectParams=direction:vertical;duration:4;translation:100"
       y="-652.3338"
       x="1404.9958"
       height="97.995872"
       width="257.99588"
       id="rect3878"
       style="color:#000000;fill:none;stroke:#ff0000;stroke-width:2.00412488;stroke-linecap:butt;stroke-linejoin:miter;stroke-miterlimit:4;stroke-opacity:1;stroke-dasharray:none;stroke-dashoffset:0;marker:none;visibility:visible;display:inline;overflow:visible;enable-background:accumulate" />
    <rect
       game_data="object=stickableplatform,objectParams=direction:horizontal;duration:4;translation:60"
       y="-106.62825"
       x="1475.6165"
       height="97.995872"
       width="257.99588"
       id="rect3880"
       style="color:#000000;fill:none;stroke:#ff0000;stroke-width:2.00412488;stroke-linecap:butt;stroke-linejoin:miter;stroke-miterlimit:4;stroke-opacity:1;stroke-dasharray:none;stroke-dashoffset:0;marker:none;visibility:visible;display:inline;overflow:visible;enable-background:accumulate" />
    <rect
       style="color:#000000;fill:none;stroke:#ff0000;stroke-width:2.00412488;stroke-linecap:butt;stroke-linejoin:miter;stroke-miterlimit:4;stroke-opacity:1;stroke-dasharray:none;stroke-dashoffset:0;marker:none;visibility:visible;display:inline;overflow:visible;enable-background:accumulate"
       id="rect3882"
       width="257.99588"
       height="97.995872"
       x="1388.9457"
       y="-10.327415"
       game_data="object=stickableplatform,objectParams=direction:vertical;duration:4;translation:60" />
    <rect
       style="color:#000000;fill:none;stroke:#ff0000;stroke-width:2.00412488;stroke-linecap:butt;stroke-linejoin:miter;stroke-miterlimit:4;stroke-opacity:1;stroke-dasharray:none;stroke-dashoffset:0;marker:none;visibility:visible;display:inline;overflow:visible;enable-background:accumulate"
       id="rect3884"
       width="257.99588"
       height="97.995872"
       x="669.8985"
       y="545.00812"
       game_data="object=stickableplatform,objectParams=direction:horizontal;duration:4;translation:320" />
    <rect
       game_data="object=stickableplatform,objectParams=direction:vertical;duration:4;translation:120"
       y="464.75714"
       x="772.61957"
       height="97.995872"
       width="257.99588"
       id="rect3886"
       style="color:#000000;fill:none;stroke:#ff0000;stroke-width:2.00412488;stroke-linecap:butt;stroke-linejoin:miter;stroke-miterlimit:4;stroke-opacity:1;stroke-dasharray:none;stroke-dashoffset:0;marker:none;visibility:visible;display:inline;overflow:visible;enable-background:accumulate" />
    <rect
       game_data="object=stickableplatform,objectParams=direction:horizontal;duration:2;translation:80"
       y="143.75421"
       x="133.82327"
       height="97.995872"
       width="257.99588"
       id="rect3888"
       style="color:#000000;fill:none;stroke:#ff0000;stroke-width:2.00412488;stroke-linecap:butt;stroke-linejoin:miter;stroke-miterlimit:4;stroke-opacity:1;stroke-dasharray:none;stroke-dashoffset:0;marker:none;visibility:visible;display:inline;overflow:visible;enable-background:accumulate" />
    <rect
       style="color:#000000;fill:none;stroke:#ff0000;stroke-width:2.00412488;stroke-linecap:butt;stroke-linejoin:miter;stroke-miterlimit:4;stroke-opacity:1;stroke-dasharray:none;stroke-dashoffset:0;marker:none;visibility:visible;display:inline;overflow:visible;enable-background:accumulate"
       id="rect3890"
       width="257.99588"
       height="97.995872"
       x="69.622742"
       y="57.083229"
       game_data="object=stickableplatform,objectParams=direction:vertical;duration:3;translation:200" />
    <rect
       style="color:#000000;fill:none;stroke:#ff0000;stroke-width:2.00412488;stroke-linecap:butt;stroke-linejoin:miter;stroke-miterlimit:4;stroke-opacity:1;stroke-dasharray:none;stroke-dashoffset:0;marker:none;visibility:visible;display:inline;overflow:visible;enable-background:accumulate"
       id="rect3892"
       width="257.99588"
       height="97.995872"
       x="1222.024"
       y="785.76038"
       game_data="object=stickableplatform,objectParams=direction:horizontal;duration:4;translation:320" />
    <rect
       game_data="object=stickableplatform,objectParams=direction:vertical;duration:4;translation:120"
       y="715.13953"
       x="1421.046"
       height="97.995872"
       width="257.99588"
       id="rect3894"
       style="color:#000000;fill:none;stroke:#ff0000;stroke-width:2.00412488;stroke-linecap:butt;stroke-linejoin:miter;stroke-miterlimit:4;stroke-opacity:1;stroke-dasharray:none;stroke-dashoffset:0;marker:none;visibility:visible;display:inline;overflow:visible;enable-background:accumulate" />
    <path
       game_data="object=stickable"
       transform="matrix(2.1846294,0,0,2.2095792,647.48476,-497.0022)"
       d="M 264.82758,227.10971 A 33.70533,29.692789 0 1 1 197.41692,227.10971 A 33.70533,29.692789 0 1 1 264.82758,227.10971 z"
       sodipodi:ry="29.692789"
       sodipodi:rx="33.70533"
       sodipodi:cy="227.10971"
       sodipodi:cx="231.12225"
       id="path3896"
       style="fill:none;stroke:#00ff00;stroke-width:2;stroke-linecap:butt;stroke-linejoin:miter;stroke-miterlimit:4;stroke-opacity:1;stroke-dasharray:none;stroke-dashoffset:0;display:inline"
       sodipodi:type="arc" />
    <path
       sodipodi:type="arc"
       style="fill:none;stroke:#00ff00;stroke-width:2;stroke-linecap:butt;stroke-linejoin:miter;stroke-miterlimit:4;stroke-opacity:1;stroke-dasharray:none;stroke-dashoffset:0;display:inline"
       id="path3898"
       sodipodi:cx="231.12225"
       sodipodi:cy="227.10971"
       sodipodi:rx="33.70533"
       sodipodi:ry="29.692789"
       d="M 264.82758,227.10971 A 33.70533,29.692789 0 1 1 197.41692,227.10971 A 33.70533,29.692789 0 1 1 264.82758,227.10971 z"
       transform="matrix(2.1846294,0,0,2.2095792,1119.3594,-195.25926)"
       game_data="object=stickable" />
    <path
       game_data="object=stickable"
       transform="matrix(2.1846294,0,0,2.2095792,1263.8108,-175.99908)"
       d="M 264.82758,227.10971 A 33.70533,29.692789 0 1 1 197.41692,227.10971 A 33.70533,29.692789 0 1 1 264.82758,227.10971 z"
       sodipodi:ry="29.692789"
       sodipodi:rx="33.70533"
       sodipodi:cy="227.10971"
       sodipodi:cx="231.12225"
       id="path3900"
       style="fill:none;stroke:#00ff00;stroke-width:2;stroke-linecap:butt;stroke-linejoin:miter;stroke-miterlimit:4;stroke-opacity:1;stroke-dasharray:none;stroke-dashoffset:0;display:inline"
       sodipodi:type="arc" />
    <path
       sodipodi:type="arc"
       style="fill:none;stroke:#00ff00;stroke-width:2;stroke-linecap:butt;stroke-linejoin:miter;stroke-miterlimit:4;stroke-opacity:1;stroke-dasharray:none;stroke-dashoffset:0;display:inline"
       id="path3902"
       sodipodi:cx="231.12225"
       sodipodi:cy="227.10971"
       sodipodi:rx="33.70533"
       sodipodi:ry="29.692789"
       d="M 264.82758,227.10971 A 33.70533,29.692789 0 1 1 197.41692,227.10971 A 33.70533,29.692789 0 1 1 264.82758,227.10971 z"
       transform="matrix(2.1846294,0,0,2.2095792,-106.87261,186.73446)"
       game_data="object=stickable" />
    <path
       game_data="object=stickable"
       transform="matrix(2.1846294,0,0,2.2095792,-254.53406,183.52442)"
       d="M 264.82758,227.10971 A 33.70533,29.692789 0 1 1 197.41692,227.10971 A 33.70533,29.692789 0 1 1 264.82758,227.10971 z"
       sodipodi:ry="29.692789"
       sodipodi:rx="33.70533"
       sodipodi:cy="227.10971"
       sodipodi:cx="231.12225"
       id="path3904"
       style="fill:none;stroke:#00ff00;stroke-width:2;stroke-linecap:butt;stroke-linejoin:miter;stroke-miterlimit:4;stroke-opacity:1;stroke-dasharray:none;stroke-dashoffset:0;display:inline"
       sodipodi:type="arc" />
    <path
       game_data="object=stickable"
       transform="matrix(2.1846294,0,0,2.2095792,287.96126,-1206.4191)"
       d="M 264.82758,227.10971 A 33.70533,29.692789 0 1 1 197.41692,227.10971 A 33.70533,29.692789 0 1 1 264.82758,227.10971 z"
       sodipodi:ry="29.692789"
       sodipodi:rx="33.70533"
       sodipodi:cy="227.10971"
       sodipodi:cx="231.12225"
       id="path3906"
       style="fill:none;stroke:#00ff00;stroke-width:2;stroke-linecap:butt;stroke-linejoin:miter;stroke-miterlimit:4;stroke-opacity:1;stroke-dasharray:none;stroke-dashoffset:0;display:inline"
       sodipodi:type="arc" />
    <path
       sodipodi:type="arc"
       style="fill:none;stroke:#00ff00;stroke-width:2;stroke-linecap:butt;stroke-linejoin:miter;stroke-miterlimit:4;stroke-opacity:1;stroke-dasharray:none;stroke-dashoffset:0;display:inline"
       id="path3908"
       sodipodi:cx="231.12225"
       sodipodi:cy="227.10971"
       sodipodi:rx="33.70533"
       sodipodi:ry="29.692789"
       d="M 264.82758,227.10971 A 33.70533,29.692789 0 1 1 197.41692,227.10971 A 33.70533,29.692789 0 1 1 264.82758,227.10971 z"
       transform="matrix(1.8592352,0,0,2.002375,554.16396,-1213.9316)"
       game_data="object=stickable" />
    <path
       game_data="object=stickable"
       transform="matrix(1.1660952,0,0,1.2696213,635.71826,-973.6854)"
       d="M 264.82758,227.10971 A 33.70533,29.692789 0 1 1 197.41692,227.10971 A 33.70533,29.692789 0 1 1 264.82758,227.10971 z"
       sodipodi:ry="29.692789"
       sodipodi:rx="33.70533"
       sodipodi:cy="227.10971"
       sodipodi:cx="231.12225"
       id="path3910"
       style="fill:none;stroke:#00ff00;stroke-width:2;stroke-linecap:butt;stroke-linejoin:miter;stroke-miterlimit:4;stroke-opacity:1;stroke-dasharray:none;stroke-dashoffset:0;display:inline"
       sodipodi:type="arc" />
  </g>
</svg>
