<?xml version="1.0" encoding="UTF-8" standalone="no"?>
<!-- Created with Inkscape (http://www.inkscape.org/) -->

<svg
   xmlns:dc="http://purl.org/dc/elements/1.1/"
   xmlns:cc="http://creativecommons.org/ns#"
   xmlns:rdf="http://www.w3.org/1999/02/22-rdf-syntax-ns#"
   xmlns:svg="http://www.w3.org/2000/svg"
   xmlns="http://www.w3.org/2000/svg"
   xmlns:xlink="http://www.w3.org/1999/xlink"
   xmlns:sodipodi="http://sodipodi.sourceforge.net/DTD/sodipodi-0.dtd"
   xmlns:inkscape="http://www.inkscape.org/namespaces/inkscape"
   width="1024"
   height="1024"
   id="svg2"
   version="1.1"
   inkscape:version="0.48.0 r9654"
   sodipodi:docname="level21.svg"
   inkscape:export-filename="/Users/pawel/projects/iphone/StickyET_LSVG32/Resources/backgrounds/level14.png"
   inkscape:export-xdpi="90"
   inkscape:export-ydpi="90"
   game_config="gravity_x=0.0,gravity_y=-1.0">
  <defs
     id="defs4">
    <inkscape:path-effect
       effect="spiro"
       id="path-effect3888"
       is_visible="true" />
  </defs>
  <sodipodi:namedview
     id="base"
     pagecolor="#ffffff"
     bordercolor="#666666"
     borderopacity="1.0"
     inkscape:pageopacity="0.0"
     inkscape:pageshadow="2"
     inkscape:zoom="0.31152344"
     inkscape:cx="403.98975"
     inkscape:cy="361.81843"
     inkscape:document-units="px"
     inkscape:current-layer="layer1"
     showgrid="false"
     inkscape:window-width="1436"
     inkscape:window-height="856"
     inkscape:window-x="0"
     inkscape:window-y="0"
     inkscape:window-maximized="1"
     showguides="true"
     inkscape:guide-bbox="true" />
  <metadata
     id="metadata7">
    <rdf:RDF>
      <cc:Work
         rdf:about="">
        <dc:format>image/svg+xml</dc:format>
        <dc:type
           rdf:resource="http://purl.org/dc/dcmitype/StillImage" />
        <dc:title></dc:title>
      </cc:Work>
    </rdf:RDF>
  </metadata>
  <g
     inkscape:label="graphics"
     inkscape:groupmode="layer"
     id="layer1"
     transform="translate(0,-28.36218)"
     style="display:inline">
    <image
       style="display:inline"
       y="28.362183"
       x="0"
       id="image3236"
       xlink:href="file:///Users/pawel/Downloads/firehdtiles/bg-hd.jpg"
       height="1024"
       width="1024"
       inkscape:export-filename="/Users/pawel/projects/iphone/StickyET_LSVG32/Resources/backgrounds/level21.png"
       inkscape:export-xdpi="90"
       inkscape:export-ydpi="90" />
    <image
       y="290.08554"
       x="514.89575"
       id="image3299"
       xlink:href="file:///Users/pawel/Downloads/firehdtiles/rock-1-hd.png"
       height="163.5"
       width="151.5" />
    <image
       y="676.04395"
       x="441.49536"
       id="image3377"
       xlink:href="file:///Users/pawel/Downloads/firehdtiles/rock-2-hd.png"
       height="101"
       width="202" />
    <image
       y="448.27673"
       x="231.90826"
       id="image3503"
       xlink:href="file:///Users/pawel/Downloads/firehdtiles/rock-3-hd.png"
       height="97.5"
       width="213.5" />
    <image
       y="-277.12939"
       x="98.081543"
       id="image3675"
       xlink:href="file:///Users/pawel/Downloads/firehdtiles/rock-5-hd.png"
       height="38.5"
       width="112"
       transform="scale(1,-1)" />
    <image
       y="562.18274"
       x="720.39258"
       id="image3769"
       xlink:href="file:///Users/pawel/Downloads/firehdtiles/rock-6-hd.png"
       height="65.5"
       width="122.5" />
    <image
       y="893.22583"
       x="783.79321"
       id="image3831"
       xlink:href="file:///Users/pawel/Downloads/firehdtiles/rock-7-hd.png"
       height="39"
       width="92" />
    <image
       width="146.5"
       height="154"
       xlink:href="file:///Users/pawel/Downloads/firehdtiles/rock-4-hd.png"
       id="image3834"
       x="209.23267"
       y="758.68506" />
    <image
       y="413.60669"
       x="-1015.394"
       id="image3836"
       xlink:href="file:///Users/pawel/Downloads/firehdtiles/rock-4-hd.png"
       height="154"
       width="146.5"
       transform="scale(-1,1)" />
    <image
       width="213.5"
       height="97.5"
       xlink:href="file:///Users/pawel/Downloads/firehdtiles/rock-3-hd.png"
       id="image3838"
       x="750.32837"
       y="-303.41937"
       transform="scale(1,-1)" />
    <image
       width="122.5"
       height="65.5"
       xlink:href="file:///Users/pawel/Downloads/firehdtiles/rock-6-hd.png"
       id="image3840"
       x="41.471069"
       y="587.86298" />
    <image
       y="669.25873"
       x="131.76257"
       id="image3963"
       xlink:href="file:///Users/pawel/Downloads/firehdtiles/cloud-2-hd.png"
       height="60"
       width="256.5" />
    <image
       y="161.01892"
       x="259.58936"
       id="image4025"
       xlink:href="file:///Users/pawel/Downloads/firehdtiles/cloud-3-hd.png"
       height="91"
       width="370" />
    <image
       y="710.74463"
       x="650.42798"
       id="image4087"
       xlink:href="file:///Users/pawel/Downloads/firehdtiles/cloud-4-hd.png"
       height="160"
       width="317" />
  </g>
  <g
     inkscape:groupmode="layer"
     id="layer2"
     inkscape:label="physics:static"
     style="display:none"
     sodipodi:insensitive="true">
    <path
       style="fill:none;stroke:#00ff00;stroke-width:3.82927203px;stroke-linecap:butt;stroke-linejoin:miter;stroke-opacity:1"
       d="M 46.01717,21.91463 L 1002.0853,21.91463 L 1002.0853,1102.0853 L 21.91464,1102.0853 L 21.91464,21.91463 z"
       id="path3735"
       inkscape:connector-curvature="0" />
    <rect
       style="color:#000000;fill:none;stroke:#00ff00;stroke-width:0.56793886;stroke-linecap:butt;stroke-linejoin:miter;stroke-miterlimit:4;stroke-opacity:1;stroke-dasharray:none;stroke-dashoffset:0;marker:none;visibility:visible;display:inline;overflow:visible;enable-background:accumulate"
       id="rect3885"
       width="1003.4321"
       height="0.43206111"
       x="13.670898"
       y="1083.2838"
       game_data="object=worldboundary" />
    <path
       sodipodi:type="arc"
       style="fill:none;stroke:#ff0000;stroke-width:2;stroke-linecap:butt;stroke-linejoin:miter;stroke-miterlimit:4;stroke-opacity:1;stroke-dasharray:none;stroke-dashoffset:0"
       id="path3174"
       sodipodi:cx="546.43311"
       sodipodi:cy="230.31721"
       sodipodi:rx="18.063904"
       sodipodi:ry="14.676922"
       d="M 564.49701,230.31721 A 18.063904,14.676922 0 1 1 528.3692,230.31721 A 18.063904,14.676922 0 1 1 564.49701,230.31721 z"
       game_data="object=stickyhero"
       transform="matrix(1,0,0,1.2367273,-284.44013,442.10286)" />
    <path
       sodipodi:type="arc"
       style="fill:none;stroke:#ff0000;stroke-width:2;stroke-linecap:butt;stroke-linejoin:miter;stroke-miterlimit:4;stroke-opacity:1;stroke-dasharray:none;stroke-dashoffset:0"
       id="path3944"
       sodipodi:cx="545.86859"
       sodipodi:cy="576.35388"
       sodipodi:rx="16.370413"
       sodipodi:ry="14.112425"
       d="M 562.239,576.35388 A 16.370413,14.112425 0 1 1 529.49818,576.35388 A 16.370413,14.112425 0 1 1 562.239,576.35388 z"
       game_data="object=portal"
       transform="translate(396.07718,-266.31956)" />
    <path
       sodipodi:type="arc"
       style="fill:none;stroke:#ff0000;stroke-width:2;stroke-linecap:butt;stroke-linejoin:miter;stroke-miterlimit:4;stroke-opacity:1;stroke-dasharray:none;stroke-dashoffset:0"
       id="path3948"
       sodipodi:cx="59.836681"
       sodipodi:cy="137.73972"
       sodipodi:rx="11.28994"
       sodipodi:ry="10.160946"
       d="M 71.126621,137.73972 A 11.28994,10.160946 0 1 1 48.546741,137.73972 A 11.28994,10.160946 0 1 1 71.126621,137.73972 z"
       game_data="object=star"
       transform="translate(92.76044,50.08662)" />
    <path
       sodipodi:type="arc"
       style="fill:none;stroke:#ff0000;stroke-width:2;stroke-linecap:butt;stroke-linejoin:miter;stroke-miterlimit:4;stroke-opacity:1;stroke-dasharray:none;stroke-dashoffset:0"
       id="path3950"
       sodipodi:cx="972.62836"
       sodipodi:cy="165.40007"
       sodipodi:rx="9.5964489"
       sodipodi:ry="9.5964489"
       d="M 982.22481,165.40007 A 9.5964489,9.5964489 0 1 1 963.03191,165.40007 A 9.5964489,9.5964489 0 1 1 982.22481,165.40007 z"
       game_data="object=star"
       transform="matrix(1.2256,0,0,1.0588287,-363.46271,672.39926)" />
    <path
       sodipodi:type="arc"
       style="fill:none;stroke:#ff0000;stroke-width:2;stroke-linecap:butt;stroke-linejoin:miter;stroke-miterlimit:4;stroke-opacity:1;stroke-dasharray:none;stroke-dashoffset:0"
       id="path3150"
       sodipodi:cx="113.36134"
       sodipodi:cy="457.1933"
       sodipodi:rx="9.5798321"
       sodipodi:ry="11.176471"
       d="M 122.94118,457.1933 A 9.5798321,11.176471 0 1 1 103.78151,457.1933 A 9.5798321,11.176471 0 1 1 122.94118,457.1933 z"
       game_data="object=star"
       transform="matrix(1.3937821,0,0,1.0328918,603.0018,45.61437)" />
    <path
       sodipodi:type="arc"
       style="fill:none;stroke:#00ff00;stroke-width:2;stroke-linecap:butt;stroke-linejoin:miter;stroke-miterlimit:4;stroke-opacity:1;stroke-dasharray:none;stroke-dashoffset:0;display:inline"
       id="path3107"
       sodipodi:cx="231.12225"
       sodipodi:cy="227.10971"
       sodipodi:rx="33.70533"
       sodipodi:ry="29.692789"
       d="M 264.82758,227.10971 A 33.70533,29.692789 0 1 1 197.41692,227.10971 A 33.70533,29.692789 0 1 1 264.82758,227.10971 z"
       transform="matrix(1.3238771,0,0,1.3135902,0.58042,172.74288)"
       game_data="object=stickable" />
    <path
       sodipodi:type="arc"
       style="fill:none;stroke:#ff0000;stroke-width:2;stroke-linecap:butt;stroke-linejoin:miter;stroke-miterlimit:4;stroke-opacity:1;stroke-dasharray:none;stroke-dashoffset:0"
       id="path3947"
       sodipodi:cx="130.80878"
       sodipodi:cy="472.67712"
       sodipodi:rx="10.432602"
       sodipodi:ry="12.037618"
       d="M 141.24138,472.67712 A 10.432602,12.037618 0 1 1 120.37617,472.67712 A 10.432602,12.037618 0 1 1 141.24138,472.67712 z"
       transform="matrix(1.0766977,0,0,0.93313805,26.15527,159.20278)"
       game_data="object=flyingenemy,objectParams=patrolTime:2;patrolSpeed:2" />
    <path
       sodipodi:type="arc"
       style="fill:none;stroke:#ff0000;stroke-width:2;stroke-linecap:butt;stroke-linejoin:miter;stroke-miterlimit:4;stroke-opacity:1;stroke-dasharray:none;stroke-dashoffset:0"
       id="path4005"
       sodipodi:cx="861.09088"
       sodipodi:cy="315.38559"
       sodipodi:rx="13.642633"
       sodipodi:ry="13.642633"
       d="M 874.73351,315.38559 A 13.642633,13.642633 0 1 1 847.44825,315.38559 A 13.642633,13.642633 0 1 1 874.73351,315.38559 z"
       transform="translate(-714.23205,46.54534)"
       game_data="object=hole" />
    <path
       game_data="object=stickable"
       transform="matrix(1.5081206,0,0,1.5497586,248.50549,17.18827)"
       d="M 264.82758,227.10971 A 33.70533,29.692789 0 1 1 197.41692,227.10971 A 33.70533,29.692789 0 1 1 264.82758,227.10971 z"
       sodipodi:ry="29.692789"
       sodipodi:rx="33.70533"
       sodipodi:cy="227.10971"
       sodipodi:cx="231.12225"
       id="path4090"
       style="fill:none;stroke:#00ff00;stroke-width:2;stroke-linecap:butt;stroke-linejoin:miter;stroke-miterlimit:4;stroke-opacity:1;stroke-dasharray:none;stroke-dashoffset:0;display:inline"
       sodipodi:type="arc" />
    <path
       sodipodi:type="arc"
       style="fill:none;stroke:#00ff00;stroke-width:2;stroke-linecap:butt;stroke-linejoin:miter;stroke-miterlimit:4;stroke-opacity:1;stroke-dasharray:none;stroke-dashoffset:0;display:inline"
       id="path4092"
       sodipodi:cx="231.12225"
       sodipodi:cy="227.10971"
       sodipodi:rx="33.70533"
       sodipodi:ry="29.692789"
       d="M 264.82758,227.10971 A 33.70533,29.692789 0 1 1 197.41692,227.10971 A 33.70533,29.692789 0 1 1 264.82758,227.10971 z"
       transform="matrix(1.1838694,0,0,1.2627706,541.7293,-62.88791)"
       game_data="object=stickable" />
    <path
       game_data="object=stickable"
       transform="matrix(1.1838694,0,0,1.2627706,214.3061,412.19673)"
       d="M 264.82758,227.10971 A 33.70533,29.692789 0 1 1 197.41692,227.10971 A 33.70533,29.692789 0 1 1 264.82758,227.10971 z"
       sodipodi:ry="29.692789"
       sodipodi:rx="33.70533"
       sodipodi:cy="227.10971"
       sodipodi:cx="231.12225"
       id="path4094"
       style="fill:none;stroke:#00ff00;stroke-width:2;stroke-linecap:butt;stroke-linejoin:miter;stroke-miterlimit:4;stroke-opacity:1;stroke-dasharray:none;stroke-dashoffset:0;display:inline"
       sodipodi:type="arc" />
    <path
       sodipodi:type="arc"
       style="fill:none;stroke:#00ff00;stroke-width:2;stroke-linecap:butt;stroke-linejoin:miter;stroke-miterlimit:4;stroke-opacity:1;stroke-dasharray:none;stroke-dashoffset:0;display:inline"
       id="path4096"
       sodipodi:cx="231.12225"
       sodipodi:cy="227.10971"
       sodipodi:rx="33.70533"
       sodipodi:ry="29.692789"
       d="M 264.82758,227.10971 A 33.70533,29.692789 0 1 1 197.41692,227.10971 A 33.70533,29.692789 0 1 1 264.82758,227.10971 z"
       transform="matrix(0.88308575,0,0,0.9753946,61.52922,556.91089)"
       game_data="object=stickable" />
    <path
       game_data="object=stickable"
       transform="matrix(0.88308575,0,0,0.9753946,758.106,213.43754)"
       d="M 264.82758,227.10971 A 33.70533,29.692789 0 1 1 197.41692,227.10971 A 33.70533,29.692789 0 1 1 264.82758,227.10971 z"
       sodipodi:ry="29.692789"
       sodipodi:rx="33.70533"
       sodipodi:cy="227.10971"
       sodipodi:cx="231.12225"
       id="path4098"
       style="fill:none;stroke:#00ff00;stroke-width:2;stroke-linecap:butt;stroke-linejoin:miter;stroke-miterlimit:4;stroke-opacity:1;stroke-dasharray:none;stroke-dashoffset:0;display:inline"
       sodipodi:type="arc" />
    <path
       sodipodi:type="arc"
       style="fill:none;stroke:#00ff00;stroke-width:2;stroke-linecap:butt;stroke-linejoin:miter;stroke-miterlimit:4;stroke-opacity:1;stroke-dasharray:none;stroke-dashoffset:0;display:inline"
       id="path4100"
       sodipodi:cx="231.12225"
       sodipodi:cy="227.10971"
       sodipodi:rx="33.70533"
       sodipodi:ry="29.692789"
       d="M 264.82758,227.10971 A 33.70533,29.692789 0 1 1 197.41692,227.10971 A 33.70533,29.692789 0 1 1 264.82758,227.10971 z"
       transform="matrix(0.39767975,0,0,0.47844722,891.9619,370.43705)"
       game_data="object=stickable" />
    <path
       game_data="object=stickable"
       transform="matrix(0.6065034,0,0,0.6344092,93.35325,678.48993)"
       d="M 264.82758,227.10971 A 33.70533,29.692789 0 1 1 197.41692,227.10971 A 33.70533,29.692789 0 1 1 264.82758,227.10971 z"
       sodipodi:ry="29.692789"
       sodipodi:rx="33.70533"
       sodipodi:cy="227.10971"
       sodipodi:cx="231.12225"
       id="path4102"
       style="fill:none;stroke:#00ff00;stroke-width:2;stroke-linecap:butt;stroke-linejoin:miter;stroke-miterlimit:4;stroke-opacity:1;stroke-dasharray:none;stroke-dashoffset:0;display:inline"
       sodipodi:type="arc" />
    <path
       sodipodi:type="arc"
       style="fill:none;stroke:#00ff00;stroke-width:2;stroke-linecap:butt;stroke-linejoin:miter;stroke-miterlimit:4;stroke-opacity:1;stroke-dasharray:none;stroke-dashoffset:0;display:inline"
       id="path4104"
       sodipodi:cx="231.12225"
       sodipodi:cy="227.10971"
       sodipodi:rx="33.70533"
       sodipodi:ry="29.692789"
       d="M 264.82758,227.10971 A 33.70533,29.692789 0 1 1 197.41692,227.10971 A 33.70533,29.692789 0 1 1 264.82758,227.10971 z"
       transform="matrix(0.6065034,0,0,0.6344092,406.33131,572.55889)"
       game_data="object=stickable" />
    <path
       game_data="object=stickable"
       transform="matrix(0.6065034,0,0,0.6344092,406.33131,532.4335)"
       d="M 264.82758,227.10971 A 33.70533,29.692789 0 1 1 197.41692,227.10971 A 33.70533,29.692789 0 1 1 264.82758,227.10971 z"
       sodipodi:ry="29.692789"
       sodipodi:rx="33.70533"
       sodipodi:cy="227.10971"
       sodipodi:cx="231.12225"
       id="path4106"
       style="fill:none;stroke:#00ff00;stroke-width:2;stroke-linecap:butt;stroke-linejoin:miter;stroke-miterlimit:4;stroke-opacity:1;stroke-dasharray:none;stroke-dashoffset:0;display:inline"
       sodipodi:type="arc" />
    <path
       sodipodi:type="arc"
       style="fill:none;stroke:#00ff00;stroke-width:2;stroke-linecap:butt;stroke-linejoin:miter;stroke-miterlimit:4;stroke-opacity:1;stroke-dasharray:none;stroke-dashoffset:0;display:inline"
       id="path4108"
       sodipodi:cx="231.12225"
       sodipodi:cy="227.10971"
       sodipodi:rx="33.70533"
       sodipodi:ry="29.692789"
       d="M 264.82758,227.10971 A 33.70533,29.692789 0 1 1 197.41692,227.10971 A 33.70533,29.692789 0 1 1 264.82758,227.10971 z"
       transform="matrix(0.6065034,0,0,0.6344092,-51.09816,453.78773)"
       game_data="object=stickable" />
    <path
       sodipodi:type="arc"
       style="fill:none;stroke:#00ff00;stroke-width:2;stroke-linecap:butt;stroke-linejoin:miter;stroke-miterlimit:4;stroke-opacity:1;stroke-dasharray:none;stroke-dashoffset:0;display:inline"
       id="path4110"
       sodipodi:cx="231.12225"
       sodipodi:cy="227.10971"
       sodipodi:rx="33.70533"
       sodipodi:ry="29.692789"
       d="M 264.82758,227.10971 A 33.70533,29.692789 0 1 1 197.41692,227.10971 A 33.70533,29.692789 0 1 1 264.82758,227.10971 z"
       transform="matrix(0.6065034,0,0,0.6344092,624.6134,431.31751)"
       game_data="object=stickable" />
    <path
       sodipodi:type="arc"
       style="fill:none;stroke:#00ff00;stroke-width:2;stroke-linecap:butt;stroke-linejoin:miter;stroke-miterlimit:4;stroke-opacity:1;stroke-dasharray:none;stroke-dashoffset:0;display:inline"
       id="path4112"
       sodipodi:cx="231.12225"
       sodipodi:cy="227.10971"
       sodipodi:rx="33.70533"
       sodipodi:ry="29.692789"
       d="M 264.82758,227.10971 A 33.70533,29.692789 0 1 1 197.41692,227.10971 A 33.70533,29.692789 0 1 1 264.82758,227.10971 z"
       transform="matrix(0.42075946,0,0,0.5046458,699.6433,442.33036)"
       game_data="object=stickable" />
    <path
       game_data="object=stickable"
       transform="matrix(0.42075946,0,0,0.5046458,23.9317,463.19557)"
       d="M 264.82758,227.10971 A 33.70533,29.692789 0 1 1 197.41692,227.10971 A 33.70533,29.692789 0 1 1 264.82758,227.10971 z"
       sodipodi:ry="29.692789"
       sodipodi:rx="33.70533"
       sodipodi:cy="227.10971"
       sodipodi:cx="231.12225"
       id="path4114"
       style="fill:none;stroke:#00ff00;stroke-width:2;stroke-linecap:butt;stroke-linejoin:miter;stroke-miterlimit:4;stroke-opacity:1;stroke-dasharray:none;stroke-dashoffset:0;display:inline"
       sodipodi:type="arc" />
    <path
       sodipodi:type="arc"
       style="fill:none;stroke:#00ff00;stroke-width:2;stroke-linecap:butt;stroke-linejoin:miter;stroke-miterlimit:4;stroke-opacity:1;stroke-dasharray:none;stroke-dashoffset:0;display:inline"
       id="path4116"
       sodipodi:cx="231.12225"
       sodipodi:cy="227.10971"
       sodipodi:rx="33.70533"
       sodipodi:ry="29.692789"
       d="M 264.82758,227.10971 A 33.70533,29.692789 0 1 1 197.41692,227.10971 A 33.70533,29.692789 0 1 1 264.82758,227.10971 z"
       transform="matrix(0.3057194,0,0,0.34703275,56.13757,142.67754)"
       game_data="object=stickable" />
    <path
       game_data="object=stickable"
       transform="matrix(0.3057194,0,0,0.34703275,83.42284,147.49258)"
       d="M 264.82758,227.10971 A 33.70533,29.692789 0 1 1 197.41692,227.10971 A 33.70533,29.692789 0 1 1 264.82758,227.10971 z"
       sodipodi:ry="29.692789"
       sodipodi:rx="33.70533"
       sodipodi:cy="227.10971"
       sodipodi:cx="231.12225"
       id="path4118"
       style="fill:none;stroke:#00ff00;stroke-width:2;stroke-linecap:butt;stroke-linejoin:miter;stroke-miterlimit:4;stroke-opacity:1;stroke-dasharray:none;stroke-dashoffset:0;display:inline"
       sodipodi:type="arc" />
    <path
       sodipodi:type="arc"
       style="fill:none;stroke:#00ff00;stroke-width:2;stroke-linecap:butt;stroke-linejoin:miter;stroke-miterlimit:4;stroke-opacity:1;stroke-dasharray:none;stroke-dashoffset:0;display:inline"
       id="path4120"
       sodipodi:cx="231.12225"
       sodipodi:cy="227.10971"
       sodipodi:rx="33.70533"
       sodipodi:ry="29.692789"
       d="M 264.82758,227.10971 A 33.70533,29.692789 0 1 1 197.41692,227.10971 A 33.70533,29.692789 0 1 1 264.82758,227.10971 z"
       transform="matrix(0.3057194,0,0,0.34703275,105.89306,158.72769)"
       game_data="object=stickable" />
    <path
       game_data="object=stickable"
       transform="matrix(0.3057194,0,0,0.34703275,513.5671,612.94713)"
       d="M 264.82758,227.10971 A 33.70533,29.692789 0 1 1 197.41692,227.10971 A 33.70533,29.692789 0 1 1 264.82758,227.10971 z"
       sodipodi:ry="29.692789"
       sodipodi:rx="33.70533"
       sodipodi:cy="227.10971"
       sodipodi:cx="231.12225"
       id="path4122"
       style="fill:none;stroke:#00ff00;stroke-width:2;stroke-linecap:butt;stroke-linejoin:miter;stroke-miterlimit:4;stroke-opacity:1;stroke-dasharray:none;stroke-dashoffset:0;display:inline"
       sodipodi:type="arc" />
    <path
       game_data="object=stickable"
       transform="matrix(0.39767975,0,0,0.47844722,526.0184,198.70037)"
       d="M 264.82758,227.10971 A 33.70533,29.692789 0 1 1 197.41692,227.10971 A 33.70533,29.692789 0 1 1 264.82758,227.10971 z"
       sodipodi:ry="29.692789"
       sodipodi:rx="33.70533"
       sodipodi:cy="227.10971"
       sodipodi:cx="231.12225"
       id="path4124"
       style="fill:none;stroke:#00ff00;stroke-width:2;stroke-linecap:butt;stroke-linejoin:miter;stroke-miterlimit:4;stroke-opacity:1;stroke-dasharray:none;stroke-dashoffset:0;display:inline"
       sodipodi:type="arc" />
    <path
       sodipodi:type="arc"
       style="fill:none;stroke:#00ff00;stroke-width:2;stroke-linecap:butt;stroke-linejoin:miter;stroke-miterlimit:4;stroke-opacity:1;stroke-dasharray:none;stroke-dashoffset:0;display:inline"
       id="path4126"
       sodipodi:cx="231.12225"
       sodipodi:cy="227.10971"
       sodipodi:rx="33.70533"
       sodipodi:ry="29.692789"
       d="M 264.82758,227.10971 A 33.70533,29.692789 0 1 1 197.41692,227.10971 A 33.70533,29.692789 0 1 1 264.82758,227.10971 z"
       transform="matrix(0.39767975,0,0,0.47844722,500.3381,177.83517)"
       game_data="object=stickable" />
    <path
       game_data="object=stickable"
       transform="matrix(0.42075946,0,0,0.5046458,722.1135,769.75356)"
       d="M 264.82758,227.10971 A 33.70533,29.692789 0 1 1 197.41692,227.10971 A 33.70533,29.692789 0 1 1 264.82758,227.10971 z"
       sodipodi:ry="29.692789"
       sodipodi:rx="33.70533"
       sodipodi:cy="227.10971"
       sodipodi:cx="231.12225"
       id="path4128"
       style="fill:none;stroke:#00ff00;stroke-width:2;stroke-linecap:butt;stroke-linejoin:miter;stroke-miterlimit:4;stroke-opacity:1;stroke-dasharray:none;stroke-dashoffset:0;display:inline"
       sodipodi:type="arc" />
    <path
       game_data="object=stickable"
       transform="matrix(0.3057194,0,0,0.34703275,776.7896,805.54901)"
       d="M 264.82758,227.10971 A 33.70533,29.692789 0 1 1 197.41692,227.10971 A 33.70533,29.692789 0 1 1 264.82758,227.10971 z"
       sodipodi:ry="29.692789"
       sodipodi:rx="33.70533"
       sodipodi:cy="227.10971"
       sodipodi:cx="231.12225"
       id="path4130"
       style="fill:none;stroke:#00ff00;stroke-width:2;stroke-linecap:butt;stroke-linejoin:miter;stroke-miterlimit:4;stroke-opacity:1;stroke-dasharray:none;stroke-dashoffset:0;display:inline"
       sodipodi:type="arc" />
    <path
       game_data="object=hole"
       transform="translate(-447.79945,-54.57066)"
       d="M 874.73351,315.38559 A 13.642633,13.642633 0 1 1 847.44825,315.38559 A 13.642633,13.642633 0 1 1 874.73351,315.38559 z"
       sodipodi:ry="13.642633"
       sodipodi:rx="13.642633"
       sodipodi:cy="315.38559"
       sodipodi:cx="861.09088"
       id="path4132"
       style="fill:none;stroke:#ff0000;stroke-width:2;stroke-linecap:butt;stroke-linejoin:miter;stroke-miterlimit:4;stroke-opacity:1;stroke-dasharray:none;stroke-dashoffset:0"
       sodipodi:type="arc" />
    <path
       sodipodi:type="arc"
       style="fill:none;stroke:#ff0000;stroke-width:2;stroke-linecap:butt;stroke-linejoin:miter;stroke-miterlimit:4;stroke-opacity:1;stroke-dasharray:none;stroke-dashoffset:0"
       id="path4134"
       sodipodi:cx="861.09088"
       sodipodi:cy="315.38559"
       sodipodi:rx="13.642633"
       sodipodi:ry="13.642633"
       d="M 874.73351,315.38559 A 13.642633,13.642633 0 1 1 847.44825,315.38559 A 13.642633,13.642633 0 1 1 874.73351,315.38559 z"
       transform="translate(-192.60196,-184.57691)"
       game_data="object=hole" />
    <path
       sodipodi:type="arc"
       style="fill:none;stroke:#ff0000;stroke-width:2;stroke-linecap:butt;stroke-linejoin:miter;stroke-miterlimit:4;stroke-opacity:1;stroke-dasharray:none;stroke-dashoffset:0"
       id="path4136"
       sodipodi:cx="861.09088"
       sodipodi:cy="315.38559"
       sodipodi:rx="13.642633"
       sodipodi:ry="13.642633"
       d="M 874.73351,315.38559 A 13.642633,13.642633 0 1 1 847.44825,315.38559 A 13.642633,13.642633 0 1 1 874.73351,315.38559 z"
       transform="translate(65.80556,301.74282)"
       game_data="object=hole" />
    <path
       game_data="object=hole"
       transform="translate(-133.21638,414.09392)"
       d="M 874.73351,315.38559 A 13.642633,13.642633 0 1 1 847.44825,315.38559 A 13.642633,13.642633 0 1 1 874.73351,315.38559 z"
       sodipodi:ry="13.642633"
       sodipodi:rx="13.642633"
       sodipodi:cy="315.38559"
       sodipodi:cx="861.09088"
       id="path4138"
       style="fill:none;stroke:#ff0000;stroke-width:2;stroke-linecap:butt;stroke-linejoin:miter;stroke-miterlimit:4;stroke-opacity:1;stroke-dasharray:none;stroke-dashoffset:0"
       sodipodi:type="arc" />
    <path
       sodipodi:type="arc"
       style="fill:none;stroke:#ff0000;stroke-width:2;stroke-linecap:butt;stroke-linejoin:miter;stroke-miterlimit:4;stroke-opacity:1;stroke-dasharray:none;stroke-dashoffset:0"
       id="path4140"
       sodipodi:cx="861.09088"
       sodipodi:cy="315.38559"
       sodipodi:rx="13.642633"
       sodipodi:ry="13.642633"
       d="M 874.73351,315.38559 A 13.642633,13.642633 0 1 1 847.44825,315.38559 A 13.642633,13.642633 0 1 1 874.73351,315.38559 z"
       transform="translate(-409.27907,571.38545)"
       game_data="object=hole" />
    <path
       sodipodi:type="arc"
       style="fill:none;stroke:#ff0000;stroke-width:2;stroke-linecap:butt;stroke-linejoin:miter;stroke-miterlimit:4;stroke-opacity:1;stroke-dasharray:none;stroke-dashoffset:0"
       id="path4142"
       sodipodi:cx="937.32916"
       sodipodi:cy="1232.652"
       sodipodi:rx="25.68025"
       sodipodi:ry="25.68025"
       d="M 963.00941,1232.652 A 25.68025,25.68025 0 1 1 911.64891,1232.652 A 25.68025,25.68025 0 1 1 963.00941,1232.652 z"
       transform="matrix(0.5,0,0,0.5,17.65517,19.26018)"
       game_data="object=jump" />
    <path
       game_data="object=jump"
       transform="matrix(0.5,0,0,0.5,-348.2884,-430.14421)"
       d="M 963.00941,1232.652 A 25.68025,25.68025 0 1 1 911.64891,1232.652 A 25.68025,25.68025 0 1 1 963.00941,1232.652 z"
       sodipodi:ry="25.68025"
       sodipodi:rx="25.68025"
       sodipodi:cy="1232.652"
       sodipodi:cx="937.32916"
       id="path4144"
       style="fill:none;stroke:#ff0000;stroke-width:2;stroke-linecap:butt;stroke-linejoin:miter;stroke-miterlimit:4;stroke-opacity:1;stroke-dasharray:none;stroke-dashoffset:0"
       sodipodi:type="arc" />
    <path
       sodipodi:type="arc"
       style="fill:none;stroke:#ff0000;stroke-width:2;stroke-linecap:butt;stroke-linejoin:miter;stroke-miterlimit:4;stroke-opacity:1;stroke-dasharray:none;stroke-dashoffset:0"
       id="path4146"
       sodipodi:cx="937.32916"
       sodipodi:cy="1232.652"
       sodipodi:rx="25.68025"
       sodipodi:ry="25.68025"
       d="M 963.00941,1232.652 A 25.68025,25.68025 0 1 1 911.64891,1232.652 A 25.68025,25.68025 0 1 1 963.00941,1232.652 z"
       transform="matrix(0.5,0,0,0.5,330.63323,229.51723)"
       game_data="object=jump" />
  </g>
</svg>
