<?xml version="1.0" encoding="UTF-8" standalone="no"?>
<!-- Created with Inkscape (http://www.inkscape.org/) -->

<svg
   xmlns:dc="http://purl.org/dc/elements/1.1/"
   xmlns:cc="http://creativecommons.org/ns#"
   xmlns:rdf="http://www.w3.org/1999/02/22-rdf-syntax-ns#"
   xmlns:svg="http://www.w3.org/2000/svg"
   xmlns="http://www.w3.org/2000/svg"
   xmlns:xlink="http://www.w3.org/1999/xlink"
   xmlns:sodipodi="http://sodipodi.sourceforge.net/DTD/sodipodi-0.dtd"
   xmlns:inkscape="http://www.inkscape.org/namespaces/inkscape"
   width="2048"
   height="2048"
   id="svg2"
   version="1.1"
   inkscape:version="0.48.0 r9654"
   sodipodi:docname="level27.svg"
   inkscape:export-filename="/Users/pawel/projects/iphone/StickyET_LSVG32/Resources/backgrounds/level14.png"
   inkscape:export-xdpi="90"
   inkscape:export-ydpi="90"
   game_config="gravity_x=0.0,gravity_y=-1.0">
  <defs
     id="defs4">
    <inkscape:path-effect
       effect="spiro"
       id="path-effect3888"
       is_visible="true" />
  </defs>
  <sodipodi:namedview
     id="base"
     pagecolor="#ffffff"
     bordercolor="#666666"
     borderopacity="1.0"
     inkscape:pageopacity="0.0"
     inkscape:pageshadow="2"
     inkscape:zoom="0.31152344"
     inkscape:cx="1294.1423"
     inkscape:cy="1115.0483"
     inkscape:document-units="px"
     inkscape:current-layer="layer1"
     showgrid="false"
     inkscape:window-width="1436"
     inkscape:window-height="856"
     inkscape:window-x="0"
     inkscape:window-y="0"
     inkscape:window-maximized="0"
     showguides="true"
     inkscape:guide-bbox="true" />
  <metadata
     id="metadata7">
    <rdf:RDF>
      <cc:Work
         rdf:about="">
        <dc:format>image/svg+xml</dc:format>
        <dc:type
           rdf:resource="http://purl.org/dc/dcmitype/StillImage" />
        <dc:title />
      </cc:Work>
    </rdf:RDF>
  </metadata>
  <g
     inkscape:label="graphics"
     inkscape:groupmode="layer"
     id="layer1"
     transform="translate(0,995.63782)"
     style="display:inline"
     sodipodi:insensitive="true">
    <image
       style="display:inline"
       y="-1024"
       x="0"
       id="image3080"
       xlink:href="file:///Users/pawel/Downloads/firehdtiles/bg-hd.jpg"
       height="2048"
       width="2048"
       transform="translate(0,28.36218)" />
    <image
       style="display:inline"
       y="206.99927"
       x="1032.7664"
       id="image3204"
       xlink:href="file:///Users/pawel/Downloads/firehdtiles/cloud-2-hd.png"
       height="120"
       width="513" />
    <image
       transform="scale(-1,1)"
       style="display:inline"
       y="162.38028"
       x="-2004.2811"
       id="image3266"
       xlink:href="file:///Users/pawel/Downloads/firehdtiles/cloud-3-hd.png"
       height="182"
       width="740" />
    <image
       style="display:inline"
       y="-493.24011"
       x="-282.76331"
       id="image3678"
       xlink:href="file:///Users/pawel/Downloads/firehdtiles/rock-5-hd.png"
       height="77"
       width="224"
       transform="matrix(-0.34992724,0.93677688,-0.93677688,-0.34992724,0,0)" />
    <image
       style="display:inline"
       y="-704.47815"
       x="-436.95749"
       id="image3740"
       xlink:href="file:///Users/pawel/Downloads/firehdtiles/rock-6-hd.png"
       height="131"
       width="245"
       transform="matrix(-0.29794795,0.95458212,-0.95458212,-0.29794795,0,0)" />
    <image
       style="display:inline"
       y="-261.44385"
       x="7.031497"
       id="image3850"
       xlink:href="file:///Users/pawel/Downloads/firehdtiles/rock-7-hd.png"
       height="78"
       width="184"
       transform="matrix(0,1,-1,0,0,0)" />
    <image
       width="293"
       height="308"
       xlink:href="file:///Users/pawel/Downloads/firehdtiles/rock-4-hd.png"
       id="image3015"
       x="1822.1962"
       y="-164.22664"
       style="display:inline"
       transform="matrix(0.94482595,-0.32757278,0.32757278,0.94482595,0,0)" />
    <image
       width="427"
       height="195"
       xlink:href="file:///Users/pawel/Downloads/firehdtiles/rock-3-hd.png"
       id="image3017"
       x="-754.56189"
       y="-1990.5424"
       style="display:inline"
       transform="matrix(0,1,-1,0,0,0)" />
    <image
       width="293"
       height="308"
       xlink:href="file:///Users/pawel/Downloads/firehdtiles/rock-4-hd.png"
       id="image3019"
       x="-1297.011"
       y="-1073.7177"
       style="display:inline"
       transform="matrix(-0.93912183,-0.34358431,-0.34358431,0.93912183,0,0)" />
    <image
       transform="matrix(0.34067724,0.94018031,-0.93804646,0.34650951,0,0)"
       style="display:inline"
       y="-1226.8513"
       x="-37.661415"
       id="image3021"
       xlink:href="file:///Users/pawel/Downloads/firehdtiles/rock-4-hd.png"
       height="258.09274"
       width="247.33485" />
    <image
       width="740"
       height="182"
       xlink:href="file:///Users/pawel/Downloads/firehdtiles/cloud-3-hd.png"
       id="image3023"
       x="-1141.7438"
       y="166.91994"
       style="display:inline"
       transform="scale(-1,1)" />
    <image
       transform="matrix(-0.94879973,0.31587827,0.31587827,0.94879973,0,0)"
       style="display:inline"
       y="400.23779"
       x="-1359.5544"
       id="image3025"
       xlink:href="file:///Users/pawel/Downloads/firehdtiles/cloud-3-hd.png"
       height="182"
       width="740" />
    <image
       width="740"
       height="182"
       xlink:href="file:///Users/pawel/Downloads/firehdtiles/cloud-3-hd.png"
       id="image3027"
       x="-1546.9065"
       y="-76.279854"
       style="display:inline"
       transform="matrix(-0.94879973,-0.31587827,0.31587827,-0.94879973,0,0)" />
    <image
       width="740"
       height="182"
       xlink:href="file:///Users/pawel/Downloads/firehdtiles/cloud-3-hd.png"
       id="image3029"
       x="-1670.1898"
       y="515.15796"
       style="display:inline"
       transform="matrix(-0.90475133,0.42594018,0.42594018,0.90475133,0,0)" />
    <image
       transform="matrix(-0.87495263,-0.48420852,0.48420852,-0.87495263,0,0)"
       style="display:inline"
       y="117.79866"
       x="-1748.7291"
       id="image3031"
       xlink:href="file:///Users/pawel/Downloads/firehdtiles/cloud-3-hd.png"
       height="182"
       width="740" />
  </g>
  <g
     inkscape:groupmode="layer"
     id="layer2"
     inkscape:label="physics:static"
     style="display:inline"
     transform="translate(0,1024)"
     sodipodi:insensitive="true">
    <path
       style="fill:none;stroke:#00ff00;stroke-width:7.65854406px;stroke-linecap:butt;stroke-linejoin:miter;stroke-opacity:1"
       d="M 92.03434,-980.17071 L 2004.1706,-980.17071 L 2004.1706,1180.1706 L 43.82928,1180.1706 L 43.82928,-980.17071 z"
       id="path3735"
       inkscape:connector-curvature="0" />
    <rect
       style="color:#000000;fill:none;stroke:#00ff00;stroke-width:1.13587773;stroke-linecap:butt;stroke-linejoin:miter;stroke-miterlimit:4;stroke-opacity:1;stroke-dasharray:none;stroke-dashoffset:0;marker:none;visibility:visible;display:inline;overflow:visible;enable-background:accumulate"
       id="rect3885"
       width="2006.8643"
       height="0.86412221"
       x="27.341797"
       y="1142.5676"
       game_data="object=worldboundary" />
    <path
       sodipodi:type="arc"
       style="fill:none;stroke:#ff0000;stroke-width:2;stroke-linecap:butt;stroke-linejoin:miter;stroke-miterlimit:4;stroke-opacity:1;stroke-dasharray:none;stroke-dashoffset:0"
       id="path3174"
       sodipodi:cx="546.43311"
       sodipodi:cy="230.31721"
       sodipodi:rx="18.063904"
       sodipodi:ry="14.676922"
       d="M 564.49701,230.31721 A 18.063904,14.676922 0 1 1 528.3692,230.31721 A 18.063904,14.676922 0 1 1 564.49701,230.31721 z"
       game_data="object=stickyhero"
       transform="matrix(2,0,0,2.4734546,743.08428,-1415.4414)" />
    <path
       sodipodi:type="arc"
       style="fill:none;stroke:#ff0000;stroke-width:2;stroke-linecap:butt;stroke-linejoin:miter;stroke-miterlimit:4;stroke-opacity:1;stroke-dasharray:none;stroke-dashoffset:0"
       id="path3944"
       sodipodi:cx="545.86859"
       sodipodi:cy="576.35388"
       sodipodi:rx="16.370413"
       sodipodi:ry="14.112425"
       d="M 562.239,576.35388 A 16.370413,14.112425 0 1 1 529.49818,576.35388 A 16.370413,14.112425 0 1 1 562.239,576.35388 z"
       game_data="object=portal"
       transform="matrix(2,0,0,2,-964.69783,-930.16471)" />
    <path
       sodipodi:type="arc"
       style="fill:none;stroke:#ff0000;stroke-width:2;stroke-linecap:butt;stroke-linejoin:miter;stroke-miterlimit:4;stroke-opacity:1;stroke-dasharray:none;stroke-dashoffset:0"
       id="path3948"
       sodipodi:cx="59.836681"
       sodipodi:cy="137.73972"
       sodipodi:rx="11.28994"
       sodipodi:ry="10.160946"
       d="M 71.126621,137.73972 A 11.28994,10.160946 0 1 1 48.546741,137.73972 A 11.28994,10.160946 0 1 1 71.126621,137.73972 z"
       game_data="object=star"
       transform="matrix(2,0,0,2,1506.5648,410.83622)" />
    <path
       sodipodi:type="arc"
       style="fill:none;stroke:#ff0000;stroke-width:2;stroke-linecap:butt;stroke-linejoin:miter;stroke-miterlimit:4;stroke-opacity:1;stroke-dasharray:none;stroke-dashoffset:0"
       id="path3950"
       sodipodi:cx="972.62836"
       sodipodi:cy="165.40007"
       sodipodi:rx="9.5964489"
       sodipodi:ry="9.5964489"
       d="M 982.22481,165.40007 A 9.5964489,9.5964489 0 1 1 963.03191,165.40007 A 9.5964489,9.5964489 0 1 1 982.22481,165.40007 z"
       game_data="object=star"
       transform="matrix(2.4512,0,0,2.1176574,-1130.956,307.17953)" />
    <path
       sodipodi:type="arc"
       style="fill:none;stroke:#ff0000;stroke-width:2;stroke-linecap:butt;stroke-linejoin:miter;stroke-miterlimit:4;stroke-opacity:1;stroke-dasharray:none;stroke-dashoffset:0"
       id="path3150"
       sodipodi:cx="113.36134"
       sodipodi:cy="457.1933"
       sodipodi:rx="9.5798321"
       sodipodi:ry="11.176471"
       d="M 122.94118,457.1933 A 9.5798321,11.176471 0 1 1 103.78151,457.1933 A 9.5798321,11.176471 0 1 1 122.94118,457.1933 z"
       game_data="object=star"
       transform="matrix(2.7875642,0,0,2.0657836,293.52993,-397.09016)" />
    <path
       sodipodi:type="arc"
       style="fill:none;stroke:#ff0000;stroke-width:2;stroke-linecap:butt;stroke-linejoin:miter;stroke-miterlimit:4;stroke-opacity:1;stroke-dasharray:none;stroke-dashoffset:0"
       id="path3947"
       sodipodi:cx="130.80878"
       sodipodi:cy="472.67712"
       sodipodi:rx="10.432602"
       sodipodi:ry="12.037618"
       d="M 141.24138,472.67712 A 10.432602,12.037618 0 1 1 120.37617,472.67712 A 10.432602,12.037618 0 1 1 141.24138,472.67712 z"
       transform="matrix(2.1533954,0,0,1.8662761,583.45195,-814.54649)"
       game_data="object=flyingenemy,objectParams=patrolTime:2;patrolSpeed:2" />
    <path
       sodipodi:type="arc"
       style="fill:none;stroke:#ff0000;stroke-width:2;stroke-linecap:butt;stroke-linejoin:miter;stroke-miterlimit:4;stroke-opacity:1;stroke-dasharray:none;stroke-dashoffset:0"
       id="path4005"
       sodipodi:cx="861.09088"
       sodipodi:cy="315.38559"
       sodipodi:rx="13.642633"
       sodipodi:ry="13.642633"
       d="M 874.73351,315.38559 A 13.642633,13.642633 0 1 1 847.44825,315.38559 A 13.642633,13.642633 0 1 1 874.73351,315.38559 z"
       transform="matrix(2,0,0,2,-983.57638,-159.16545)"
       game_data="object=hole" />
    <path
       sodipodi:type="arc"
       style="fill:none;stroke:#00ff00;stroke-width:2;stroke-linecap:butt;stroke-linejoin:miter;stroke-miterlimit:4;stroke-opacity:1;stroke-dasharray:none;stroke-dashoffset:0;display:inline"
       id="path4092"
       sodipodi:cx="231.12225"
       sodipodi:cy="227.10971"
       sodipodi:rx="33.70533"
       sodipodi:ry="29.692789"
       d="M 264.82758,227.10971 A 33.70533,29.692789 0 1 1 197.41692,227.10971 A 33.70533,29.692789 0 1 1 264.82758,227.10971 z"
       transform="matrix(3.5481701,0,0,3.4832704,1023.9991,-1464.8882)"
       game_data="object=stickable" />
    <path
       game_data="object=hole"
       transform="matrix(2,0,0,2,-986.39227,-39.080937)"
       d="M 874.73351,315.38559 A 13.642633,13.642633 0 1 1 847.44825,315.38559 A 13.642633,13.642633 0 1 1 874.73351,315.38559 z"
       sodipodi:ry="13.642633"
       sodipodi:rx="13.642633"
       sodipodi:cy="315.38559"
       sodipodi:cx="861.09088"
       id="path4132"
       style="fill:none;stroke:#ff0000;stroke-width:2;stroke-linecap:butt;stroke-linejoin:miter;stroke-miterlimit:4;stroke-opacity:1;stroke-dasharray:none;stroke-dashoffset:0"
       sodipodi:type="arc" />
    <path
       sodipodi:type="arc"
       style="fill:none;stroke:#ff0000;stroke-width:2;stroke-linecap:butt;stroke-linejoin:miter;stroke-miterlimit:4;stroke-opacity:1;stroke-dasharray:none;stroke-dashoffset:0"
       id="path4134"
       sodipodi:cx="861.09088"
       sodipodi:cy="315.38559"
       sodipodi:rx="13.642633"
       sodipodi:ry="13.642633"
       d="M 874.73351,315.38559 A 13.642633,13.642633 0 1 1 847.44825,315.38559 A 13.642633,13.642633 0 1 1 874.73351,315.38559 z"
       transform="matrix(2,0,0,2,155.01671,77.699147)"
       game_data="object=hole" />
    <path
       sodipodi:type="arc"
       style="fill:none;stroke:#ff0000;stroke-width:2;stroke-linecap:butt;stroke-linejoin:miter;stroke-miterlimit:4;stroke-opacity:1;stroke-dasharray:none;stroke-dashoffset:0"
       id="path4136"
       sodipodi:cx="861.09088"
       sodipodi:cy="315.38559"
       sodipodi:rx="13.642633"
       sodipodi:ry="13.642633"
       d="M 874.73351,315.38559 A 13.642633,13.642633 0 1 1 847.44825,315.38559 A 13.642633,13.642633 0 1 1 874.73351,315.38559 z"
       transform="matrix(2,0,0,2,-1493.5906,-275.2449)"
       game_data="object=hole" />
    <path
       game_data="object=hole"
       transform="matrix(2,0,0,2,-1237.9221,-100.47904)"
       d="M 874.73351,315.38559 A 13.642633,13.642633 0 1 1 847.44825,315.38559 A 13.642633,13.642633 0 1 1 874.73351,315.38559 z"
       sodipodi:ry="13.642633"
       sodipodi:rx="13.642633"
       sodipodi:cy="315.38559"
       sodipodi:cx="861.09088"
       id="path4138"
       style="fill:none;stroke:#ff0000;stroke-width:2;stroke-linecap:butt;stroke-linejoin:miter;stroke-miterlimit:4;stroke-opacity:1;stroke-dasharray:none;stroke-dashoffset:0"
       sodipodi:type="arc" />
    <path
       sodipodi:type="arc"
       style="fill:none;stroke:#ff0000;stroke-width:2;stroke-linecap:butt;stroke-linejoin:miter;stroke-miterlimit:4;stroke-opacity:1;stroke-dasharray:none;stroke-dashoffset:0"
       id="path4140"
       sodipodi:cx="861.09088"
       sodipodi:cy="315.38559"
       sodipodi:rx="13.642633"
       sodipodi:ry="13.642633"
       d="M 874.73351,315.38559 A 13.642633,13.642633 0 1 1 847.44825,315.38559 A 13.642633,13.642633 0 1 1 874.73351,315.38559 z"
       transform="matrix(2,0,0,2,-1236.2076,-212.62501)"
       game_data="object=hole" />
    <path
       sodipodi:type="arc"
       style="fill:none;stroke:#ff0000;stroke-width:2;stroke-linecap:butt;stroke-linejoin:miter;stroke-miterlimit:4;stroke-opacity:1;stroke-dasharray:none;stroke-dashoffset:0"
       id="path4142"
       sodipodi:cx="937.32916"
       sodipodi:cy="1232.652"
       sodipodi:rx="25.68025"
       sodipodi:ry="25.68025"
       d="M 963.00941,1232.652 A 25.68025,25.68025 0 1 1 911.64891,1232.652 A 25.68025,25.68025 0 1 1 963.00941,1232.652 z"
       transform="translate(707.18145,-1752.6838)"
       game_data="object=jump" />
    <path
       game_data="object=jump"
       transform="translate(293.07129,-1552.8925)"
       d="M 963.00941,1232.652 A 25.68025,25.68025 0 1 1 911.64891,1232.652 A 25.68025,25.68025 0 1 1 963.00941,1232.652 z"
       sodipodi:ry="25.68025"
       sodipodi:rx="25.68025"
       sodipodi:cy="1232.652"
       sodipodi:cx="937.32916"
       id="path4144"
       style="fill:none;stroke:#ff0000;stroke-width:2;stroke-linecap:butt;stroke-linejoin:miter;stroke-miterlimit:4;stroke-opacity:1;stroke-dasharray:none;stroke-dashoffset:0"
       sodipodi:type="arc" />
    <path
       sodipodi:type="arc"
       style="fill:none;stroke:#ff0000;stroke-width:2;stroke-linecap:butt;stroke-linejoin:miter;stroke-miterlimit:4;stroke-opacity:1;stroke-dasharray:none;stroke-dashoffset:0"
       id="path4146"
       sodipodi:cx="937.32916"
       sodipodi:cy="1232.652"
       sodipodi:rx="25.68025"
       sodipodi:ry="25.68025"
       d="M 963.00941,1232.652 A 25.68025,25.68025 0 1 1 911.64891,1232.652 A 25.68025,25.68025 0 1 1 963.00941,1232.652 z"
       transform="translate(316.25156,-678.45728)"
       game_data="object=jump" />
    <path
       sodipodi:type="arc"
       style="fill:none;stroke:#ff0000;stroke-width:2;stroke-linecap:butt;stroke-linejoin:miter;stroke-miterlimit:4;stroke-opacity:1;stroke-dasharray:none;stroke-dashoffset:0"
       id="path3026"
       sodipodi:cx="-1137.1873"
       sodipodi:cy="967.55859"
       sodipodi:rx="179.31696"
       sodipodi:ry="163.42812"
       d="M -957.8703,967.55859 A 179.31696,163.42812 0 1 1 -1316.5042,967.55859 A 179.31696,163.42812 0 1 1 -957.8703,967.55859 z"
       transform="matrix(0.67655683,0,0,0.68726308,1031.1016,-1341.8518)"
       game_data="object=spinner" />
    <path
       game_data="object=hole"
       transform="matrix(2,0,0,2,-671.20321,-90.268595)"
       d="M 874.73351,315.38559 A 13.642633,13.642633 0 1 1 847.44825,315.38559 A 13.642633,13.642633 0 1 1 874.73351,315.38559 z"
       sodipodi:ry="13.642633"
       sodipodi:rx="13.642633"
       sodipodi:cy="315.38559"
       sodipodi:cx="861.09088"
       id="path3044"
       style="fill:none;stroke:#ff0000;stroke-width:2;stroke-linecap:butt;stroke-linejoin:miter;stroke-miterlimit:4;stroke-opacity:1;stroke-dasharray:none;stroke-dashoffset:0"
       sodipodi:type="arc" />
    <path
       game_data="object=hole"
       transform="matrix(2,0,0,2,-616.72719,27.762798)"
       d="M 874.73351,315.38559 A 13.642633,13.642633 0 1 1 847.44825,315.38559 A 13.642633,13.642633 0 1 1 874.73351,315.38559 z"
       sodipodi:ry="13.642633"
       sodipodi:rx="13.642633"
       sodipodi:cy="315.38559"
       sodipodi:cx="861.09088"
       id="path3046"
       style="fill:none;stroke:#ff0000;stroke-width:2;stroke-linecap:butt;stroke-linejoin:miter;stroke-miterlimit:4;stroke-opacity:1;stroke-dasharray:none;stroke-dashoffset:0"
       sodipodi:type="arc" />
    <path
       game_data="object=hole"
       transform="matrix(2,0,0,2,-217.61721,86.778508)"
       d="M 874.73351,315.38559 A 13.642633,13.642633 0 1 1 847.44825,315.38559 A 13.642633,13.642633 0 1 1 874.73351,315.38559 z"
       sodipodi:ry="13.642633"
       sodipodi:rx="13.642633"
       sodipodi:cy="315.38559"
       sodipodi:cx="861.09088"
       id="path3048"
       style="fill:none;stroke:#ff0000;stroke-width:2;stroke-linecap:butt;stroke-linejoin:miter;stroke-miterlimit:4;stroke-opacity:1;stroke-dasharray:none;stroke-dashoffset:0"
       sodipodi:type="arc" />
    <path
       game_data="object=hole"
       transform="matrix(2,0,0,2,-344.34693,86.778496)"
       d="M 874.73351,315.38559 A 13.642633,13.642633 0 1 1 847.44825,315.38559 A 13.642633,13.642633 0 1 1 874.73351,315.38559 z"
       sodipodi:ry="13.642633"
       sodipodi:rx="13.642633"
       sodipodi:cy="315.38559"
       sodipodi:cx="861.09088"
       id="path3050"
       style="fill:none;stroke:#ff0000;stroke-width:2;stroke-linecap:butt;stroke-linejoin:miter;stroke-miterlimit:4;stroke-opacity:1;stroke-dasharray:none;stroke-dashoffset:0"
       sodipodi:type="arc" />
    <path
       game_data="object=hole"
       transform="matrix(2,0,0,2,-721.13955,27.762779)"
       d="M 874.73351,315.38559 A 13.642633,13.642633 0 1 1 847.44825,315.38559 A 13.642633,13.642633 0 1 1 874.73351,315.38559 z"
       sodipodi:ry="13.642633"
       sodipodi:rx="13.642633"
       sodipodi:cy="315.38559"
       sodipodi:cx="861.09088"
       id="path3052"
       style="fill:none;stroke:#ff0000;stroke-width:2;stroke-linecap:butt;stroke-linejoin:miter;stroke-miterlimit:4;stroke-opacity:1;stroke-dasharray:none;stroke-dashoffset:0"
       sodipodi:type="arc" />
    <path
       game_data="object=hole"
       transform="matrix(2,0,0,2,100.54071,213.88923)"
       d="M 874.73351,315.38559 A 13.642633,13.642633 0 1 1 847.44825,315.38559 A 13.642633,13.642633 0 1 1 874.73351,315.38559 z"
       sodipodi:ry="13.642633"
       sodipodi:rx="13.642633"
       sodipodi:cy="315.38559"
       sodipodi:cx="861.09088"
       id="path3054"
       style="fill:none;stroke:#ff0000;stroke-width:2;stroke-linecap:butt;stroke-linejoin:miter;stroke-miterlimit:4;stroke-opacity:1;stroke-dasharray:none;stroke-dashoffset:0"
       sodipodi:type="arc" />
    <path
       game_data="object=hole"
       transform="matrix(2,0,0,2,-17.490732,213.88927)"
       d="M 874.73351,315.38559 A 13.642633,13.642633 0 1 1 847.44825,315.38559 A 13.642633,13.642633 0 1 1 874.73351,315.38559 z"
       sodipodi:ry="13.642633"
       sodipodi:rx="13.642633"
       sodipodi:cy="315.38559"
       sodipodi:cx="861.09088"
       id="path3056"
       style="fill:none;stroke:#ff0000;stroke-width:2;stroke-linecap:butt;stroke-linejoin:miter;stroke-miterlimit:4;stroke-opacity:1;stroke-dasharray:none;stroke-dashoffset:0"
       sodipodi:type="arc" />
    <path
       game_data="object=hole"
       transform="matrix(2,0,0,2,23.36631,73.159507)"
       d="M 874.73351,315.38559 A 13.642633,13.642633 0 1 1 847.44825,315.38559 A 13.642633,13.642633 0 1 1 874.73351,315.38559 z"
       sodipodi:ry="13.642633"
       sodipodi:rx="13.642633"
       sodipodi:cy="315.38559"
       sodipodi:cx="861.09088"
       id="path3058"
       style="fill:none;stroke:#ff0000;stroke-width:2;stroke-linecap:butt;stroke-linejoin:miter;stroke-miterlimit:4;stroke-opacity:1;stroke-dasharray:none;stroke-dashoffset:0"
       sodipodi:type="arc" />
    <path
       game_data="object=hole"
       transform="matrix(2,0,0,2,218.57212,212.27023)"
       d="M 874.73351,315.38559 A 13.642633,13.642633 0 1 1 847.44825,315.38559 A 13.642633,13.642633 0 1 1 874.73351,315.38559 z"
       sodipodi:ry="13.642633"
       sodipodi:rx="13.642633"
       sodipodi:cy="315.38559"
       sodipodi:cx="861.09088"
       id="path3060"
       style="fill:none;stroke:#ff0000;stroke-width:2;stroke-linecap:butt;stroke-linejoin:miter;stroke-miterlimit:4;stroke-opacity:1;stroke-dasharray:none;stroke-dashoffset:0"
       sodipodi:type="arc" />
    <path
       game_data="object=hole"
       transform="matrix(2,0,0,2,-285.33126,-40.332268)"
       d="M 874.73351,315.38559 A 13.642633,13.642633 0 1 1 847.44825,315.38559 A 13.642633,13.642633 0 1 1 874.73351,315.38559 z"
       sodipodi:ry="13.642633"
       sodipodi:rx="13.642633"
       sodipodi:cy="315.38559"
       sodipodi:cx="861.09088"
       id="path3062"
       style="fill:none;stroke:#ff0000;stroke-width:2;stroke-linecap:butt;stroke-linejoin:miter;stroke-miterlimit:4;stroke-opacity:1;stroke-dasharray:none;stroke-dashoffset:0"
       sodipodi:type="arc" />
    <path
       game_data="object=hole"
       transform="matrix(2,0,0,2,82.381966,-67.570302)"
       d="M 874.73351,315.38559 A 13.642633,13.642633 0 1 1 847.44825,315.38559 A 13.642633,13.642633 0 1 1 874.73351,315.38559 z"
       sodipodi:ry="13.642633"
       sodipodi:rx="13.642633"
       sodipodi:cy="315.38559"
       sodipodi:cx="861.09088"
       id="path3064"
       style="fill:none;stroke:#ff0000;stroke-width:2;stroke-linecap:butt;stroke-linejoin:miter;stroke-miterlimit:4;stroke-opacity:1;stroke-dasharray:none;stroke-dashoffset:0"
       sodipodi:type="arc" />
    <path
       game_data="object=jump"
       transform="translate(688.50448,-642.13992)"
       d="M 963.00941,1232.652 A 25.68025,25.68025 0 1 1 911.64891,1232.652 A 25.68025,25.68025 0 1 1 963.00941,1232.652 z"
       sodipodi:ry="25.68025"
       sodipodi:rx="25.68025"
       sodipodi:cy="1232.652"
       sodipodi:cx="937.32916"
       id="path3066"
       style="fill:none;stroke:#ff0000;stroke-width:2;stroke-linecap:butt;stroke-linejoin:miter;stroke-miterlimit:4;stroke-opacity:1;stroke-dasharray:none;stroke-dashoffset:0"
       sodipodi:type="arc" />
    <path
       game_data="object=jump"
       transform="translate(-323.84188,-778.33002)"
       d="M 963.00941,1232.652 A 25.68025,25.68025 0 1 1 911.64891,1232.652 A 25.68025,25.68025 0 1 1 963.00941,1232.652 z"
       sodipodi:ry="25.68025"
       sodipodi:rx="25.68025"
       sodipodi:cy="1232.652"
       sodipodi:cx="937.32916"
       id="path3068"
       style="fill:none;stroke:#ff0000;stroke-width:2;stroke-linecap:butt;stroke-linejoin:miter;stroke-miterlimit:4;stroke-opacity:1;stroke-dasharray:none;stroke-dashoffset:0"
       sodipodi:type="arc" />
    <path
       sodipodi:type="arc"
       style="fill:none;stroke:#ff0000;stroke-width:2;stroke-linecap:butt;stroke-linejoin:miter;stroke-miterlimit:4;stroke-opacity:1;stroke-dasharray:none;stroke-dashoffset:0"
       id="path3070"
       sodipodi:cx="937.32916"
       sodipodi:cy="1232.652"
       sodipodi:rx="25.68025"
       sodipodi:ry="25.68025"
       d="M 963.00941,1232.652 A 25.68025,25.68025 0 1 1 911.64891,1232.652 A 25.68025,25.68025 0 1 1 963.00941,1232.652 z"
       transform="translate(-83.239382,-1404.8044)"
       game_data="object=jump" />
    <path
       game_data="object=jump"
       transform="translate(-360.15924,-1291.3127)"
       d="M 963.00941,1232.652 A 25.68025,25.68025 0 1 1 911.64891,1232.652 A 25.68025,25.68025 0 1 1 963.00941,1232.652 z"
       sodipodi:ry="25.68025"
       sodipodi:rx="25.68025"
       sodipodi:cy="1232.652"
       sodipodi:cx="937.32916"
       id="path3072"
       style="fill:none;stroke:#ff0000;stroke-width:2;stroke-linecap:butt;stroke-linejoin:miter;stroke-miterlimit:4;stroke-opacity:1;stroke-dasharray:none;stroke-dashoffset:0"
       sodipodi:type="arc" />
    <path
       game_data="object=stickable"
       transform="matrix(1.7813176,0,0,1.7834299,1466.4056,-917.67969)"
       d="M 264.82758,227.10971 A 33.70533,29.692789 0 1 1 197.41692,227.10971 A 33.70533,29.692789 0 1 1 264.82758,227.10971 z"
       sodipodi:ry="29.692789"
       sodipodi:rx="33.70533"
       sodipodi:cy="227.10971"
       sodipodi:cx="231.12225"
       id="path3074"
       style="fill:none;stroke:#00ff00;stroke-width:2;stroke-linecap:butt;stroke-linejoin:miter;stroke-miterlimit:4;stroke-opacity:1;stroke-dasharray:none;stroke-dashoffset:0;display:inline"
       sodipodi:type="arc" />
    <path
       sodipodi:type="arc"
       style="fill:none;stroke:#00ff00;stroke-width:2;stroke-linecap:butt;stroke-linejoin:miter;stroke-miterlimit:4;stroke-opacity:1;stroke-dasharray:none;stroke-dashoffset:0;display:inline"
       id="path3076"
       sodipodi:cx="231.12225"
       sodipodi:cy="227.10971"
       sodipodi:rx="33.70533"
       sodipodi:ry="29.692789"
       d="M 264.82758,227.10971 A 33.70533,29.692789 0 1 1 197.41692,227.10971 A 33.70533,29.692789 0 1 1 264.82758,227.10971 z"
       transform="matrix(0.86811982,0,0,0.86494001,1672.9263,-617.25577)"
       game_data="object=stickable" />
    <path
       game_data="object=stickable"
       transform="matrix(0.54011939,0,0,0.60728115,1744.1949,-512.20733)"
       d="M 264.82758,227.10971 A 33.70533,29.692789 0 1 1 197.41692,227.10971 A 33.70533,29.692789 0 1 1 264.82758,227.10971 z"
       sodipodi:ry="29.692789"
       sodipodi:rx="33.70533"
       sodipodi:cy="227.10971"
       sodipodi:cx="231.12225"
       id="path3078"
       style="fill:none;stroke:#00ff00;stroke-width:2;stroke-linecap:butt;stroke-linejoin:miter;stroke-miterlimit:4;stroke-opacity:1;stroke-dasharray:none;stroke-dashoffset:0;display:inline"
       sodipodi:type="arc" />
    <path
       sodipodi:type="arc"
       style="fill:none;stroke:#00ff00;stroke-width:2;stroke-linecap:butt;stroke-linejoin:miter;stroke-miterlimit:4;stroke-opacity:1;stroke-dasharray:none;stroke-dashoffset:0;display:inline"
       id="path3080"
       sodipodi:cx="231.12225"
       sodipodi:cy="227.10971"
       sodipodi:rx="33.70533"
       sodipodi:ry="29.692789"
       d="M 264.82758,227.10971 A 33.70533,29.692789 0 1 1 197.41692,227.10971 A 33.70533,29.692789 0 1 1 264.82758,227.10971 z"
       transform="matrix(2.4683647,0,0,2.4486553,877.47999,-1084.6477)"
       game_data="object=stickable" />
    <path
       sodipodi:type="arc"
       style="fill:none;stroke:#00ff00;stroke-width:2;stroke-linecap:butt;stroke-linejoin:miter;stroke-miterlimit:4;stroke-opacity:1;stroke-dasharray:none;stroke-dashoffset:0;display:inline"
       id="path3082"
       sodipodi:cx="231.12225"
       sodipodi:cy="227.10971"
       sodipodi:rx="33.70533"
       sodipodi:ry="29.692789"
       d="M 264.82758,227.10971 A 33.70533,29.692789 0 1 1 197.41692,227.10971 A 33.70533,29.692789 0 1 1 264.82758,227.10971 z"
       transform="matrix(1.0605637,0,0,1.1563867,1231.2271,-681.07394)"
       game_data="object=stickable" />
    <path
       game_data="object=stickable"
       transform="matrix(0.86811982,0,0,0.86494001,1264.356,-546.89089)"
       d="M 264.82758,227.10971 A 33.70533,29.692789 0 1 1 197.41692,227.10971 A 33.70533,29.692789 0 1 1 264.82758,227.10971 z"
       sodipodi:ry="29.692789"
       sodipodi:rx="33.70533"
       sodipodi:cy="227.10971"
       sodipodi:cx="231.12225"
       id="path3084"
       style="fill:none;stroke:#00ff00;stroke-width:2;stroke-linecap:butt;stroke-linejoin:miter;stroke-miterlimit:4;stroke-opacity:1;stroke-dasharray:none;stroke-dashoffset:0;display:inline"
       sodipodi:type="arc" />
    <path
       sodipodi:type="arc"
       style="fill:none;stroke:#00ff00;stroke-width:2;stroke-linecap:butt;stroke-linejoin:miter;stroke-miterlimit:4;stroke-opacity:1;stroke-dasharray:none;stroke-dashoffset:0;display:inline"
       id="path3086"
       sodipodi:cx="231.12225"
       sodipodi:cy="227.10971"
       sodipodi:rx="33.70533"
       sodipodi:ry="29.692789"
       d="M 264.82758,227.10971 A 33.70533,29.692789 0 1 1 197.41692,227.10971 A 33.70533,29.692789 0 1 1 264.82758,227.10971 z"
       transform="matrix(0.54011939,0,0,0.60728115,1210.7837,-714.22263)"
       game_data="object=stickable" />
    <path
       game_data="object=stickable"
       transform="matrix(1.9107873,0,0,2.0068395,644.30988,-834.49794)"
       d="M 264.82758,227.10971 A 33.70533,29.692789 0 1 1 197.41692,227.10971 A 33.70533,29.692789 0 1 1 264.82758,227.10971 z"
       sodipodi:ry="29.692789"
       sodipodi:rx="33.70533"
       sodipodi:cy="227.10971"
       sodipodi:cx="231.12225"
       id="path3088"
       style="fill:none;stroke:#00ff00;stroke-width:2;stroke-linecap:butt;stroke-linejoin:miter;stroke-miterlimit:4;stroke-opacity:1;stroke-dasharray:none;stroke-dashoffset:0;display:inline"
       sodipodi:type="arc" />
    <path
       game_data="object=stickable"
       transform="matrix(1.0605637,0,0,1.1563867,731.86343,-651.56609)"
       d="M 264.82758,227.10971 A 33.70533,29.692789 0 1 1 197.41692,227.10971 A 33.70533,29.692789 0 1 1 264.82758,227.10971 z"
       sodipodi:ry="29.692789"
       sodipodi:rx="33.70533"
       sodipodi:cy="227.10971"
       sodipodi:cx="231.12225"
       id="path3090"
       style="fill:none;stroke:#00ff00;stroke-width:2;stroke-linecap:butt;stroke-linejoin:miter;stroke-miterlimit:4;stroke-opacity:1;stroke-dasharray:none;stroke-dashoffset:0;display:inline"
       sodipodi:type="arc" />
    <path
       sodipodi:type="arc"
       style="fill:none;stroke:#00ff00;stroke-width:2;stroke-linecap:butt;stroke-linejoin:miter;stroke-miterlimit:4;stroke-opacity:1;stroke-dasharray:none;stroke-dashoffset:0;display:inline"
       id="path3092"
       sodipodi:cx="231.12225"
       sodipodi:cy="227.10971"
       sodipodi:rx="33.70533"
       sodipodi:ry="29.692789"
       d="M 264.82758,227.10971 A 33.70533,29.692789 0 1 1 197.41692,227.10971 A 33.70533,29.692789 0 1 1 264.82758,227.10971 z"
       transform="matrix(0.63910436,0,0,0.73043882,971.13675,-443.38908)"
       game_data="object=stickable" />
    <path
       game_data="object=stickable"
       transform="matrix(1.3216824,0,0,1.4527917,399.1329,-503.24823)"
       d="M 264.82758,227.10971 A 33.70533,29.692789 0 1 1 197.41692,227.10971 A 33.70533,29.692789 0 1 1 264.82758,227.10971 z"
       sodipodi:ry="29.692789"
       sodipodi:rx="33.70533"
       sodipodi:cy="227.10971"
       sodipodi:cx="231.12225"
       id="path3094"
       style="fill:none;stroke:#00ff00;stroke-width:2;stroke-linecap:butt;stroke-linejoin:miter;stroke-miterlimit:4;stroke-opacity:1;stroke-dasharray:none;stroke-dashoffset:0;display:inline"
       sodipodi:type="arc" />
    <path
       game_data="object=stickable"
       transform="matrix(0.63910436,0,0,0.73043882,539.86812,-407.07172)"
       d="M 264.82758,227.10971 A 33.70533,29.692789 0 1 1 197.41692,227.10971 A 33.70533,29.692789 0 1 1 264.82758,227.10971 z"
       sodipodi:ry="29.692789"
       sodipodi:rx="33.70533"
       sodipodi:cy="227.10971"
       sodipodi:cx="231.12225"
       id="path3096"
       style="fill:none;stroke:#00ff00;stroke-width:2;stroke-linecap:butt;stroke-linejoin:miter;stroke-miterlimit:4;stroke-opacity:1;stroke-dasharray:none;stroke-dashoffset:0;display:inline"
       sodipodi:type="arc" />
    <path
       game_data="object=stickable"
       transform="matrix(0.96709081,0,0,0.98808182,486.76151,-319.1806)"
       d="M 264.82758,227.10971 A 33.70533,29.692789 0 1 1 197.41692,227.10971 A 33.70533,29.692789 0 1 1 264.82758,227.10971 z"
       sodipodi:ry="29.692789"
       sodipodi:rx="33.70533"
       sodipodi:cy="227.10971"
       sodipodi:cx="231.12225"
       id="path3098"
       style="fill:none;stroke:#00ff00;stroke-width:2;stroke-linecap:butt;stroke-linejoin:miter;stroke-miterlimit:4;stroke-opacity:1;stroke-dasharray:none;stroke-dashoffset:0;display:inline"
       sodipodi:type="arc" />
    <path
       sodipodi:type="arc"
       style="fill:none;stroke:#00ff00;stroke-width:2;stroke-linecap:butt;stroke-linejoin:miter;stroke-miterlimit:4;stroke-opacity:1;stroke-dasharray:none;stroke-dashoffset:0;display:inline"
       id="path3100"
       sodipodi:cx="231.12225"
       sodipodi:cy="227.10971"
       sodipodi:rx="33.70533"
       sodipodi:ry="29.692789"
       d="M 264.82758,227.10971 A 33.70533,29.692789 0 1 1 197.41692,227.10971 A 33.70533,29.692789 0 1 1 264.82758,227.10971 z"
       transform="matrix(0.54011939,0,0,0.60728115,593.38861,-178.5416)"
       game_data="object=stickable" />
    <path
       sodipodi:type="arc"
       style="fill:none;stroke:#00ff00;stroke-width:2;stroke-linecap:butt;stroke-linejoin:miter;stroke-miterlimit:4;stroke-opacity:1;stroke-dasharray:none;stroke-dashoffset:0;display:inline"
       id="path3102"
       sodipodi:cx="231.12225"
       sodipodi:cy="227.10971"
       sodipodi:rx="33.70533"
       sodipodi:ry="29.692789"
       d="M 264.82758,227.10971 A 33.70533,29.692789 0 1 1 197.41692,227.10971 A 33.70533,29.692789 0 1 1 264.82758,227.10971 z"
       transform="matrix(0.63910436,0,0,0.73043882,326.50364,-220.94526)"
       game_data="object=stickable" />
    <path
       game_data="object=stickable"
       transform="matrix(0.7038435,0,0,0.75490816,320.62041,-175.75177)"
       d="M 264.82758,227.10971 A 33.70533,29.692789 0 1 1 197.41692,227.10971 A 33.70533,29.692789 0 1 1 264.82758,227.10971 z"
       sodipodi:ry="29.692789"
       sodipodi:rx="33.70533"
       sodipodi:cy="227.10971"
       sodipodi:cx="231.12225"
       id="path3104"
       style="fill:none;stroke:#00ff00;stroke-width:2;stroke-linecap:butt;stroke-linejoin:miter;stroke-miterlimit:4;stroke-opacity:1;stroke-dasharray:none;stroke-dashoffset:0;display:inline"
       sodipodi:type="arc" />
    <path
       game_data="object=stickable"
       transform="matrix(0.50800689,0,0,0.53260713,361.34295,-220.59811)"
       d="M 264.82758,227.10971 A 33.70533,29.692789 0 1 1 197.41692,227.10971 A 33.70533,29.692789 0 1 1 264.82758,227.10971 z"
       sodipodi:ry="29.692789"
       sodipodi:rx="33.70533"
       sodipodi:cy="227.10971"
       sodipodi:cx="231.12225"
       id="path3106"
       style="fill:none;stroke:#00ff00;stroke-width:2;stroke-linecap:butt;stroke-linejoin:miter;stroke-miterlimit:4;stroke-opacity:1;stroke-dasharray:none;stroke-dashoffset:0;display:inline"
       sodipodi:type="arc" />
    <path
       game_data="object=stickable"
       transform="matrix(0.37641132,0,0,0.45967235,398.56711,-65.573987)"
       d="M 264.82758,227.10971 A 33.70533,29.692789 0 1 1 197.41692,227.10971 A 33.70533,29.692789 0 1 1 264.82758,227.10971 z"
       sodipodi:ry="29.692789"
       sodipodi:rx="33.70533"
       sodipodi:cy="227.10971"
       sodipodi:cx="231.12225"
       id="path3108"
       style="fill:none;stroke:#00ff00;stroke-width:2;stroke-linecap:butt;stroke-linejoin:miter;stroke-miterlimit:4;stroke-opacity:1;stroke-dasharray:none;stroke-dashoffset:0;display:inline"
       sodipodi:type="arc" />
    <path
       sodipodi:type="arc"
       style="fill:none;stroke:#00ff00;stroke-width:2;stroke-linecap:butt;stroke-linejoin:miter;stroke-miterlimit:4;stroke-opacity:1;stroke-dasharray:none;stroke-dashoffset:0;display:inline"
       id="path3110"
       sodipodi:cx="231.12225"
       sodipodi:cy="227.10971"
       sodipodi:rx="33.70533"
       sodipodi:ry="29.692789"
       d="M 264.82758,227.10971 A 33.70533,29.692789 0 1 1 197.41692,227.10971 A 33.70533,29.692789 0 1 1 264.82758,227.10971 z"
       transform="matrix(0.96709081,0,0,0.98808182,-3.5228252,-180.72067)"
       game_data="object=stickable" />
    <path
       sodipodi:type="arc"
       style="fill:none;stroke:#00ff00;stroke-width:2;stroke-linecap:butt;stroke-linejoin:miter;stroke-miterlimit:4;stroke-opacity:1;stroke-dasharray:none;stroke-dashoffset:0;display:inline"
       id="path3112"
       sodipodi:cx="231.12225"
       sodipodi:cy="227.10971"
       sodipodi:rx="33.70533"
       sodipodi:ry="29.692789"
       d="M 264.82758,227.10971 A 33.70533,29.692789 0 1 1 197.41692,227.10971 A 33.70533,29.692789 0 1 1 264.82758,227.10971 z"
       transform="matrix(0.7038435,0,0,0.75490816,50.510059,-69.06953)"
       game_data="object=stickable" />
    <path
       sodipodi:type="arc"
       style="fill:none;stroke:#00ff00;stroke-width:2;stroke-linecap:butt;stroke-linejoin:miter;stroke-miterlimit:4;stroke-opacity:1;stroke-dasharray:none;stroke-dashoffset:0;display:inline"
       id="path3114"
       sodipodi:cx="231.12225"
       sodipodi:cy="227.10971"
       sodipodi:rx="33.70533"
       sodipodi:ry="29.692789"
       d="M 264.82758,227.10971 A 33.70533,29.692789 0 1 1 197.41692,227.10971 A 33.70533,29.692789 0 1 1 264.82758,227.10971 z"
       transform="matrix(0.37641132,0,0,0.45967235,119.37742,41.108253)"
       game_data="object=stickable" />
  </g>
</svg>
