<?xml version="1.0" encoding="UTF-8" standalone="no"?>
<!-- Created with Inkscape (http://www.inkscape.org/) -->

<svg
   xmlns:dc="http://purl.org/dc/elements/1.1/"
   xmlns:cc="http://creativecommons.org/ns#"
   xmlns:rdf="http://www.w3.org/1999/02/22-rdf-syntax-ns#"
   xmlns:svg="http://www.w3.org/2000/svg"
   xmlns="http://www.w3.org/2000/svg"
   xmlns:xlink="http://www.w3.org/1999/xlink"
   xmlns:sodipodi="http://sodipodi.sourceforge.net/DTD/sodipodi-0.dtd"
   xmlns:inkscape="http://www.inkscape.org/namespaces/inkscape"
   width="1024"
   height="1024"
   id="svg2"
   version="1.1"
   inkscape:version="0.48.0 r9654"
   sodipodi:docname="level10.svg"
   inkscape:export-filename="/Users/pawel/projects/iphone/StickyET_LSVG32/Resources/levels/level1.png"
   inkscape:export-xdpi="90"
   inkscape:export-ydpi="90"
   game_config="gravity_x=0.0,gravity_y=-1.0">
  <defs
     id="defs4">
    <inkscape:path-effect
       effect="spiro"
       id="path-effect3888"
       is_visible="true" />
  </defs>
  <sodipodi:namedview
     id="base"
     pagecolor="#ffffff"
     bordercolor="#666666"
     borderopacity="1.0"
     inkscape:pageopacity="0.0"
     inkscape:pageshadow="2"
     inkscape:zoom="0.41474658"
     inkscape:cx="476.37491"
     inkscape:cy="660.22374"
     inkscape:document-units="px"
     inkscape:current-layer="layer1"
     showgrid="false"
     inkscape:window-width="1436"
     inkscape:window-height="856"
     inkscape:window-x="0"
     inkscape:window-y="0"
     inkscape:window-maximized="1"
     showguides="true"
     inkscape:guide-bbox="true" />
  <metadata
     id="metadata7">
    <rdf:RDF>
      <cc:Work
         rdf:about="">
        <dc:format>image/svg+xml</dc:format>
        <dc:type
           rdf:resource="http://purl.org/dc/dcmitype/StillImage" />
        <dc:title></dc:title>
      </cc:Work>
    </rdf:RDF>
  </metadata>
  <g
     inkscape:label="graphics"
     inkscape:groupmode="layer"
     id="layer1"
     transform="translate(0,-28.36218)"
     style="display:inline"
     sodipodi:insensitive="true">
    <image
       y="28.362614"
       x="0.0003186035"
       id="image4103"
       xlink:href="file:///Users/pawel/Downloads/levels-tiles-hd/green-level/green-planet-2048x2048-bg.png"
       height="1024"
       width="1024"
       inkscape:export-filename="/Users/pawel/projects/iphone/StickyET_LSVG32/Resources/backgrounds/level10.png"
       inkscape:export-xdpi="90"
       inkscape:export-ydpi="90" />
    <image
       style="display:inline"
       y="445.93491"
       x="48.277573"
       id="image3255"
       xlink:href="file:///Users/pawel/Downloads/levels-tiles-hd/green-level/grass-8.png"
       height="600"
       width="255" />
    <image
       y="887.62103"
       x="398.51279"
       id="image3334"
       xlink:href="file:///Users/pawel/Downloads/levels-tiles-hd/green-level/grass-10.png"
       height="162.25002"
       width="176.89445" />
    <image
       y="317.64212"
       x="623.19513"
       id="image3131"
       xlink:href="file:///Users/pawel/Downloads/reksztaltyliscizopisemkolorow/1.png"
       height="149.78143"
       width="81.32946"
       transform="matrix(0.80430415,0.59421784,0.72890236,-0.68461767,0,0)" />
    <image
       y="795.44794"
       x="-842.63409"
       id="image3193"
       xlink:href="file:///Users/pawel/Downloads/reksztaltyliscizopisemkolorow/2.png"
       height="218.01711"
       width="178.96735"
       transform="matrix(0,-1,1,0,0,0)" />
    <image
       y="-90.595245"
       x="-1034.3831"
       id="image3365"
       xlink:href="file:///Users/pawel/Downloads/reksztaltyliscizopisemkolorow/6.png"
       height="64.754356"
       width="205.52519"
       transform="scale(-1,-1)" />
    <image
       width="169.08209"
       height="216.45926"
       xlink:href="file:///Users/pawel/Downloads/reksztaltyliscizopisemkolorow/3.png"
       id="image3368"
       x="425.22824"
       y="-245.90646"
       transform="scale(1,-1)" />
    <image
       transform="matrix(0.55330111,0.83298132,0.88864383,-0.45859801,0,0)"
       y="524.91595"
       x="744.34406"
       id="image3370"
       xlink:href="file:///Users/pawel/Downloads/reksztaltyliscizopisemkolorow/3.png"
       height="128.58371"
       width="94.447182" />
    <image
       width="158.05132"
       height="316.33063"
       xlink:href="file:///Users/pawel/Downloads/reksztaltyliscizopisemkolorow/2.png"
       id="image3372"
       x="-79.390099"
       y="-341.9921"
       transform="matrix(-0.77771288,0.62861965,-0.72811787,-0.68545195,0,0)" />
    <image
       width="98.536514"
       height="189.08444"
       xlink:href="file:///Users/pawel/Downloads/reksztaltyliscizopisemkolorow/2.png"
       id="image3374"
       x="225.52556"
       y="-264.44403"
       transform="matrix(-0.29128517,0.95663627,-0.92740563,-0.37405722,0,0)" />
    <image
       transform="matrix(-0.80430415,0.59421784,-0.72890236,-0.68461767,0,0)"
       width="81.32946"
       height="149.78143"
       xlink:href="file:///Users/pawel/Downloads/reksztaltyliscizopisemkolorow/1.png"
       id="image3378"
       x="-609.55042"
       y="-752.32648" />
    <image
       y="95.266014"
       x="-950.62286"
       id="image3380"
       xlink:href="file:///Users/pawel/Downloads/reksztaltyliscizopisemkolorow/1.png"
       height="149.78143"
       width="81.32946"
       transform="matrix(-0.93457318,-0.35577095,0.18228943,-0.98324492,0,0)" />
  </g>
  <g
     inkscape:groupmode="layer"
     id="layer2"
     inkscape:label="physics:static"
     style="display:inline"
     sodipodi:insensitive="true">
    <path
       style="fill:none;stroke:#00ff00;stroke-width:3.82927203px;stroke-linecap:butt;stroke-linejoin:miter;stroke-opacity:1"
       d="M 46.0175,21.91505 L 1002.0857,21.91505 L 1002.0857,1102.0858 L 21.91496,1102.0858 L 21.91496,21.91505 z"
       id="path3735"
       inkscape:connector-curvature="0" />
    <rect
       style="color:#000000;fill:none;stroke:#00ff00;stroke-width:0.56793886;stroke-linecap:butt;stroke-linejoin:miter;stroke-miterlimit:4;stroke-opacity:1;stroke-dasharray:none;stroke-dashoffset:0;marker:none;visibility:visible;display:inline;overflow:visible;enable-background:accumulate"
       id="rect3885"
       width="1003.4321"
       height="0.43206111"
       x="13.67137"
       y="1083.2842"
       game_data="object=worldboundary" />
    <path
       sodipodi:type="arc"
       style="fill:none;stroke:#ff0000;stroke-width:2;stroke-linecap:butt;stroke-linejoin:miter;stroke-miterlimit:4;stroke-opacity:1;stroke-dasharray:none;stroke-dashoffset:0"
       id="path3174"
       sodipodi:cx="546.43311"
       sodipodi:cy="230.31721"
       sodipodi:rx="18.063904"
       sodipodi:ry="14.676922"
       d="M 564.49701,230.31721 A 18.063904,14.676922 0 1 1 528.3692,230.31721 A 18.063904,14.676922 0 1 1 564.49701,230.31721 z"
       game_data="object=stickyhero"
       transform="matrix(1,0,0,1.2367273,-366.89822,108.35925)" />
    <path
       sodipodi:type="arc"
       style="fill:none;stroke:#ff0000;stroke-width:2;stroke-linecap:butt;stroke-linejoin:miter;stroke-miterlimit:4;stroke-opacity:1;stroke-dasharray:none;stroke-dashoffset:0"
       id="path3944"
       sodipodi:cx="545.86859"
       sodipodi:cy="576.35388"
       sodipodi:rx="16.370413"
       sodipodi:ry="14.112425"
       d="M 562.239,576.35388 A 16.370413,14.112425 0 1 1 529.49818,576.35388 A 16.370413,14.112425 0 1 1 562.239,576.35388 z"
       game_data="object=portal"
       transform="translate(-65.32825,258.49665)" />
    <path
       sodipodi:type="arc"
       style="fill:none;stroke:#ff0000;stroke-width:2;stroke-linecap:butt;stroke-linejoin:miter;stroke-miterlimit:4;stroke-opacity:1;stroke-dasharray:none;stroke-dashoffset:0"
       id="path3948"
       sodipodi:cx="59.836681"
       sodipodi:cy="137.73972"
       sodipodi:rx="11.28994"
       sodipodi:ry="10.160946"
       d="M 71.126621,137.73972 A 11.28994,10.160946 0 1 1 48.546741,137.73972 A 11.28994,10.160946 0 1 1 71.126621,137.73972 z"
       game_data="object=star"
       transform="translate(-23.12755,108.551)" />
    <path
       sodipodi:type="arc"
       style="fill:none;stroke:#ff0000;stroke-width:2;stroke-linecap:butt;stroke-linejoin:miter;stroke-miterlimit:4;stroke-opacity:1;stroke-dasharray:none;stroke-dashoffset:0"
       id="path3950"
       sodipodi:cx="972.62836"
       sodipodi:cy="165.40007"
       sodipodi:rx="9.5964489"
       sodipodi:ry="9.5964489"
       d="M 982.22481,165.40007 A 9.5964489,9.5964489 0 1 1 963.03191,165.40007 A 9.5964489,9.5964489 0 1 1 982.22481,165.40007 z"
       game_data="object=star"
       transform="matrix(1,0,0,0.8641334,-26.54084,516.99708)" />
    <path
       sodipodi:type="arc"
       style="fill:none;stroke:#ff0000;stroke-width:2;stroke-linecap:butt;stroke-linejoin:miter;stroke-miterlimit:4;stroke-opacity:1;stroke-dasharray:none;stroke-dashoffset:0"
       id="path3150"
       sodipodi:cx="113.36134"
       sodipodi:cy="457.1933"
       sodipodi:rx="9.5798321"
       sodipodi:ry="11.176471"
       d="M 122.94118,457.1933 A 9.5798321,11.176471 0 1 1 103.78151,457.1933 A 9.5798321,11.176471 0 1 1 122.94118,457.1933 z"
       game_data="object=star"
       transform="translate(873.061,-144.45911)" />
    <path
       sodipodi:type="arc"
       style="fill:none;stroke:#00ff00;stroke-width:2;stroke-linecap:butt;stroke-linejoin:miter;stroke-miterlimit:4;stroke-opacity:1;stroke-dasharray:none;stroke-dashoffset:0"
       id="path5749"
       sodipodi:cx="149.26646"
       sodipodi:cy="95.498436"
       sodipodi:rx="81.855797"
       sodipodi:ry="69.818184"
       d="M 231.12226,95.498436 A 81.855797,69.818184 0 1 1 67.410667,95.498436 A 81.855797,69.818184 0 1 1 231.12226,95.498436 z"
       transform="matrix(0.713691,0,0,0.80159625,51.91006,37.11981)"
       game_data="object=stickable" />
    <path
       sodipodi:type="arc"
       style="fill:none;stroke:#00ff00;stroke-width:2;stroke-linecap:butt;stroke-linejoin:miter;stroke-miterlimit:4;stroke-opacity:1;stroke-dasharray:none;stroke-dashoffset:0"
       id="path5751"
       sodipodi:cx="81.855797"
       sodipodi:cy="64.20063"
       sodipodi:rx="32.100315"
       sodipodi:ry="30.495298"
       d="M 113.95611,64.20063 A 32.100315,30.495298 0 1 1 49.755482,64.20063 A 32.100315,30.495298 0 1 1 113.95611,64.20063 z"
       transform="matrix(1.0173142,0,0,1.0775242,0.80529,-9.80621)"
       game_data="object=stickable" />
    <path
       sodipodi:type="arc"
       style="fill:none;stroke:#00ff00;stroke-width:2;stroke-linecap:butt;stroke-linejoin:miter;stroke-miterlimit:4;stroke-opacity:1;stroke-dasharray:none;stroke-dashoffset:0"
       id="path5753"
       sodipodi:cx="520.02509"
       sodipodi:cy="102.721"
       sodipodi:rx="69.015671"
       sodipodi:ry="67.41066"
       d="M 589.04076,102.721 A 69.015671,67.41066 0 1 1 451.00941,102.721 A 69.015671,67.41066 0 1 1 589.04076,102.721 z"
       transform="translate(-12.03362,10.84314)"
       game_data="object=stickable" />
    <path
       sodipodi:type="arc"
       style="fill:none;stroke:#00ff00;stroke-width:2;stroke-linecap:butt;stroke-linejoin:miter;stroke-miterlimit:4;stroke-opacity:1;stroke-dasharray:none;stroke-dashoffset:0"
       id="path5755"
       sodipodi:cx="65.003136"
       sodipodi:cy="286.4953"
       sodipodi:rx="29.692789"
       sodipodi:ry="28.087774"
       d="M 94.695925,286.4953 A 29.692789,28.087774 0 1 1 35.310347,286.4953 A 29.692789,28.087774 0 1 1 94.695925,286.4953 z"
       transform="matrix(1.1672335,0,0,1.1312651,-15.28588,-30.65321)"
       game_data="object=stickable" />
    <path
       sodipodi:type="arc"
       style="fill:none;stroke:#00ff00;stroke-width:2;stroke-linecap:butt;stroke-linejoin:miter;stroke-miterlimit:4;stroke-opacity:1;stroke-dasharray:none;stroke-dashoffset:0"
       id="path5757"
       sodipodi:cx="123.5862"
       sodipodi:cy="301.74295"
       sodipodi:rx="22.470219"
       sodipodi:ry="24.075235"
       d="M 146.05642,301.74295 A 22.470219,24.075235 0 1 1 101.11598,301.74295 A 22.470219,24.075235 0 1 1 146.05642,301.74295 z"
       transform="matrix(1.0181341,0,0,0.94907735,-4.74275,23.67103)"
       game_data="object=stickable" />
    <path
       sodipodi:type="arc"
       style="fill:none;stroke:#00ff00;stroke-width:2;stroke-linecap:butt;stroke-linejoin:miter;stroke-miterlimit:4;stroke-opacity:1;stroke-dasharray:none;stroke-dashoffset:0"
       id="path5759"
       sodipodi:cx="841.83075"
       sodipodi:cy="81.053291"
       sodipodi:rx="23.272728"
       sodipodi:ry="24.877743"
       d="M 865.10348,81.053291 A 23.272728,24.877743 0 1 1 818.55802,81.053291 A 23.272728,24.877743 0 1 1 865.10348,81.053291 z"
       game_data="object=stickable"
       transform="translate(-1.3514,6.52739)" />
    <path
       sodipodi:type="arc"
       style="fill:none;stroke:#00ff00;stroke-width:2;stroke-linecap:butt;stroke-linejoin:miter;stroke-miterlimit:4;stroke-opacity:1;stroke-dasharray:none;stroke-dashoffset:0"
       id="path5761"
       sodipodi:cx="795.28528"
       sodipodi:cy="117.16615"
       sodipodi:rx="28.087774"
       sodipodi:ry="28.890282"
       d="M 823.37305,117.16615 A 28.087774,28.890282 0 1 1 767.1975,117.16615 A 28.087774,28.890282 0 1 1 823.37305,117.16615 z"
       game_data="object=stickable"
       transform="matrix(0.85334205,0,0,0.8009338,120.07546,18.25222)" />
    <path
       sodipodi:type="arc"
       style="fill:none;stroke:#00ff00;stroke-width:2;stroke-linecap:butt;stroke-linejoin:miter;stroke-miterlimit:4;stroke-opacity:1;stroke-dasharray:none;stroke-dashoffset:0"
       id="path5763"
       sodipodi:cx="894.79626"
       sodipodi:cy="113.95612"
       sodipodi:rx="24.877743"
       sodipodi:ry="25.68025"
       d="M 919.67401,113.95612 A 24.877743,25.68025 0 1 1 869.91852,113.95612 A 24.877743,25.68025 0 1 1 919.67401,113.95612 z"
       game_data="object=stickable"
       transform="matrix(0.9014371,0,0,0.8879197,76.84476,7.23159)" />
    <path
       sodipodi:type="arc"
       style="fill:none;stroke:#00ff00;stroke-width:2;stroke-linecap:butt;stroke-linejoin:miter;stroke-miterlimit:4;stroke-opacity:1;stroke-dasharray:none;stroke-dashoffset:0"
       id="path5765"
       sodipodi:cx="893.19122"
       sodipodi:cy="180.56427"
       sodipodi:rx="31.297806"
       sodipodi:ry="29.692789"
       d="M 924.48903,180.56427 A 31.297806,29.692789 0 1 1 861.89342,180.56427 A 31.297806,29.692789 0 1 1 924.48903,180.56427 z"
       game_data="object=stickable"
       transform="matrix(0.7488084,0,0,0.7782943,212.79378,15.89621)" />
    <path
       sodipodi:type="arc"
       style="fill:none;stroke:#00ff00;stroke-width:2;stroke-linecap:butt;stroke-linejoin:miter;stroke-miterlimit:4;stroke-opacity:1;stroke-dasharray:none;stroke-dashoffset:0"
       id="path5767"
       sodipodi:cx="942.14423"
       sodipodi:cy="85.86834"
       sodipodi:rx="27.285267"
       sodipodi:ry="28.087774"
       d="M 969.42949,85.86834 A 27.285267,28.087774 0 1 1 914.85896,85.86834 A 27.285267,28.087774 0 1 1 969.42949,85.86834 z"
       game_data="object=stickable"
       transform="matrix(0.95890995,0,0,0.87424195,31.273,10.00704)" />
    <path
       sodipodi:type="arc"
       style="fill:none;stroke:#00ff00;stroke-width:2;stroke-linecap:butt;stroke-linejoin:miter;stroke-miterlimit:4;stroke-opacity:1;stroke-dasharray:none;stroke-dashoffset:0"
       id="path5769"
       sodipodi:cx="1002.3323"
       sodipodi:cy="97.103447"
       sodipodi:rx="23.272728"
       sodipodi:ry="24.877743"
       d="M 1025.605,97.103447 A 23.272728,24.877743 0 1 1 979.05955,97.103447 A 23.272728,24.877743 0 1 1 1025.605,97.103447 z"
       transform="matrix(1,0,0,0.8747207,-27.30638,27.1033)"
       game_data="object=stickable" />
    <path
       sodipodi:type="arc"
       style="fill:none;stroke:#00ff00;stroke-width:2;stroke-linecap:butt;stroke-linejoin:miter;stroke-miterlimit:4;stroke-opacity:1;stroke-dasharray:none;stroke-dashoffset:0"
       id="path5771"
       sodipodi:cx="957.39185"
       sodipodi:cy="361.12854"
       sodipodi:rx="40.927898"
       sodipodi:ry="30.495298"
       d="M 998.31974,361.12854 A 40.927898,30.495298 0 1 1 916.46395,361.12854 A 40.927898,30.495298 0 1 1 998.31974,361.12854 z"
       transform="matrix(0.95479245,0,0,1.1369892,45.08289,-47.25551)"
       game_data="object=stickable" />
    <path
       style="fill:none;stroke:#00ff00;stroke-width:1px;stroke-linecap:butt;stroke-linejoin:miter;stroke-opacity:1"
       d="M 102.72141,1014.3702 C 99.94349,768.44332 38.87386,445.7313 224.70261,420.51438 C 40.97744,440.56245 134.0114,821.12104 126.79665,1019.1853 L 101.1164,1022.3953"
       id="path5773"
       inkscape:connector-curvature="0"
       sodipodi:nodetypes="cccc"
       game_data="object=stickable" />
    <path
       style="fill:none;stroke:#00ff00;stroke-width:1px;stroke-linecap:butt;stroke-linejoin:miter;stroke-opacity:1"
       d="M 73.83113,1015.9752 L 46.54587,694.97207 C 69.51294,803.04314 94.62404,911.11419 101.1164,1019.1853 z"
       id="path5775"
       inkscape:connector-curvature="0"
       sodipodi:nodetypes="cccc"
       game_data="object=stickable" />
    <path
       style="fill:none;stroke:#00ff00;stroke-width:1px;stroke-linecap:butt;stroke-linejoin:miter;stroke-opacity:1"
       d="M 130.00668,938.93444 C 155.93221,851.79684 153.90357,731.77202 247.17282,723.86235 C 177.14551,708.66911 145.39078,776.97969 121.9816,863.49869 z"
       id="path5777"
       inkscape:connector-curvature="0"
       sodipodi:nodetypes="cccc"
       game_data="object=stickable" />
    <path
       style="fill:none;stroke:#00ff00;stroke-width:1px;stroke-linecap:butt;stroke-linejoin:miter;stroke-opacity:1"
       d="M 147.66185,1015.9752 C 166.79005,938.34139 166.87169,838.47519 295.32329,788.06299 C 175.94868,816.01004 164.44233,885.04974 130.00668,945.35449 z"
       id="path5779"
       inkscape:connector-curvature="0"
       sodipodi:nodetypes="cccc"
       game_data="object=stickable" />
    <path
       style="fill:none;stroke:#00ff00;stroke-width:1px;stroke-linecap:butt;stroke-linejoin:miter;stroke-opacity:1"
       d="M 451.00981,1015.9752 C 454.85993,951.33994 437.66424,923.13824 417.30449,900.41409 C 447.77539,912.15219 469.03533,949.57194 479.9001,1015.9752 z"
       id="path5781"
       inkscape:connector-curvature="0"
       sodipodi:nodetypes="cccc"
       game_data="object=stickable" />
    <path
       style="fill:none;stroke:#00ff00;stroke-width:1px;stroke-linecap:butt;stroke-linejoin:miter;stroke-opacity:1"
       d="M 495.95025,1017.5802 C 487.35154,972.30329 487.97316,930.71454 500.7653,893.99399 C 487.8548,906.58779 476.31859,923.99169 471.87502,966.21974 z"
       id="path5783"
       inkscape:connector-curvature="0"
       sodipodi:nodetypes="cccc"
       game_data="object=stickable" />
    <path
       style="fill:none;stroke:#00ff00;stroke-width:1px;stroke-linecap:butt;stroke-linejoin:miter;stroke-opacity:1"
       d="M 470.27,958.19464 C 468.93809,916.73959 466.84167,874.21419 486.32016,861.89369 C 472.66045,873.32899 453.59068,868.50464 454.21985,922.88429 z"
       id="path5785"
       inkscape:connector-curvature="0"
       sodipodi:nodetypes="cccc"
       game_data="object=stickable" />
    <path
       style="fill:none;stroke:#00ff00;stroke-width:1px;stroke-linecap:butt;stroke-linejoin:miter;stroke-opacity:1"
       d="M 503.9753,1019.1853 C 511.5646,985.39739 502.7619,908.80404 549.7183,921.27929 C 512.8025,896.80189 504.1949,936.01774 491.93771,967.02224 z"
       id="path5787"
       inkscape:connector-curvature="0"
       sodipodi:nodetypes="cccc"
       game_data="object=stickable" />
    <path
       style="fill:none;stroke:#00ff00;stroke-width:1px;stroke-linecap:butt;stroke-linejoin:miter;stroke-opacity:1"
       d="M 516.0129,1020.7903 C 529.8208,1000.4557 538.7613,968.99539 566.5709,980.66484 C 550.6744,953.37154 530.4528,971.49134 510.3954,987.88744 z"
       id="path5793"
       inkscape:connector-curvature="0"
       sodipodi:nodetypes="cccc"
       game_data="object=stickable" />
    <path
       sodipodi:type="arc"
       style="fill:none;stroke:#00ff00;stroke-width:2;stroke-linecap:butt;stroke-linejoin:miter;stroke-miterlimit:4;stroke-opacity:1;stroke-dasharray:none;stroke-dashoffset:0"
       id="path5797"
       sodipodi:cx="867.07697"
       sodipodi:cy="704.52075"
       sodipodi:rx="28.372936"
       sodipodi:ry="31.21023"
       d="M 895.4499,704.52075 A 28.372936,31.21023 0 1 1 838.70403,704.52075 A 28.372936,31.21023 0 1 1 895.4499,704.52075 z"
       transform="matrix(2.3561119,0,0,1.864077,-1150.216,-580.0988)"
       game_data="object=stickable" />
    <path
       sodipodi:type="arc"
       style="fill:none;stroke:#00ff00;stroke-width:2;stroke-linecap:butt;stroke-linejoin:miter;stroke-miterlimit:4;stroke-opacity:1;stroke-dasharray:none;stroke-dashoffset:0"
       id="path5801"
       sodipodi:cx="947.65607"
       sodipodi:cy="706.22308"
       sodipodi:rx="22.698349"
       sodipodi:ry="21.563433"
       d="M 970.35442,706.22308 A 22.698349,21.563433 0 1 1 924.95772,706.22308 A 22.698349,21.563433 0 1 1 970.35442,706.22308 z"
       transform="matrix(0.64092775,0,0,0.6944335,366.78948,218.99925)"
       game_data="object=stickable" />
    <path
       sodipodi:type="arc"
       style="fill:none;stroke:#00ff00;stroke-width:2;stroke-linecap:butt;stroke-linejoin:miter;stroke-miterlimit:4;stroke-opacity:1;stroke-dasharray:none;stroke-dashoffset:0"
       id="path5803"
       sodipodi:cx="965.24731"
       sodipodi:cy="823.11963"
       sodipodi:rx="18.726139"
       sodipodi:ry="17.023762"
       d="M 983.97345,823.11963 A 18.726139,17.023762 0 1 1 946.52118,823.11963 A 18.726139,17.023762 0 1 1 983.97345,823.11963 z"
       game_data="object=stickable"
       transform="translate(-92.82736,-777.583)" />
    <path
       sodipodi:type="arc"
       style="fill:none;stroke:#ff0000;stroke-width:2;stroke-linecap:butt;stroke-linejoin:miter;stroke-miterlimit:4;stroke-opacity:1;stroke-dasharray:none;stroke-dashoffset:0"
       id="path5807"
       sodipodi:cx="57.313332"
       sodipodi:cy="250.55374"
       sodipodi:rx="8.5118809"
       sodipodi:ry="7.3769636"
       d="M 65.825212,250.55374 A 8.5118809,7.3769636 0 1 1 48.801451,250.55374 A 8.5118809,7.3769636 0 1 1 65.825212,250.55374 z"
       game_data="object=box"
       transform="translate(4.54008,-22.69806)" />
    <path
       sodipodi:type="arc"
       style="fill:none;stroke:#ff0000;stroke-width:2;stroke-linecap:butt;stroke-linejoin:miter;stroke-miterlimit:4;stroke-opacity:1;stroke-dasharray:none;stroke-dashoffset:0"
       id="path5809"
       sodipodi:cx="102.14257"
       sodipodi:cy="267.01004"
       sodipodi:rx="10.214257"
       sodipodi:ry="10.214257"
       d="M 112.35683,267.01004 A 10.214257,10.214257 0 1 1 91.928313,267.01004 A 10.214257,10.214257 0 1 1 112.35683,267.01004 z"
       game_data="object=box"
       transform="translate(-19.29318,-12.48381)" />
    <path
       game_data="object=box"
       d="M 112.35683,267.01004 A 10.214257,10.214257 0 1 1 91.928313,267.01004 A 10.214257,10.214257 0 1 1 112.35683,267.01004 z"
       sodipodi:ry="10.214257"
       sodipodi:rx="10.214257"
       sodipodi:cy="267.01004"
       sodipodi:cx="102.14257"
       id="path5811"
       style="fill:none;stroke:#ff0000;stroke-width:2;stroke-linecap:butt;stroke-linejoin:miter;stroke-miterlimit:4;stroke-opacity:1;stroke-dasharray:none;stroke-dashoffset:0"
       sodipodi:type="arc"
       transform="translate(492.55459,-224.71336)" />
    <path
       transform="translate(-64.68989,-40.85676)"
       sodipodi:type="arc"
       style="fill:none;stroke:#ff0000;stroke-width:2;stroke-linecap:butt;stroke-linejoin:miter;stroke-miterlimit:4;stroke-opacity:1;stroke-dasharray:none;stroke-dashoffset:0"
       id="path5813"
       sodipodi:cx="102.14257"
       sodipodi:cy="267.01004"
       sodipodi:rx="10.214257"
       sodipodi:ry="10.214257"
       d="M 112.35683,267.01004 A 10.214257,10.214257 0 1 1 91.928313,267.01004 A 10.214257,10.214257 0 1 1 112.35683,267.01004 z"
       game_data="object=box" />
    <path
       game_data="object=box"
       d="M 112.35683,267.01004 A 10.214257,10.214257 0 1 1 91.928313,267.01004 A 10.214257,10.214257 0 1 1 112.35683,267.01004 z"
       sodipodi:ry="10.214257"
       sodipodi:rx="10.214257"
       sodipodi:cy="267.01004"
       sodipodi:cx="102.14257"
       id="path5815"
       style="fill:none;stroke:#ff0000;stroke-width:2;stroke-linecap:butt;stroke-linejoin:miter;stroke-miterlimit:4;stroke-opacity:1;stroke-dasharray:none;stroke-dashoffset:0"
       sodipodi:type="arc"
       transform="translate(736.5618,-224.71336)" />
    <path
       transform="translate(693.435,-200.88011)"
       sodipodi:type="arc"
       style="fill:none;stroke:#ff0000;stroke-width:2;stroke-linecap:butt;stroke-linejoin:miter;stroke-miterlimit:4;stroke-opacity:1;stroke-dasharray:none;stroke-dashoffset:0"
       id="path5817"
       sodipodi:cx="102.14257"
       sodipodi:cy="267.01004"
       sodipodi:rx="10.214257"
       sodipodi:ry="10.214257"
       d="M 112.35683,267.01004 A 10.214257,10.214257 0 1 1 91.928313,267.01004 A 10.214257,10.214257 0 1 1 112.35683,267.01004 z"
       game_data="object=box" />
    <path
       game_data="object=box"
       d="M 112.35683,267.01004 A 10.214257,10.214257 0 1 1 91.928313,267.01004 A 10.214257,10.214257 0 1 1 112.35683,267.01004 z"
       sodipodi:ry="10.214257"
       sodipodi:rx="10.214257"
       sodipodi:cy="267.01004"
       sodipodi:cx="102.14257"
       id="path5819"
       style="fill:none;stroke:#ff0000;stroke-width:2;stroke-linecap:butt;stroke-linejoin:miter;stroke-miterlimit:4;stroke-opacity:1;stroke-dasharray:none;stroke-dashoffset:0"
       sodipodi:type="arc"
       transform="translate(855.7282,44.26207)" />
    <path
       game_data="object=box"
       d="M 112.35683,267.01004 A 10.214257,10.214257 0 1 1 91.928313,267.01004 A 10.214257,10.214257 0 1 1 112.35683,267.01004 z"
       sodipodi:ry="10.214257"
       sodipodi:rx="10.214257"
       sodipodi:cy="267.01004"
       sodipodi:cx="102.14257"
       id="path5821"
       style="fill:none;stroke:#ff0000;stroke-width:2;stroke-linecap:butt;stroke-linejoin:miter;stroke-miterlimit:4;stroke-opacity:1;stroke-dasharray:none;stroke-dashoffset:0"
       sodipodi:type="arc"
       transform="translate(667.3319,-181.58651)" />
    <path
       transform="translate(813.7362,385.87222)"
       sodipodi:type="arc"
       style="fill:none;stroke:#ff0000;stroke-width:2;stroke-linecap:butt;stroke-linejoin:miter;stroke-miterlimit:4;stroke-opacity:1;stroke-dasharray:none;stroke-dashoffset:0"
       id="path5823"
       sodipodi:cx="102.14257"
       sodipodi:cy="267.01004"
       sodipodi:rx="10.214257"
       sodipodi:ry="10.214257"
       d="M 112.35683,267.01004 A 10.214257,10.214257 0 1 1 91.928313,267.01004 A 10.214257,10.214257 0 1 1 112.35683,267.01004 z"
       game_data="object=box" />
    <path
       transform="translate(690.0302,-222.44356)"
       sodipodi:type="arc"
       style="fill:none;stroke:#ff0000;stroke-width:2;stroke-linecap:butt;stroke-linejoin:miter;stroke-miterlimit:4;stroke-opacity:1;stroke-dasharray:none;stroke-dashoffset:0"
       id="path5825"
       sodipodi:cx="102.14257"
       sodipodi:cy="267.01004"
       sodipodi:rx="10.214257"
       sodipodi:ry="10.214257"
       d="M 112.35683,267.01004 A 10.214257,10.214257 0 1 1 91.928313,267.01004 A 10.214257,10.214257 0 1 1 112.35683,267.01004 z"
       game_data="object=box" />
    <path
       game_data="object=box"
       d="M 112.35683,267.01004 A 10.214257,10.214257 0 1 1 91.928313,267.01004 A 10.214257,10.214257 0 1 1 112.35683,267.01004 z"
       sodipodi:ry="10.214257"
       sodipodi:rx="10.214257"
       sodipodi:cy="267.01004"
       sodipodi:cx="102.14257"
       id="path5827"
       style="fill:none;stroke:#ff0000;stroke-width:2;stroke-linecap:butt;stroke-linejoin:miter;stroke-miterlimit:4;stroke-opacity:1;stroke-dasharray:none;stroke-dashoffset:0"
       sodipodi:type="arc"
       transform="translate(777.4189,388.14206)" />
    <path
       transform="translate(36.31777,171.37282)"
       sodipodi:type="arc"
       style="fill:none;stroke:#ff0000;stroke-width:2;stroke-linecap:butt;stroke-linejoin:miter;stroke-miterlimit:4;stroke-opacity:1;stroke-dasharray:none;stroke-dashoffset:0"
       id="path5829"
       sodipodi:cx="102.14257"
       sodipodi:cy="267.01004"
       sodipodi:rx="10.214257"
       sodipodi:ry="10.214257"
       d="M 112.35683,267.01004 A 10.214257,10.214257 0 1 1 91.928313,267.01004 A 10.214257,10.214257 0 1 1 112.35683,267.01004 z"
       game_data="object=box" />
    <rect
       style="color:#000000;fill:none;stroke:#ff0000;stroke-width:0.95610934;stroke-linecap:butt;stroke-linejoin:miter;stroke-miterlimit:4;stroke-opacity:1;stroke-dasharray:none;stroke-dashoffset:0;marker:none;visibility:visible;display:inline;overflow:visible;enable-background:accumulate"
       id="rect3047"
       width="129.04388"
       height="49.043892"
       x="281.19016"
       y="437.27527"
       game_data="object=stickableplatform,objectParams=direction:horizontal;duration:4;translation:200" />
    <path
       game_data="object=box"
       d="M 112.35683,267.01004 A 10.214257,10.214257 0 1 1 91.928313,267.01004 A 10.214257,10.214257 0 1 1 112.35683,267.01004 z"
       sodipodi:ry="10.214257"
       sodipodi:rx="10.214257"
       sodipodi:cy="267.01004"
       sodipodi:cx="102.14257"
       id="path3819"
       style="fill:none;stroke:#ff0000;stroke-width:2;stroke-linecap:butt;stroke-linejoin:miter;stroke-miterlimit:4;stroke-opacity:1;stroke-dasharray:none;stroke-dashoffset:0"
       sodipodi:type="arc"
       transform="translate(829.6251,55.61124)" />
    <path
       transform="translate(527.737,-228.11811)"
       sodipodi:type="arc"
       style="fill:none;stroke:#ff0000;stroke-width:2;stroke-linecap:butt;stroke-linejoin:miter;stroke-miterlimit:4;stroke-opacity:1;stroke-dasharray:none;stroke-dashoffset:0"
       id="path3044"
       sodipodi:cx="102.14257"
       sodipodi:cy="267.01004"
       sodipodi:rx="10.214257"
       sodipodi:ry="10.214257"
       d="M 112.35683,267.01004 A 10.214257,10.214257 0 1 1 91.928313,267.01004 A 10.214257,10.214257 0 1 1 112.35683,267.01004 z"
       game_data="object=box" />
    <path
       game_data="object=box"
       d="M 112.35683,267.01004 A 10.214257,10.214257 0 1 1 91.928313,267.01004 A 10.214257,10.214257 0 1 1 112.35683,267.01004 z"
       sodipodi:ry="10.214257"
       sodipodi:rx="10.214257"
       sodipodi:cy="267.01004"
       sodipodi:cx="102.14257"
       id="path3046"
       style="fill:none;stroke:#ff0000;stroke-width:2;stroke-linecap:butt;stroke-linejoin:miter;stroke-miterlimit:4;stroke-opacity:1;stroke-dasharray:none;stroke-dashoffset:0"
       sodipodi:type="arc"
       transform="translate(239.468,-226.98321)" />
    <path
       transform="translate(711.5937,-224.71336)"
       sodipodi:type="arc"
       style="fill:none;stroke:#ff0000;stroke-width:2;stroke-linecap:butt;stroke-linejoin:miter;stroke-miterlimit:4;stroke-opacity:1;stroke-dasharray:none;stroke-dashoffset:0"
       id="path3048"
       sodipodi:cx="102.14257"
       sodipodi:cy="267.01004"
       sodipodi:rx="10.214257"
       sodipodi:ry="10.214257"
       d="M 112.35683,267.01004 A 10.214257,10.214257 0 1 1 91.928313,267.01004 A 10.214257,10.214257 0 1 1 112.35683,267.01004 z"
       game_data="object=box" />
    <path
       game_data="object=box"
       d="M 112.35683,267.01004 A 10.214257,10.214257 0 1 1 91.928313,267.01004 A 10.214257,10.214257 0 1 1 112.35683,267.01004 z"
       sodipodi:ry="10.214257"
       sodipodi:rx="10.214257"
       sodipodi:cy="267.01004"
       sodipodi:cx="102.14257"
       id="path3050"
       style="fill:none;stroke:#ff0000;stroke-width:2;stroke-linecap:butt;stroke-linejoin:miter;stroke-miterlimit:4;stroke-opacity:1;stroke-dasharray:none;stroke-dashoffset:0"
       sodipodi:type="arc"
       transform="translate(102.14299,-232.65776)" />
    <path
       transform="translate(-41.99152,-20.42821)"
       sodipodi:type="arc"
       style="fill:none;stroke:#ff0000;stroke-width:2;stroke-linecap:butt;stroke-linejoin:miter;stroke-miterlimit:4;stroke-opacity:1;stroke-dasharray:none;stroke-dashoffset:0"
       id="path3052"
       sodipodi:cx="102.14257"
       sodipodi:cy="267.01004"
       sodipodi:rx="10.214257"
       sodipodi:ry="10.214257"
       d="M 112.35683,267.01004 A 10.214257,10.214257 0 1 1 91.928313,267.01004 A 10.214257,10.214257 0 1 1 112.35683,267.01004 z"
       game_data="object=box" />
    <path
       game_data="object=box"
       d="M 112.35683,267.01004 A 10.214257,10.214257 0 1 1 91.928313,267.01004 A 10.214257,10.214257 0 1 1 112.35683,267.01004 z"
       sodipodi:ry="10.214257"
       sodipodi:rx="10.214257"
       sodipodi:cy="267.01004"
       sodipodi:cx="102.14257"
       id="path3054"
       style="fill:none;stroke:#ff0000;stroke-width:2;stroke-linecap:butt;stroke-linejoin:miter;stroke-miterlimit:4;stroke-opacity:1;stroke-dasharray:none;stroke-dashoffset:0"
       sodipodi:type="arc"
       transform="translate(4.54009,2.9e-4)" />
    <path
       transform="translate(875.0218,13.61929)"
       sodipodi:type="arc"
       style="fill:none;stroke:#ff0000;stroke-width:2;stroke-linecap:butt;stroke-linejoin:miter;stroke-miterlimit:4;stroke-opacity:1;stroke-dasharray:none;stroke-dashoffset:0"
       id="path3056"
       sodipodi:cx="102.14257"
       sodipodi:cy="267.01004"
       sodipodi:rx="10.214257"
       sodipodi:ry="10.214257"
       d="M 112.35683,267.01004 A 10.214257,10.214257 0 1 1 91.928313,267.01004 A 10.214257,10.214257 0 1 1 112.35683,267.01004 z"
       game_data="object=box" />
    <path
       game_data="object=box"
       d="M 112.35683,267.01004 A 10.214257,10.214257 0 1 1 91.928313,267.01004 A 10.214257,10.214257 0 1 1 112.35683,267.01004 z"
       sodipodi:ry="10.214257"
       sodipodi:rx="10.214257"
       sodipodi:cy="267.01004"
       sodipodi:cx="102.14257"
       id="path3149"
       style="fill:none;stroke:#ff0000;stroke-width:2;stroke-linecap:butt;stroke-linejoin:miter;stroke-miterlimit:4;stroke-opacity:1;stroke-dasharray:none;stroke-dashoffset:0"
       sodipodi:type="arc"
       transform="translate(349.55499,-225.84831)" />
    <path
       transform="translate(283.72978,-230.38796)"
       sodipodi:type="arc"
       style="fill:none;stroke:#ff0000;stroke-width:2;stroke-linecap:butt;stroke-linejoin:miter;stroke-miterlimit:4;stroke-opacity:1;stroke-dasharray:none;stroke-dashoffset:0"
       id="path3151"
       sodipodi:cx="102.14257"
       sodipodi:cy="267.01004"
       sodipodi:rx="10.214257"
       sodipodi:ry="10.214257"
       d="M 112.35683,267.01004 A 10.214257,10.214257 0 1 1 91.928313,267.01004 A 10.214257,10.214257 0 1 1 112.35683,267.01004 z"
       game_data="object=box" />
    <path
       game_data="object=box"
       d="M 112.35683,267.01004 A 10.214257,10.214257 0 1 1 91.928313,267.01004 A 10.214257,10.214257 0 1 1 112.35683,267.01004 z"
       sodipodi:ry="10.214257"
       sodipodi:rx="10.214257"
       sodipodi:cy="267.01004"
       sodipodi:cx="102.14257"
       id="path3153"
       style="fill:none;stroke:#ff0000;stroke-width:2;stroke-linecap:butt;stroke-linejoin:miter;stroke-miterlimit:4;stroke-opacity:1;stroke-dasharray:none;stroke-dashoffset:0"
       sodipodi:type="arc"
       transform="translate(129.38101,-224.71336)" />
    <path
       transform="translate(190.66655,-225.84831)"
       sodipodi:type="arc"
       style="fill:none;stroke:#ff0000;stroke-width:2;stroke-linecap:butt;stroke-linejoin:miter;stroke-miterlimit:4;stroke-opacity:1;stroke-dasharray:none;stroke-dashoffset:0"
       id="path3155"
       sodipodi:cx="102.14257"
       sodipodi:cy="267.01004"
       sodipodi:rx="10.214257"
       sodipodi:ry="10.214257"
       d="M 112.35683,267.01004 A 10.214257,10.214257 0 1 1 91.928313,267.01004 A 10.214257,10.214257 0 1 1 112.35683,267.01004 z"
       game_data="object=box" />
    <path
       game_data="object=box"
       d="M 112.35683,267.01004 A 10.214257,10.214257 0 1 1 91.928313,267.01004 A 10.214257,10.214257 0 1 1 112.35683,267.01004 z"
       sodipodi:ry="10.214257"
       sodipodi:rx="10.214257"
       sodipodi:cy="267.01004"
       sodipodi:cx="102.14257"
       id="path3061"
       style="fill:none;stroke:#ff0000;stroke-width:2;stroke-linecap:butt;stroke-linejoin:miter;stroke-miterlimit:4;stroke-opacity:1;stroke-dasharray:none;stroke-dashoffset:0"
       sodipodi:type="arc"
       transform="translate(844.379,362.03895)" />
    <path
       game_data="object=box"
       d="M 112.35683,267.01004 A 10.214257,10.214257 0 1 1 91.928313,267.01004 A 10.214257,10.214257 0 1 1 112.35683,267.01004 z"
       sodipodi:ry="10.214257"
       sodipodi:rx="10.214257"
       sodipodi:cy="267.01004"
       sodipodi:cx="102.14257"
       id="path3063"
       style="fill:none;stroke:#ff0000;stroke-width:2;stroke-linecap:butt;stroke-linejoin:miter;stroke-miterlimit:4;stroke-opacity:1;stroke-dasharray:none;stroke-dashoffset:0"
       sodipodi:type="arc"
       transform="translate(872.7519,364.30879)" />
    <path
       game_data="object=box"
       d="M 112.35683,267.01004 A 10.214257,10.214257 0 1 1 91.928313,267.01004 A 10.214257,10.214257 0 1 1 112.35683,267.01004 z"
       sodipodi:ry="10.214257"
       sodipodi:rx="10.214257"
       sodipodi:cy="267.01004"
       sodipodi:cx="102.14257"
       id="path3065"
       style="fill:none;stroke:#ff0000;stroke-width:2;stroke-linecap:butt;stroke-linejoin:miter;stroke-miterlimit:4;stroke-opacity:1;stroke-dasharray:none;stroke-dashoffset:0"
       sodipodi:type="arc"
       transform="translate(874.7392,397.27791)" />
    <path
       game_data="object=box"
       d="M 112.35683,267.01004 A 10.214257,10.214257 0 1 1 91.928313,267.01004 A 10.214257,10.214257 0 1 1 112.35683,267.01004 z"
       sodipodi:ry="10.214257"
       sodipodi:rx="10.214257"
       sodipodi:cy="267.01004"
       sodipodi:cx="102.14257"
       id="path3067"
       style="fill:none;stroke:#ff0000;stroke-width:2;stroke-linecap:butt;stroke-linejoin:miter;stroke-miterlimit:4;stroke-opacity:1;stroke-dasharray:none;stroke-dashoffset:0"
       sodipodi:type="arc"
       transform="translate(816.0061,363.17387)" />
    <path
       game_data="object=stickable"
       transform="matrix(0.94578075,0,0,0.8638435,108.19882,-99.36391)"
       d="M 146.05642,301.74295 A 22.470219,24.075235 0 1 1 101.11598,301.74295 A 22.470219,24.075235 0 1 1 146.05642,301.74295 z"
       sodipodi:ry="24.075235"
       sodipodi:rx="22.470219"
       sodipodi:cy="301.74295"
       sodipodi:cx="123.5862"
       id="path3382"
       style="fill:none;stroke:#00ff00;stroke-width:2;stroke-linecap:butt;stroke-linejoin:miter;stroke-miterlimit:4;stroke-opacity:1;stroke-dasharray:none;stroke-dashoffset:0"
       sodipodi:type="arc" />
  </g>
</svg>
